<svg xmlns="http://www.w3.org/2000/svg" width="209.2" height="60.772" viewBox="0 0 209.2 60.772">
  <g id="Camada_x0020_1" transform="translate(0 0.002)">
    <path id="Path_140" data-name="Path 140" d="M199.07,32.61l8.97-.05v1.16h-8.85a2.2,2.2,0,0,0-1.69.75,2.386,2.386,0,0,0-.66,1.75,2.3,2.3,0,0,0,.79,1.71,2.522,2.522,0,0,0,1.76.7h3.56a6.079,6.079,0,0,1,4.57,1.65,5.978,5.978,0,0,1,1.68,4.12v.15a6.113,6.113,0,0,1-6.04,6.06h-7.48v-.97h7.15a5.185,5.185,0,0,0,3.65-1.48,4.767,4.767,0,0,0,1.59-3.49v-.2a.078.078,0,0,1-.03-.07v-.1a4.637,4.637,0,0,0-1.51-3.25,4.962,4.962,0,0,0-3.5-1.29h-3.79a3.372,3.372,0,0,1-2.73-1.06,3.751,3.751,0,0,1-.9-2.53,3.481,3.481,0,0,1,1-2.5,3.248,3.248,0,0,1,2.46-1.06Zm-7.92,18V32.69h1.12V50.61Zm-13.62-18,8.98-.05v1.16h-8.86a2.218,2.218,0,0,0-1.69.75,2.386,2.386,0,0,0-.66,1.75,2.336,2.336,0,0,0,.79,1.71,2.528,2.528,0,0,0,1.77.7h3.56a6.07,6.07,0,0,1,4.56,1.65,5.978,5.978,0,0,1,1.68,4.12v.15a6.113,6.113,0,0,1-6.04,6.06h-7.48v-.97h7.15a5.185,5.185,0,0,0,3.65-1.48,4.767,4.767,0,0,0,1.59-3.49v-.2c-.02-.01-.02-.04-.02-.07v-.1a4.687,4.687,0,0,0-1.52-3.25,4.945,4.945,0,0,0-3.5-1.29h-3.78a3.38,3.38,0,0,1-2.74-1.06,3.751,3.751,0,0,1-.9-2.53,3.481,3.481,0,0,1,1-2.5,3.248,3.248,0,0,1,2.46-1.06Zm-19.18-.15h13.41v1.21H159.68v4.96h12.08v1.25H159.68v9.61h12.08v1.15H158.35V32.46Zm-15.4,18.15-1.1-.02V32.74h1.05l11.36,6.12V32.89h1.18V50.61h-1.13V40.18l-11.36-6.04V50.61Zm-13.36-19.5,2.26-2.16h1.78l1.85,2.16h-1.33l-1.5-1.66-1.53,1.66Zm-3.79,1.35h13.42v1.21H127.13v4.96h12.09v1.25H127.13v9.61h12.09v1.15H125.8V32.46Zm-6.59,16.98h2.66V39.61h-3.46V38.43h4.66V50.64h-3.61q-5.07-.03-7.66-2.68a9.081,9.081,0,0,1-2.65-6.42,8.456,8.456,0,0,1,2.72-6.47,9.8,9.8,0,0,1,6.99-2.58h4.29v1.12h-4.52a8.1,8.1,0,0,0-5.88,2.34,7.288,7.288,0,0,0-2.39,5.36v.3a8.756,8.756,0,0,0,2.18,5.38q2.055,2.445,6.67,2.45Z" fill="#332e87"/>
    <path id="Path_141" data-name="Path 141" d="M39.99,41.66h-.05a7.975,7.975,0,0,0,2.42,5.78,8.042,8.042,0,0,0,11.52-.02,8.281,8.281,0,0,0,0-11.66,7.974,7.974,0,0,0-11.54.04,8.1,8.1,0,0,0-2.35,5.86Zm8.02-9.4h-.03a9.372,9.372,0,0,1,9.41,9.28,9.287,9.287,0,0,1-9.25,9.35,8.823,8.823,0,0,1-6.56-2.74,9.028,9.028,0,0,1-2.75-6.56v-.2a9.192,9.192,0,0,1,2.75-6.46,8.712,8.712,0,0,1,6.43-2.67ZM34.44,50.61V32.69h1.13V50.61ZM18.47,38.5h7.7a5.75,5.75,0,0,0,2.61-.52,1.911,1.911,0,0,0,1.05-1.81,2.109,2.109,0,0,0-.86-1.97,4.156,4.156,0,0,0-2.22-.56H18.47V38.5ZM29.78,50.61,26.12,39.78h-7.7V50.64H17.17V32.49h9.7a4.332,4.332,0,0,1,3.21,1,3.626,3.626,0,0,1,.98,2.63,3.211,3.211,0,0,1-1,2.36,4.275,4.275,0,0,1-2.66,1.23l3.53,10.9ZM2.2,41.66l-.03.03a8.183,8.183,0,0,0,2.3,5.49q2.235,2.46,6.56,2.43h3.66v1.03H9.95a8.534,8.534,0,0,1-6.33-2.65,9,9,0,0,1-2.6-6.38,8.55,8.55,0,0,1,2.72-6.5,9.7,9.7,0,0,1,6.99-2.62h3.96v1.18H10.47a8.245,8.245,0,0,0-5.81,2.31A7.374,7.374,0,0,0,2.2,41.66Z" fill="#332e87"/>
    <path id="Path_142" data-name="Path 142" d="M0,57.74H209.2v3.03H0Z" fill="#69bd99"/>
    <path id="Path_143" data-name="Path 143" d="M63.32,6.31h39.12V52.55H63.32Z" fill="#332e87"/>
    <path id="Path_144" data-name="Path 144" d="M74.83,1.83c-.2-.65-.4-1.31.92-1.71s1.52.26,1.72.92c1.59,5.27,5.14,9.85,8.88,14.69a100.241,100.241,0,0,1,7.14,10.1,28.612,28.612,0,0,1,3.11,7.6,16.967,16.967,0,0,1,.39,7.02,17.789,17.789,0,0,1-6.64,11.14c-3.44,2.68-8.11,4.48-14.04,5.55-.67.13-1.35.25-1.59-1.1s.43-1.47,1.11-1.59c5.48-1,9.76-2.62,12.83-5.03a15.028,15.028,0,0,0,5.62-9.47,14.1,14.1,0,0,0-.34-5.88,25.779,25.779,0,0,0-2.82-6.84,95.645,95.645,0,0,0-6.95-9.82c-3.9-5.05-7.6-9.83-9.34-15.58Z" fill="#69bd99"/>
  </g>
</svg>
