<svg id="_2539460338608" xmlns="http://www.w3.org/2000/svg" width="374.72" height="166.47" viewBox="0 0 374.72 166.47">
  <path id="Path_226" data-name="Path 226" d="M557.05,225.9h4.76V207.39h-6.2v-2.22h8.35v22.99H557.5q-9.075-.045-13.73-5.05a17.478,17.478,0,0,1-4.73-12.08,16.263,16.263,0,0,1,4.87-12.18,17.059,17.059,0,0,1,12.51-4.86h7.68v2.12h-8.09a14.824,14.824,0,0,0-14.82,14.49v.57a16.939,16.939,0,0,0,3.91,10.12q3.69,4.605,11.95,4.61Zm11.81-31.96h24.03v2.26H571.24v9.35h21.65v2.36H571.24v18.08h21.65v2.17H568.86V193.94Zm6.78-2.55h0l4.04-4.06h3.19l3.33,4.06h-2.39l-2.69-3.12-2.74,3.12Zm23.94,36.73h0l-1.98-.05V194.46h1.89l20.34,11.52V194.74h2.11v33.38h-2.02V208.48L599.58,197.1v31.02Zm27.58-34.18h24.02v2.26H629.54v9.35h21.64v2.36H629.54v18.08h21.64v2.17H627.16V193.94Zm34.35.28h0l16.08-.09v2.17H661.74a3.866,3.866,0,0,0-3.03,1.41,4.683,4.683,0,0,0-1.19,3.31,4.664,4.664,0,0,0,4.58,4.53h6.37c3.54,0,6.26,1.04,8.18,3.12a11.508,11.508,0,0,1,3.01,7.74v.28a11.271,11.271,0,0,1-3.21,8.05,10.187,10.187,0,0,1-7.62,3.38H655.45v-1.85h12.8a8.972,8.972,0,0,0,6.53-2.78,9.094,9.094,0,0,0,2.86-6.56v-.38a.2.2,0,0,1-.05-.14v-.19a8.94,8.94,0,0,0-2.72-6.11,8.605,8.605,0,0,0-6.26-2.43h-6.78a5.961,5.961,0,0,1-4.9-1.99,7.284,7.284,0,0,1-1.61-4.77,6.8,6.8,0,0,1,1.79-4.72,5.726,5.726,0,0,1,4.4-1.98Zm24.39,33.9h0V194.36h2.02v33.76Zm14.19-33.9h0l16.08-.09v2.17H700.32a3.866,3.866,0,0,0-3.03,1.41,4.737,4.737,0,0,0-1.2,3.31,4.5,4.5,0,0,0,1.42,3.21,4.427,4.427,0,0,0,3.17,1.32h6.37c3.54,0,6.26,1.04,8.18,3.12a11.508,11.508,0,0,1,3.01,7.74v.28a11.271,11.271,0,0,1-3.21,8.05,10.187,10.187,0,0,1-7.62,3.38H694.03v-1.85h12.8a8.972,8.972,0,0,0,6.53-2.78,9.094,9.094,0,0,0,2.86-6.56v-.38a.2.2,0,0,1-.05-.14v-.19a8.94,8.94,0,0,0-2.72-6.11,8.605,8.605,0,0,0-6.26-2.43h-6.78a5.961,5.961,0,0,1-4.9-1.99,7.291,7.291,0,0,1-1.62-4.77,6.807,6.807,0,0,1,1.8-4.72,5.726,5.726,0,0,1,4.4-1.98Z" transform="translate(-343.52 -80.76)" fill="#312f87"/>
  <path id="Path_227" data-name="Path 227" d="M347.46,211.26l-.05.05a15.782,15.782,0,0,0,4.11,10.34q4.02,4.62,11.75,4.58h6.55v1.93h-8.48a14.96,14.96,0,0,1-11.35-4.98,17.429,17.429,0,0,1-4.64-12.01,16.5,16.5,0,0,1,4.87-12.25,16.916,16.916,0,0,1,12.51-4.93h7.09v2.21h-7.54a14.4,14.4,0,0,0-10.42,4.37,14.239,14.239,0,0,0-4.4,10.69Zm49.4,16.86h0l-6.56-20.4H376.52v20.44h-2.25V193.99h17.38c2.67,0,4.58.63,5.75,1.88a7.006,7.006,0,0,1,1.75,4.96,6.209,6.209,0,0,1-1.79,4.44,7.422,7.422,0,0,1-4.77,2.31l6.34,20.54h-2.07Zm-20.25-22.8h13.78a9.763,9.763,0,0,0,4.67-1,3.616,3.616,0,0,0,1.89-3.4,4.032,4.032,0,0,0-1.55-3.7,6.994,6.994,0,0,0-3.97-1.06H376.61v9.16Zm28.6,22.8h0V194.36h2.03v33.76Zm24.3-34.56h-.04a15.729,15.729,0,0,1,11.85,5.07,18.169,18.169,0,0,1,.21,24.79,15.931,15.931,0,0,1-23.54.05,17.409,17.409,0,0,1-4.92-12.35v-.38a17.758,17.758,0,0,1,4.92-12.15,15.25,15.25,0,0,1,11.52-5.03Zm-14.37,17.7h-.09a15.51,15.51,0,0,0,4.33,10.88,13.917,13.917,0,0,0,20.64-.04,16.128,16.128,0,0,0,0-21.95,13.809,13.809,0,0,0-20.66.07,15.658,15.658,0,0,0-4.22,11.04Z" transform="translate(-343.52 -80.76)" fill="#312f87"/>
  <path id="Path_228" data-name="Path 228" d="M343.52,241.53H718.24v5.7H343.52Z" transform="translate(-343.52 -80.76)" fill="#2dd879"/>
  <path id="Path_229" data-name="Path 229" d="M460.65,149.14H523.3v77.85H460.65Z" transform="translate(-343.52 -80.76)" fill="#3e4095"/>
  <path id="Path_230" data-name="Path 230" d="M479.09,141.62c-.32-1.11-.64-2.22,1.47-2.89s2.43.44,2.75,1.55c2.55,8.87,8.23,16.59,14.21,24.73a166.862,166.862,0,0,1,11.45,17,49.654,49.654,0,0,1,4.98,12.79,29.82,29.82,0,0,1,.61,11.82c-1.44,7.95-4.97,14.1-10.63,18.74-5.5,4.53-12.99,7.55-22.47,9.36-1.09.21-2.17.41-2.56-1.86s.7-2.48,1.78-2.68c8.78-1.68,15.63-4.41,20.55-8.46a25.693,25.693,0,0,0,9.01-15.95,25.094,25.094,0,0,0-.56-9.89,44.459,44.459,0,0,0-4.5-11.51,163.368,163.368,0,0,0-11.13-16.54c-6.26-8.5-12.18-16.55-14.96-26.21Z" transform="translate(-343.52 -80.76)" fill="#2dd879"/>
  <g id="Group_90" data-name="Group 90" transform="translate(30.57)">
    <path id="Path_231" data-name="Path 231" d="M574.82,123.05l.29,2.97h0l-6.36.48-6.75.25-7.08.07-7.4-.09-7.65-.23-7.89-.33-8.08-.42-8.23-.46-8.33-.5-8.41-.49-8.44-.47-8.43-.41-8.38-.32-8.29-.23-8.16-.08-8,.07-7.78.27-7.53.47-7.23.72-6.9.98-6.53,1.27-6.11,1.59-5.65,1.92-5.14,2.28-4.61,2.65-4.04,3.05-3.43,3.47-2.81,3.92-2.17,4.4-1.48,4.94-.75,5.51.01,6.13-2.98.19-.01-6.51.81-5.95,1.62-5.39,2.38-4.85,3.09-4.31,3.76-3.8,4.35-3.29,4.91-2.83,5.41-2.4,5.88-2,6.3-1.63,6.69-1.31,7.04-1,7.35-.73,7.63-.48,7.86-.26,8.06-.08,8.22.09,8.33.22,8.41.33,8.46.41,8.45.47,8.41.49,8.34.49,8.21.47,8.06.41,7.85.34,7.62.22,7.33.1,7.01-.07,6.65-.26,6.24-.46h0ZM585.27,85.2l.9-2.85h0l2.3.81,2.2.93,2.09,1.05,1.96,1.15,1.85,1.25,1.71,1.34,1.58,1.42,1.44,1.5,1.28,1.56,1.13,1.63.97,1.68.79,1.72.62,1.76.42,1.79.23,1.81.02,1.81-.2,1.81-.41,1.79-.65,1.75-.88,1.71-1.12,1.65-1.34,1.57-1.59,1.5-1.82,1.4-2.06,1.32-2.31,1.2-2.55,1.11-2.81.98-3.07.87-3.34.74-3.61.6-3.89.46-.29-2.97,3.76-.45,3.46-.58,3.18-.7,2.9-.82,2.62-.92,2.36-1.01,2.1-1.1,1.84-1.17,1.6-1.24,1.36-1.28,1.13-1.32.92-1.36.71-1.39.53-1.41.33-1.43.16-1.45-.02-1.47-.18-1.48-.36-1.48-.52-1.48-.67-1.47-.84-1.45-.99-1.42-1.14-1.39-1.28-1.33-1.42-1.28-1.55-1.22-1.68-1.13-1.8-1.06-1.91-.96-2.02-.85-2.13-.75ZM539.06,98.71l-2.34-1.85h0l1.11-1.33,1.18-1.27,1.25-1.21,1.31-1.15,1.37-1.09,1.42-1.04,1.47-.97,1.51-.92,1.55-.86,1.59-.8,1.62-.74,1.65-.69,1.67-.64,1.69-.58,1.7-.52,1.72-.47,1.72-.42,1.72-.36,1.73-.31,1.71-.25,1.71-.2,1.69-.15,1.68-.09,1.66-.04,1.63.01,1.6.06,1.57.12,1.53.18,1.5.22,1.44.28,1.4.34,1.35.38-.9,2.85-1.21-.35-1.27-.3-1.32-.26-1.38-.2-1.42-.16-1.46-.11-1.5-.06-1.54-.02-1.56.04-1.58.09-1.61.14-1.61.19-1.63.24-1.64.29-1.64.35-1.63.39-1.62.45-1.62.49-1.6.55-1.57.6-1.56.65-1.52.7-1.49.75-1.45.81-1.41.85-1.37.91-1.31.95-1.26,1.01-1.21,1.05-1.14,1.11-1.07,1.15-1.01,1.21h0Zm95.82,52.88v2.99h0l-7.79-.1-7.47-.31-7.14-.49-6.82-.68-6.51-.84-6.19-1.01-5.87-1.17-5.56-1.31-5.25-1.44-4.95-1.57-4.64-1.69-4.33-1.8-4.04-1.9-3.74-1.99-3.45-2.07-3.15-2.15-2.86-2.21-2.58-2.27-2.28-2.32-2-2.36-1.71-2.4-1.42-2.43-1.14-2.44-.85-2.44-.56-2.45-.27-2.43.02-2.4.31-2.36.6-2.29.88-2.23,1.16-2.14,1.44-2.03,2.34,1.85-1.24,1.76-.99,1.83-.75,1.89-.51,1.94-.26,1.99-.02,2.04.23,2.08.49,2.12.75,2.15,1.01,2.17,1.29,2.19,1.56,2.19,1.85,2.18,2.13,2.17,2.42,2.14,2.71,2.1,3.01,2.05,3.31,1.98,3.6,1.92,3.91,1.84,4.21,1.75,4.53,1.64,4.83,1.54,5.14,1.41,5.45,1.28,5.77,1.15,6.09.99,6.41.84,6.74.66,7.05.49,7.39.3,7.71.1h0Zm43.82,7.13-2.91.67-.21-.64-.32-.59-.45-.56-.57-.53-.72-.5-.84-.46-.98-.43-1.09-.38-1.2-.34-1.29-.29-1.38-.24-1.46-.21-1.52-.16-1.57-.13-1.62-.09-1.66-.05-1.68-.03-1.7-.01-1.71.02-1.7.04-1.7.06-1.68.06-1.65.08-1.61.08-1.57.09-1.51.08-1.46.09-1.38.07-1.31.06-1.22.05-1.12.04-1.03.01v-2.99l.97-.01,1.08-.03,1.19-.05,1.29-.06,1.37-.08,1.45-.08,1.51-.08,1.58-.09,1.63-.08,1.66-.08,1.7-.07,1.72-.05,1.74-.04,1.75-.02h1.74l1.73.03,1.71.06,1.69.09,1.65.14,1.61.17,1.55.22,1.5.26,1.44.33,1.36.38,1.29.45,1.2.53,1.11.61,1.01.71.88.81.75.94.58,1.06.38,1.16Zm2.45,17.23-13.03-15.77,17.82-4.11Z" transform="translate(-374.09 -80.76)" fill="#2dd879"/>
  </g>
</svg>
