<svg xmlns="http://www.w3.org/2000/svg" width="617.93" height="482.367" viewBox="0 0 617.93 482.367">
  <g id="Camada_x0020_1" transform="translate(0.001 0.001)">
    <g id="_2539307159552" transform="translate(-0.001 -0.001)">
      <path id="Caminho_236" data-name="Caminho 236" d="M4.22,39.39c.5,1.137,0,.213.64,1.137a10.073,10.073,0,0,0,.782,1.137l.853,1.421c0,.071.071.142.142.213l2.843,5.472c.5.853.782,1.421,1.208,2.2l3.838,7.178c1.777,3.056,3.411,5.97,5.188,9.168,1.635,2.843,3.624,5.9,5.259,9.1l20.467,37.025c1.066,1.848,1.706,3.056,2.558,4.619l5.046,9.452c1.208,2.487-.995-1.421.5.924l12.508,21.888c1.635,3.2,3.482,5.97,5.117,9.168,3.838,7.462,9.665,17.056,14.071,25.371.782,1.492.711,1.706,1.563,2.416l77.036-.995,38.3-.071c1.635,2.629,1.421,3.127,2.843,3.98a14.83,14.83,0,0,0-2.132-3.909c-1.208-1.706-1.208-1.919-2.345-3.766-.5-.853-.711-.782-1.066-1.421l-30.772-55.645c-.142-.355-.284-.5-.5-.995l-3.624-6.538c-.782-1.279-1.421-2.487-2.2-3.767L140.951,76.2c-2.487-4.69-3.909-5.9-3.34-8.67L127.165,88.355c-1.563,2.7-.853.782-2.843,4.975a54.986,54.986,0,0,1-2.629,4.975l-5.046,10.376c1.066-.213,3.838,4.406,4.69,5.472-1.706-3.624,4.193-10.3,18.051-3.909,3.482,1.635,8.386,6.112,8.812,9.878.426,2.985,0,3.624-1.279,4.9-2.487,2.487-4.9,2.345-10.234,2.132-4.264-.213-4.264,1.421-9.1.142.924-2.345,3.767-1.279.284-3.7-.853-.569-1.137-.782-1.99-1.35-4.122-3.056-1.492-2.416-1.066-3.269l-1.279-1.848a4.666,4.666,0,0,1,.64,1.777c-2.772-.426-5.33-2.843-7.675-4.335-11.228-7.178-4.69-3.909-4.548-10.3-1.137.569-2.487,1.635-3.7,2.2-3.34,1.492-11.442,2.132-14.569,1.279-2.132-.64-3.269-.426-5.9-1.421l-3.838-1.066c-4.122-1.421-3.838-1.563-7.462-3.482-.071-.071-.142-.142-.213-.142L65.763,92.761c-3.411-3.624-6.4-10.873-3.7-16.132a6.87,6.87,0,0,1,1.919-2.772c.071,0,.142-.142.142-.142a1.022,1.022,0,0,0,.142-.213c2.772-3.624,7.462-4.477,11.939-4.761,5.188-.355,14.071,1.919,17.909,3.411A10.2,10.2,0,0,1,97.246,74l2.061.924c.995.569.64.5,1.635.995l8.6,7.107c1.279,1.777.853,0,2.416,3.34.64,1.137,4.477,4.477,1.279,8.031-1.492-.782,0,.284-.782-.782l-1.848-3.838-2.914-.071a16.2,16.2,0,0,0,.782,2.914c.142.64.426,2.274.5,2.914a23.051,23.051,0,0,1-.284,6.4c1.35,0,1.848-1.848,2.416-2.772l.213-.213.284-.284.5-.5c1.137,1.35.853,3.056.64,4.975-.213-2.416,1.208-10.944,1.777-13.432a123.169,123.169,0,0,1,8.457-22.67c.569-1.137,5.4-9.025,5.33-9.736a11.292,11.292,0,0,0-3.909-3.482l-.284,3.482c-1.848.924-6.041,1.421-8.528,1.706-4.406.569-8.528,1.848-12.437,2.487L90.779,63.837c-1.919.426-32.69,5.685-33.472,6.254-1.137,1.35-.782,1.99-1.492,3.624-.426.924-.5.5-.782,1.563C54.677,76.7,53.327,83.1,51.55,83.1c-.284-2.843-.995-17.056.284-18.406.924-.711,2.061-.213,3.482-.5.426-.142,2.558-.995,3.056-1.279,5.827-2.7,10.02-5.117,16.772-7.675.995-.355,2.274-.569,3.411-.924.64-.284,1.99-.853,2.843-1.208,6.4-2.487,18.477-4.193,19.9-4.761-.071-2.558-.711-3.7-1.066-5.9-.355-1.99,0-4.548-1.208-5.756l.142,2.416c-3.909.355-8.1-.142-11.939.142-3.553.284-7.533.213-11.442.213-10.02,0-66.8.64-71.564-.071Z" transform="translate(25.779 224.057)" fill="#4f47b0" fill-rule="evenodd"/>
      <path id="Caminho_237" data-name="Caminho 237" d="M13.142,32.238c-3.7,1.35-4.761.711-7.036,4.335-4.335,7.036-6.964,9.807-3.98,17.34,1.066,2.558,17.838,32.051,20.822,37.452,2.914,5.259,5.117,9.807,8.315,14.782,3.767,6.041,9.949,18.406,14.5,25.939L56.279,151.06c2.558,4.9,5.614,9.736,8.386,14.64l18.619,33.614c.711,1.279,1.635,2.487,2.345,3.7l26.863,48.822c2.772,4.193,6.254,11.228,8.67,14.711.64.995,2.132,2.487,2.487,3.2,2.416,1.066,1.492,2.2,5.97,4.619l4.406,2.132c7.888,3.838,11.371,2.914,22.1,2.914,5.4,0,80.518.426,83.787-.284,3.553-.853,5.33-.924,6.964-3.34,1.563-2.274,2.629-4.406,3.909-6.68,4.548-8.1.213-10.873-1.421-15.777L227.335,213.6c-.924-1.919-1.848-2.772-2.843-4.619L217.6,196.543c-.64-1.066-.782-1.706-1.35-2.772l-13.929-24.66c-.924-1.706-1.848-3.269-2.843-5.046l-5.543-10.02c-2.2-3.2-3.482-6.68-5.614-9.878-1.919-2.985-3.482-6.609-5.472-10.02-1.848-3.056-6.4-12.081-8.244-14.853l-11.371-19.97c-.853-1.777-2.2-3.553-2.914-5.188l-2.132,3.2c-.569,2.772.853,3.98,3.34,8.67l21.391,37.949c.782,1.279,1.421,2.487,2.2,3.767l3.624,6.538c.213.5.355.64.5.995L220.016,210.9c.355.64.569.569,1.066,1.421,1.137,1.848,1.137,2.061,2.345,3.766a14.829,14.829,0,0,1,2.132,3.909c2.061,3.056,3.98,7.675,5.543,10.447.853,1.421,1.492,1.492,1.777,3.553l-38.66-.071-77.178.426c-.711-1.563-8.741-14.071-9.665-17.269-.853-.711-.782-.924-1.563-2.416-4.406-8.315-10.234-17.909-14.071-25.371-1.635-3.2-3.482-5.97-5.117-9.168L74.117,158.238c-1.492-2.345.711,1.563-.5-.924l-5.046-9.452c-.853-1.563-1.492-2.772-2.558-4.619L45.548,106.218c-1.635-3.2-3.624-6.254-5.259-9.1-1.777-3.2-3.411-6.112-5.188-9.168l-3.838-7.178c-.426-.782-.711-1.35-1.208-2.2L27.213,73.1c-.071-.071-.142-.142-.142-.213l-.853-1.421a10.072,10.072,0,0,1-.782-1.137c-.64-.924-.142,0-.64-1.137-.355-.5-2.061-3.624-2.7-4.619L16.908,55.05c-.853-1.35-2.132-3.2-2.274-5.046h97.787c.853-.071.995-16.274.213-17.269-1.137-1.421-8.528-.782-10.162-.782H68.431c-14.782,0-30.558.569-45.127,0-1.137,2.345-1.066,4.548-4.761,4.69-3.269.213-4.975-1.635-5.4-4.406Z" transform="translate(5.202 194.255)" fill="#d74853" fill-rule="evenodd"/>
      <path id="Caminho_238" data-name="Caminho 238" d="M39.462,111.96c1.066,1.99.711,3.411.782,5.97,0,2.558.071,4.051-2.843,3.553a4.352,4.352,0,0,1-.5-1.066l-.5-1.208a.539.539,0,0,0-.142-.284c-.924.355-.426,0-.924.782,2.274.711.284,3.909,5.543,1.421v15.706c1.848,1.421,1.919,1.35,4.833,1.35,7.462-.071,45.98-.355,47.117.213a18.747,18.747,0,0,1-1.279-2.132l-.64-1.279a2.86,2.86,0,0,1-.426-1.492c-.213-1.635-3.127-6.041-4.051-7.817l-3.127-6.183c-.64-1.563-.213-2.416,1.35-2.772a8.1,8.1,0,0,1,1.848-.142H104.7c3.34,0,3.553.64,4.9,2.843l10.518,18.761,4.406-.071c1.919-2.772,1.208-7.6,1.208-12.65,0-4.619-.213-9.807.071-14.355a34.6,34.6,0,0,0-4.193-3.34c-2.061-1.706-11.8-10.162-11.513-12.579.213-1.919,5.117-4.193,5.97-6.4-.853-1.492-1.35-.995-1.777-2.558l6.538-.071.071,8.315a38.276,38.276,0,0,0,4.264,2.629c.924-2.2.426-39.157.355-44.843l-84.213.071a18.277,18.277,0,0,1,0-7.6c.569-2.274,1.848-3.2,3.767-4.051,3.2-1.137,29.137.071,35.32-.355.213-5.188-.782-7.533,2.487-11.015-.782.569-1.137.711-1.563,1.563-2.132,3.7-1.208,4.548-1.279,8.883-9.452.071-18.833.071-28.284.071-14.142-.071-10.8-.142-10.873,16.416-.071,18.833.213,37.736,0,56.5l-1.421-.782Z" transform="translate(215.817 178.99)" fill="#89f8fb" fill-rule="evenodd"/>
      <path id="Caminho_239" data-name="Caminho 239" d="M65.785,43.868l1.208.142-.853.995c-.5.569-.071-.142-.5.711.355.569.071.213.569.711a11.405,11.405,0,0,1,3.553,3.34,24.124,24.124,0,0,1,2.061,5.472c1.919,7.32-.213,14.071-1.848,19.97L66.5,83.168c-1.35,1.777-4.264,4.477-5.117,6.041-.355,9.878-1.137,19.543-1.137,29.492v30.63c0,6.822,1.919,58.416,1.421,59.625,1.208.711.426-.426.782,1.635l.071,6.041c.071,2.2.64,4.975.142,7.391-4.264.355-13.858,1.635-14.569,6.822l18.477.071c8.812,0,4.761,2.629,8.528-23.878.995-6.822,2.7-17.056,2.274-24.02a71.041,71.041,0,0,0-1.635-11.584c-.711-3.2,2.629-23.807,3.411-29.137.284-1.777.071-4.69.995-5.685,1.208,1.066,1.35,5.685,2.345,8.457.782,1.99,2.7,13.858,3.553,17.624l3.34,16.061c1.066,4.122,9.168,39.015,9.168,43.066-4.548-.213-7.675-.64-9.736,2.416,2.061,1.777,6.183,2.772,8.812,3.7,3.411,1.208,5.97,2.843,10.234,1.279L108,214.925c.071-9.807-.853-22.883-3.269-32.264-.426-1.635-.924-3.056-1.35-4.761-.5-1.919-1.35-2.985-1.492-4.406-.426-3.553-.569-18.9-.569-23.381-.071-8.244-.5-15.706-.711-23.452-.426-15.137.142-32.122-.995-46.9-.142-1.848,0-3.766-.213-5.614-.355-4.122-2.558-24.376-3.909-26.366-1.421-2.061-7.6-4.335-7.675-4.335-.782-.782.924-5.4-11.371-4.051-7.6.853-4.122,3.056-7.036,4.335a6.952,6.952,0,0,1-3.624.142Z" transform="translate(293.676 239.051)" fill="#35287a" fill-rule="evenodd"/>
      <path id="Caminho_240" data-name="Caminho 240" d="M74.517,66.807c-3.269,3.482-2.274,5.827-2.487,11.015-6.183.426-32.122-.782-35.32.355l35.675-.142a9.755,9.755,0,0,0,2.629,3.838c4.477,4.264,9.523,3.34,16.061,3.34,8.1,0,17.98-.5,25.868.142,6.893-.426,4.477.426,9.523,5.117,1.421,1.279,5.97,6.822,8.03,7.036l.071-11.939c4.975-.782,12.792.071,18.122-.142,4.619-.284,9.31-4.335,9.878-8.244.5-5.685.355-9.239-4.122-12.223-.711-.426-2.843-1.279-2.345-2.061a35.162,35.162,0,0,1,.782-6.822c-.711-1.635,1.492-14.5-10.944-25.513A29.467,29.467,0,0,0,134,24.238c-10.376-2.416-20.112-.853-28.284,5.9-4.051,3.411-5.614,5.9-8.173,10.376-1.919,3.269-.426,4.193-4.051,5.046a14.316,14.316,0,0,0-9.452,8.67c-1.492,3.909-.569,4.477-.995,8.457-3.838.284-6.822,1.563-8.528,4.122Z" transform="translate(224.183 141.493)" fill="#d74853" fill-rule="evenodd"/>
      <path id="Caminho_241" data-name="Caminho 241" d="M155.4,49.092c-2.2,2.629-4.264,5.472-6.325,8.315l-6.538,8.528c-1.635-.213-17.056-9.025-19.756-10.518C120.29,54,104.94,44.97,103.519,44.757l-2.061-1.279c-.782-.5-1.137-.64-1.919-1.066-1.279-.711-2.487-1.279-3.7-2.061-6.4-3.98-6.538-1.777-8.1-3.553-1.492,0-4.69-1.777-10.02.213-6.325,2.416-10.731,18.406-11.8,24.944-1.706,10.873-1.279,23.1.142,34.325.426,2.985-.64,10.162.071,11.8.995.284.782.5,1.777,1.137l1.563,1.066c.071,0,.142.071.213.142l1.066.853c.5.355.355.284.853.64a21.829,21.829,0,0,0,2.2,1.208c7.249,3.7,11.157,5.117,19.472,6.183,4.406.569,9.1-.5,12.579-.071.142,3.2.569,9.736,1.492,12.081-.142-4.335-1.137-9.878-1.208-12.437l5.117-36.1a134.38,134.38,0,0,1,2.416-14.213c2.132.213,6.183,1.848,8.173,2.558,2.629,1.066,5.614,1.919,8.173,2.843,3.127,1.066,14.142,5.97,16.772,4.619,1.137-.569,2.629-3.269,3.127-4.477.64-1.706,1.35-4.406,2.345-5.472.284-1.35,3.98-8.173,4.761-9.381a33.978,33.978,0,0,0,2.914-4.193,12.553,12.553,0,0,1,3.2-3.98l6.4-4.975c4.051-3.553,1.99-17.98-3.127-13.787-1.99,1.635-2.061,5.472-2.345,8.67-.426.853-5.4,1.706-8.67,8.1Z" transform="translate(395.801 192.751)" fill="#d74853" fill-rule="evenodd"/>
      <path id="Caminho_242" data-name="Caminho 242" d="M45.752,55.024h58.2c9.452,0,17.056-12.223,4.264-19.4a46.164,46.164,0,0,1,.853-6.183c.355-1.492,1.848-2.132,3.553-3.624l5.827-4.335c1.137-.569,1.492-.569,1.635-1.919-1.919-.924-9.168-.284-12.081-.355-.5-1.208-.995-2.558-1.563-3.767-1.635-3.838-4.406-6.183-7.391-8.812C87.894-3.179,67.783-.905,60.25,10.892c-2.487,3.98-1.635,1.777-3.7,6.467-2.2,4.9-2.629.426-8.173,5.9-2.985,2.985-3.34,4.9-3.482,10.234,0,1.777.142,1.492-1.421,1.777-7.32,1.35-10.447,8.244-6.964,14.995,1.848,3.624,4.975,4.761,9.239,4.761Z" transform="translate(214.288 2.899)" fill="#f0c1c3" fill-rule="evenodd"/>
      <path id="Caminho_243" data-name="Caminho 243" d="M55.659,64.337l.782,30.274.782,22.883H54.309a35.166,35.166,0,0,0-.782,6.822c3.2-.355,11.442.711,13.574-.5,1.279-2.629-.924-2.2-.213-6.254.355-2.061.924-4.619,1.066-6.254l1.777-13.787c-.711-3.838,2.914-18.548.213-28.284-1.35-4.832.569-13.289,1.35-19.472.711-5.117,1.279-10.731,2.274-15.635.782.995.995,2.487,1.279,4.193.355,2.772,1.35,5.827,1.919,8.386.355,1.492.426,3.411.711,5.188L81.67,69.383c1.137,5.117,1.208,7.675,2.772,13.574L89.274,105.7c1.137,1.421,1.848,7.817,1.848,9.168-3.411.071-6.964.142-8.315,2.487,1.35,1.137,6.609,2.985,8.6,3.624,3.34.995,6.325,2.985,10.3,1.492l.284-3.624-2.061-.711L99.578,96.6a44.024,44.024,0,0,0-.5-7.107c-.355-1.919-.64-5.046-1.137-7.107L94.248,69.6c-.569-2.914-.426-30.7-.924-32.193-.711-.5-.426.64-.64-.924L92.259,15.87c-4.761-3.7-12.65-2.914-19.4-1.99-5.756.782-8.741,2.558-13.289,3.838-1.777.5-1.99.995-3.7,1.706C54.807,23.758,56.157,55.809,55.659,64.337Z" transform="translate(326.757 80.074)" fill="#022985" fill-rule="evenodd"/>
      <path id="Caminho_244" data-name="Caminho 244" d="M119.9,61.715l-.995.924c-.284.284-.355.569-.569.64l-16.985.5c0-2.416,1.137-3.624.5-6.325L99.86,65.2c-.924,2.132-8.67,1.279-11.086.853v-.995c-1.563.213-1.421.426-3.127.995-7.107,2.2-12.437,2.629-19.188,7.675-12.294,9.1-2.629,18.406,5.117,21.533L76.764,97.6c.782.355,2.416.5,3.056.782a25.283,25.283,0,0,0,2.985.853c14.64,2.629,17.98,3.7,35.178,3.624,2.487,0,4.477-.355,7.178-.355,3.127-.071,3.766-.711,6.822-.782,2.7-.142,16.629-3.2,18.833-4.193,6.112-2.914,16.061-7.391,15.919-14.995-.071-3.7-3.624-6.964-6.254-8.883-.853-.569-1.635-.995-2.416-1.421-6.609-3.2-6.751-3.624-13.929-5.614a10.191,10.191,0,0,0-3.056-.711c-1.492-.213-1.563-.426-3.056-.711-2.061-.426-4.9-.64-7.036-.995-.142-5.117,1.35-8.812.782-11.513-.5.64-.071-.213-.355.782a4.981,4.981,0,0,0-.213.995l-.782,5.614c-.64,4.335-2.629,21.036-3.34,22.812-2.132.853-6.467.5-8.812.071-.5-7.6,1.421-14.071,1.635-21.249Z" transform="translate(370.039 321.762)" fill="#d1e8fe" fill-rule="evenodd"/>
      <path id="Caminho_245" data-name="Caminho 245" d="M180.36,80.252c-.071-3.553.355-23.878,1.208-25.229-.853-1.35-5.117-2.061-6.751-2.629l-17.553-5.259c-4.477-.782-4.406-1.492-7.107-2.274L83.07,24.679c-3.056-.853-12.152-4.193-14.569-3.767-.213,6.893,0,14.071,0,21.107-.071,5.259-.284,4.619,4.548,5.9l24.731,7.391c5.827,1.848,11.015,3.269,16.629,4.975,9.665,2.985,23.452,7.462,32.762,9.949,5.614,1.492,11.442,3.838,16.843,4.832Z" transform="translate(417.743 127.479)" fill="#3cf4fe" fill-rule="evenodd"/>
      <path id="Caminho_246" data-name="Caminho 246" d="M25.96,36.309c0,4.335,1.066,6.4.64,8.67-1.99,1.208-4.69,2.7-5.543,6.112-1.066,4.051.426,6.467,2.274,8.883,1.137,1.492,1.777,1.279,3.553,2.2,2.985,1.421,13.574.711,17.34.782.64,2.558.213,7.391.355,10.234,2.487-.071,9.025-9.736,11.584-10.234,3.766-.711,17.838,0,22.6,0,8.173,0,14.569,1.066,17.056-5.97,1.777-5.117,0-10.518-6.183-12.579-.142-.071-.995-.355-1.066-.426-.142,0-.213-.071-.284-.071l-.924-.426c.213-4.975-.213-6.893-2.7-9.665-2.772-3.2-3.624-2.985-8.244-4.548-.569-4.69-5.9-10.234-8.528-12.294C57.8,9.09,42.447,9.588,33.848,18.968c-3.482,3.7-2.843,2.061-5.33,7.107A23.883,23.883,0,0,0,25.96,36.309Z" transform="translate(126.415 70.011)" fill="#f0c1c3" fill-rule="evenodd"/>
      <path id="Caminho_247" data-name="Caminho 247" d="M103.22,110.378,102.438,80.1c-.924-.853-.5-.071-.64-1.777-.071-.569,0-1.635,0-2.274V46.205c0-5.827-.426-11.726-.071-17.411.284-4.975.995-10.944.782-16.061-3.34.071-3.056,4.761-9.1-.142A14.879,14.879,0,0,1,92.2,11.6c-1.137-.924-.213-.426-1.563-1.066.711,2.061,2.7,3.127,4.69,4.335,2.843,1.706,3.411.284,6.183-.853.355,4.406-.355,12.721-.711,16.985l.213,16.345C98.032,40.022,93.7,35.4,86.59,32.561l-.5-.213c-5.046-2.345-11.868-2.2-17.127-.64-9.1,2.7-16.7,11.015-17.767,20.112-.64,4.975.213,7.391.426,11.868-2.914,1.492-4.264,2.629-5.4,6.325a9.891,9.891,0,0,0,2.061,9.239c4.406,4.548,11.584,2.985,20.751,3.127.284,7.178-1.137,12.792,2.772,8.67l2.914-3.127c1.35-1.137,4.406-4.761,5.4-5.259,1.563-.782,18.975-.711,21.32-.071,0,4.548.426,9.31.569,13.858.071,2.416.142,4.832.213,7.178.071,4.051-.426,5.827.995,6.751Z" transform="translate(279.978 64.307)" fill="#f0c1c3" fill-rule="evenodd"/>
      <path id="Caminho_248" data-name="Caminho 248" d="M31.47,37.236c0,24.376,28.711,37.949,47.685,20.4,5.259-4.9,8.386-12.65,8.386-21.178,0-14.5-12.152-26.934-28.782-26.934C43.907,9.52,31.47,22.383,31.47,37.236Z" transform="translate(192.184 58.14)" fill="#483a87" fill-rule="evenodd"/>
      <path id="Caminho_249" data-name="Caminho 249" d="M64.56,128.32v.995c2.416.426,10.162,1.279,11.086-.853l1.99-7.746c-.071-1.848,3.411-18.833,4.051-20.325.853-2.132,1.706-3.127,2.345-5.9,2.7-12.152.711-20.467.995-31.269,1.706.142,5.188,2.274,6.325,3.269,1.208,1.066,2.274,8.528,2.843,11.584l2.416,12.366c2.416,13.218,1.35,5.97.64,17.127-.213,3.056-.64,5.33-.782,8.741-.142,3.34-.711,5.4-.782,8.67-.213,7.178-2.132,13.645-1.635,21.249,2.345.426,6.68.782,8.812-.071.711-1.777,2.7-18.477,3.34-22.812l.782-5.614a4.98,4.98,0,0,1,.213-.995c.284-.995-.142-.142.355-.782-.213-1.99,1.066-9.736,1.492-12.081a65.689,65.689,0,0,0,1.279-12.152c0-7.462-.569-13.005-.782-19.685-.071-2.558-.64-3.98-.64-6.467-.924-2.345-1.35-8.883-1.492-12.081-3.482-.426-8.173.64-12.579.071-8.315-1.066-12.223-2.487-19.472-6.183a21.819,21.819,0,0,1-2.2-1.208c-.5-.355-.355-.284-.853-.64l-1.066-.853c-.071-.071-.142-.142-.213-.142l-1.563-1.066c-.995-.64-.782-.853-1.777-1.137-.5,7.817,3.34,37.594,2.985,44.487l-3.056,20.751c-.711,5.97-1.706,15.848-3.056,20.751Z" transform="translate(394.252 258.498)" fill="#35287a" fill-rule="evenodd"/>
      <path id="Caminho_250" data-name="Caminho 250" d="M43.018,73.888c1.99-1.635,7.32.5,9.381-.995.924-.64,3.127-8.954,5.33-12.01,2.487-1.279,7.178-1.777,9.736-3.2,1.492-.853,3.411-3.553,4.406-5.33.995-1.706.64-1.635,1.706-1.848.071-1.919.64-3.411.569-5.827,0-2.558-.284-3.624.569-5.827.782-2.2-.142-3.98,1.208-5.188,3.127-2.558,1.208.142,2.629-3.624,2.416-.284,5.33,1.421,8.1-.782,1.492-1.137.355-1.066,2.132-1.279.711,1.635.284,2.843.853,4.548.5,1.563.995,1.919,1.066,4.193-1.35,1.137-1.137.711-1.635,2.914l-3.34.142c.64,1.492,1.492,1.492,3.056,2.2l-.5,3.624-7.32.213L80.9,50.081c2.2.711,1.35,1.919,4.335,1.066.853-.853.071-.142.853-.569,4.335-3.127,7.391-12.934,6.112-20.4-1.208-7.391-9.31-12.081-17.411-9.31-5.188,1.777-9.523,9.523-14,13.147-6.183,5.046-11.3,6.041-19.259,8.386-1.706.5-3.553.853-5.472,1.35-3.553.995-12.081,4.335-14.426,5.97C10.967,57.329,8.48,76.8,21.272,87.6c4.335,3.7,13.36,8.528,19.259,8.6l.071-18.69c0-2.132.853-2.843,2.416-3.624Z" transform="translate(77.093 122.544)" fill="#131637" fill-rule="evenodd"/>
      <path id="Caminho_251" data-name="Caminho 251" d="M67.76,125.205v8.67a29.924,29.924,0,0,0-7.675,1.563c-.711.284-2.914.924-3.411,1.137-1.279.64-.213.355-1.279.995a9.132,9.132,0,0,1-1.848.711c-5.614,2.061-11.228,9.665.142,15.777,2.274,1.279,4.69,1.563,7.178,2.416,12.721,4.335,29.421,3.624,42.142.853a16.64,16.64,0,0,0,3.482-1.066c1.563-.64,2.416-.5,3.838-1.137,5.188-2.2,12.294-6.538,7.746-12.863a19.243,19.243,0,0,0-2.416-2.416c-1.137-1.492-.426-4.548-.569-6.609l-.284-1.35a.983.983,0,0,1-.213-.284l-.5-.426-.142,14.284c-4.264,1.563-6.822-.071-10.234-1.279-2.629-.924-6.751-1.919-8.812-3.7,2.061-3.056,5.188-2.63,9.736-2.416,0-4.051-8.1-38.944-9.168-43.066l-3.34-16.061c-.853-3.766-2.772-15.635-3.553-17.624-.995-2.772-1.137-7.391-2.345-8.457-.924.995-.711,3.909-.995,5.685-.782,5.33-4.122,25.939-3.411,29.137a71.037,71.037,0,0,1,1.635,11.584c.426,6.965-1.279,17.2-2.274,24.02-3.766,26.508.284,23.878-8.528,23.878l-18.477-.071c.711-5.188,10.3-6.467,14.569-6.822.5-2.416-.071-5.188-.142-7.391l-.071-6.041c-.355-2.061.426-.924-.782-1.635Z" transform="translate(287.58 322.801)" fill="#d1e8fe" fill-rule="evenodd"/>
      <path id="Caminho_252" data-name="Caminho 252" d="M80.765,34.881c-.213,5.117,0,7.6-2.772,10.873a13.181,13.181,0,0,1-3.624,3.2c-1.706,1.066-2.558.995-3.909,2.2l25.229,7.533c3.056.995,23.523,7.675,25.229,7.036,3.269-6.4,8.244-7.249,8.67-8.1.284-3.2.355-7.036,2.345-8.67,5.117-4.193,7.178,10.234,3.127,13.787l-6.4,4.975c.142,1.563.213,1.279,1.635,1.706.782.213,1.777.355,2.772.64l24.589,7.533c3.411.782,7.107,2.487,10.162,2.843l.924-25.229c1.777.213,2.487.426,4.193.64-1.635-.924-5.046-1.208-7.675-2.487L164.552,53c-1.777-.782-3.2-.426-7.036-2.061L98.389,33.317c-2.843-.853-8.244-2.772-11.086-3.127l-.142-1.35a27.736,27.736,0,0,1-2.985,3.411c-1.066.995-2.558,1.706-3.411,2.629Z" transform="translate(430.282 176.12)" fill="#3cf4fe" fill-rule="evenodd"/>
      <path id="Caminho_253" data-name="Caminho 253" d="M66.126,6.692c-1.563,2.274-3.553.853-6.254,3.127a11.076,11.076,0,0,0-3.624,6.112l-1.635,29.35c.213,5.117-.5,11.086-.782,16.061-.355,5.685.071,11.584.071,17.411V108.6c0,.64-.071,1.706,0,2.274.142,1.706-.284.924.64,1.777.5-8.528-.853-40.579.213-44.914,1.706-.711,1.919-1.208,3.7-1.706C63,64.753,65.984,62.977,71.74,62.2c6.751-.924,14.64-1.706,19.4,1.99l.426,20.609c.213,1.563-.071.426.64.924l-.569-20.325c.284-4.69-.355-9.523-.64-13.858-.355-4.761-.711-9.523-.853-14-.355-9.381-1.421-18.051-1.777-27.432C87.3,8.682,84.6,8.327,82.613,8.114c-2.345-.284-1.137.071-2.558-1.279A10.258,10.258,0,0,0,77.781,5.2C77,5.911,76.573,6.692,75.72,7.119a13.355,13.355,0,0,1-3.269.995c-5.543.569-4.833-1.066-6.325-1.421Z" transform="translate(327.874 31.759)" fill="#35287a" fill-rule="evenodd"/>
      <path id="Caminho_254" data-name="Caminho 254" d="M71.35,50.983c.64-.213,22.67,6.538,24.02,6.965,8.03,2.2,16.274,5.117,24.66,7.32l36.457,11.086c2.132.853,3.98.782,6.041,1.848a49.644,49.644,0,0,0,6.254,1.99l-2.772-1.208a18.435,18.435,0,0,0-3.411-.853l.995-25.584-.569-.213c-.284-.142-.569-.213-.853-.355-5.9-1.706-9.665-3.411-14.071-4.619l-6.254-1.99c-10.02-2.487-13.645-3.909-22.741-6.609a62.136,62.136,0,0,0-6.751-1.919c-.995,1.066-1.706,3.766-2.345,5.472-.5,1.208-1.99,3.909-3.127,4.477-2.629,1.35-13.645-3.553-16.772-4.619-2.558-.924-5.543-1.777-8.173-2.843-1.99-.711-6.041-2.345-8.173-2.558A134.366,134.366,0,0,0,71.35,50.983Z" transform="translate(435.716 224.545)" fill="#3cf4fe" fill-rule="evenodd"/>
      <path id="Caminho_255" data-name="Caminho 255" d="M12.952,53.558c4.761.711,61.543.071,71.564.071,3.909,0,7.888.071,11.442-.213,3.838-.284,8.03.213,11.939-.142l-.142-2.416-.924-4.833c-1.066,0-3.411.142-4.264-.213-2.914-1.066-1.848-7.888-1.99-11.442H2.79c.142,1.848,1.421,3.7,2.274,5.046l5.188,9.523c.64.995,2.345,4.122,2.7,4.619Z" transform="translate(17.047 209.889)" fill="#0492fa" fill-rule="evenodd"/>
      <path id="Caminho_256" data-name="Caminho 256" d="M59.966,39.916c-.782.426,0-.284-.853.569-.995,2.2-.64,1.35.213,3.7,1.35,3.98,2.558,8.244,2.416,12.65A9.007,9.007,0,0,1,53,49.439a2.508,2.508,0,0,0-.213-.995c-.213-.924.071-.355-.355-.924-.284,6.183.853,9.665,4.335,13.5,1.066,1.137.426-.142,1.066,1.563H44.26c.071-6.112.569-7.817-2.345-12.01-2.985-4.406-3.127-1.066-10.3-.355-2.2,3.056-4.406,11.371-5.33,12.01-2.061,1.492-7.391-.64-9.381.995l9.381-.071c0,1.99-1.848,6.751-1.777,15.066.071,5.9-4.335,6.254-2.914,13.858a13.029,13.029,0,0,0,4.761,7.746c1.492,1.137,1.919.995,2.629,1.848l.569,1.279c.213.711.213,1.066.5,1.848,1.208,3.411,3.838,6.4,4.761,8.457,1.706.071,1.279.142,2.629-.426l4.833-2.843.782-.071c.071-2.274-3.98-9.594-4.761-14.711-.711-5.188-.711-1.208-.782-9.025,0-2.985-.355-6.965.995-8.954,0-2.985,1.421-4.9,1.99-7.391.782-3.2,1.635-4.335,2.843-6.751,8.812-1.066,25.3-1.492,30.345,6.822a21.333,21.333,0,0,1,1.99,4.051c.569,1.706,1.919,2.416,3.909,2.274.213-.426.355-.995.64-1.563l1.066-1.492c.284-2.274,1.492-3.838.426-6.822a9.655,9.655,0,0,0-3.98-4.69C70.2,57.9,66.007,58.394,64.514,57.043c1.848-1.35,7.888-2.914,9.239-3.7a95.25,95.25,0,0,0,13.716-8.6c3.482-2.558,16.558-15.919,16.416-18.69a6.342,6.342,0,0,0-2.132-2.416c-3.411-2.914-2.274-2.985-11.228,4.548l-8.812,5.9c-5.259,3.127-14.64,7.746-22.457,7.107a2.512,2.512,0,0,0,.711-1.279Z" transform="translate(103.211 133.206)" fill="#d74853" fill-rule="evenodd"/>
      <path id="Caminho_257" data-name="Caminho 257" d="M63.149,76.765l.782-1.137c.213-1.919.5-3.624-.64-4.975l-.5.5-.284.284-.213.213c-.569.924-1.066,2.772-2.416,2.772a23.052,23.052,0,0,0,.284-6.4c-.071-.64-.355-2.274-.5-2.914a16.2,16.2,0,0,1-.782-2.914l2.914.071,1.848,3.838c.782,1.066-.711,0,.782.782,3.2-3.553-.64-6.893-1.279-8.031-1.563-3.34-1.137-1.563-2.416-3.34l-8.6-7.107c-.995-.5-.64-.426-1.635-.995l-2.061-.924a10.2,10.2,0,0,0-3.127-1.848C41.473,43.151,32.59,40.877,27.4,41.232c-4.477.284-9.168,1.137-11.939,4.761a1.022,1.022,0,0,1-.142.213s-.071.142-.142.142A6.87,6.87,0,0,0,13.26,49.12c-2.7,5.259.284,12.508,3.7,16.132l10.518,8.883c.071,0,.142.071.213.142,3.624,1.919,3.34,2.061,7.462,3.482l3.838,1.066c2.629.995,3.767.782,5.9,1.421,3.127.853,11.228.213,14.569-1.279,1.208-.569,2.558-1.635,3.7-2.2Z" transform="translate(74.587 251.565)" fill="#4f47b0" stroke="#4f47b0" stroke-miterlimit="22.926" stroke-width="0.04" fill-rule="evenodd"/>
      <path id="Caminho_259" data-name="Caminho 259" d="M22.222,42.251c2.772.5,3.838,2.7,6.041,3.624,1.421-.355,2.061-1.492,3.269-2.345a16.426,16.426,0,0,1,3.624-1.563c8.244-2.487,17.482,5.33,16.2,14.355-.782,5.756-5.117,8.954-9.736,11.655L35.085,72.1c-1.563.995-4.761,3.624-6.467,4.122-1.777-.995-.071-.64-1.848-1.279l-.782.071c-2.132,1.137-4.975,2.345-6.041,3.624l-.213.213c-.711.995.995,4.051,2.061,5.259,1.137-.071,2.7-.569,3.056-1.137H23.288a13.8,13.8,0,0,0,.924,6.112,5.435,5.435,0,0,0,4.406,2.985c2.345.071,1.35-.5,3.7-.924,3.838-1.279,5.188-3.34,9.594-3.269l1.99,5.046c.284-2.061-.64-2.487-.569-4.975C61.1,87.662,58.75,90.363,58.75,72.383c0-10.447-.142-21.036.071-31.482,2.487.5,2.132,1.563,4.833,1.421A8.6,8.6,0,0,0,65,38.2l-1.066,1.492c-.284.569-.426,1.137-.64,1.563-1.99.142-3.34-.569-3.909-2.274a21.333,21.333,0,0,0-1.99-4.051c-5.046-8.315-21.533-7.888-30.345-6.822-1.208,2.416-2.061,3.553-2.843,6.751-.569,2.487-1.99,4.406-1.99,7.391Z" transform="translate(119.493 168.181)" fill="#d5d5d5" fill-rule="evenodd"/>
      <path id="Caminho_260" data-name="Caminho 260" d="M84.833,62.254c1.208.355,5.259,3.056,6.4,3.838,2.061,1.35,5.259,2.345,6.893,3.7.142,4.051-5.543,15.777-9.665,20.183-.782.782-1.563,1.848-2.345,2.558L82.63,94.66c-1.492-.711-.213.142-1.208-.924L79.148,89.33,68.63,70.569c-1.35-2.2-1.563-2.843-4.9-2.843H45.534a8.1,8.1,0,0,0-1.848.142c-1.563.355-1.99,1.208-1.35,2.772l3.127,6.183c.924,1.777,3.838,6.183,4.051,7.817,1.99.853,1.279,2.985,3.269,3.98.071-.071.071-.355.071-.284,0,0,.569-.5-.355-2.345l-3.624-6.609c-1.066-1.848-4.406-7.6-4.548-9.31h22.1c1.706,3.98,13.432,23.168,13.36,25.229l-13.076.142c.5,2.132.711.782,1.706,2.345-.853,2.345-3.553,3.838-4.9,6.4.853,1.137,5.827,2.487,7.533,2.772,3.7.64,7.178-.071,10.447-.426,8.67-1.137,14-5.188,16.772-6.112.853-1.563,3.767-4.264,5.117-6.041l3.482-7.959c1.635-5.9,3.767-12.65,1.848-19.97a24.123,24.123,0,0,0-2.061-5.472,11.406,11.406,0,0,0-3.553-3.34c-.5-.5-.213-.142-.569-.711.426-.853,0-.142.5-.711l.853-.995-1.208-.142c-6.68-1.563-13.5-3.553-18.477-6.822a38.275,38.275,0,0,1-4.264-2.629l-.071-8.315-6.538.071c.426,1.563.924,1.066,1.777,2.558-.853,2.2-5.756,4.477-5.97,6.4-.284,2.416,9.452,10.873,11.513,12.579a34.6,34.6,0,0,1,4.193,3.34Z" transform="translate(256.791 227.843)" fill="#d74853" fill-rule="evenodd"/>
      <path id="Caminho_261" data-name="Caminho 261" d="M15.84,58.735c.924,3.2,8.954,15.706,9.665,17.269l77.178-.426c-.142-2.2-1.279-3.127-2.274-4.832L92.876,57.74l-77.036.995Z" transform="translate(96.738 352.601)" fill="#02d4fb" fill-rule="evenodd"/>
      <path id="Caminho_262" data-name="Caminho 262" d="M40.107,72.2c9.381,0,22.528.284,31.411-.071,1.563-2.416.782-27.645.782-34.041.071-2.629.071-2.132-.782-3.838-6.538-.569-23.736-.142-31.411-.142-4.335,0-3.056,3.482-3.056,7.746v22.67C37.051,68.65,35.843,72.2,40.107,72.2Z" transform="translate(225.192 207.376)" fill="#3cf4fe" fill-rule="evenodd"/>
      <path id="Caminho_263" data-name="Caminho 263" d="M37.115,39.3c-1.279.213-2.914,1.208-3.98,1.066a4.5,4.5,0,0,1-1.777-.853,7.257,7.257,0,0,0-1.919-.853c-1.777-.355-.711-.213-1.706-2.061H18.78c1.99,5.614,16.274,19.685,16.7,21.249a11.292,11.292,0,0,1,3.909,3.482c.071.711-4.761,8.6-5.33,9.736A123.171,123.171,0,0,0,25.6,93.737c-.569,2.487-1.99,11.015-1.777,13.431l-.782,1.137c-.142,6.4-6.68,3.127,4.548,10.3,2.345,1.492,4.9,3.909,7.675,4.335a4.666,4.666,0,0,0-.64-1.777l-2.2-2.985c-.853-1.066-3.624-5.685-4.69-5.472l5.046-10.376a54.973,54.973,0,0,0,2.629-4.975c1.99-4.193,1.279-2.274,2.843-4.975L48.7,71.565l2.132-3.2c0-1.635,2.061-4.122,2.629-5.827.64-1.635-.924-5.4-1.35-6.964-.782-2.345-.995-5.117-1.706-7.462-.569-1.919-2.061-5.046-1.706-7.036l-1.99-5.046c-4.406-.071-5.756,1.99-9.594,3.269Z" transform="translate(114.691 220.025)" fill="#022985" fill-rule="evenodd"/>
      <path id="Caminho_264" data-name="Caminho 264" d="M58.743,40.843c1.208,1.208.853,3.766,1.208,5.756.355,2.2.995,3.34,1.066,5.9-1.421.569-13.5,2.274-19.9,4.761-.853.355-2.2.924-2.843,1.208-1.137.355-2.416.569-3.411.924-6.751,2.558-10.944,4.975-16.772,7.675-.5.284-2.629,1.137-3.056,1.279-1.421.284-2.558-.213-3.482.5-1.279,1.35-.569,15.563-.284,18.406,1.777,0,3.127-6.4,3.482-7.817.284-1.066.355-.64.782-1.563.711-1.635.355-2.274,1.492-3.624.782-.569,31.553-5.827,33.472-6.254l12.366-2.345c3.909-.64,8.03-1.919,12.437-2.487,2.487-.284,6.68-.782,8.528-1.706l.284-3.482c-.426-1.563-14.711-15.635-16.7-21.249h8.954c.995,1.848-.071,1.706,1.706,2.061-.213-.5-.355-.924-.569-1.35-.782-1.563.426-.64-1.137-1.421H57.819Z" transform="translate(66.059 219.904)" fill="#35287a" fill-rule="evenodd"/>
      <path id="Caminho_265" data-name="Caminho 265" d="M89.32,33.956c-.355,1.563-.071,1.848.213,3.411A165.174,165.174,0,0,0,69,37.3c-.355-3.98,1.137-7.178.782-11.513L68,39.571c-.142,1.635-.711,4.193-1.066,6.254-.711,4.051,1.492,3.624.213,6.254-2.132,1.208-10.376.142-13.574.5-.5.782,1.635,1.635,2.345,2.061,4.477,2.985,4.619,6.538,4.122,12.223.426-.213.711.355.995-2.345.142-.853,0-1.279.213-2.132,6.041.071,14,2.843,25.015,1.279,3.98-.569,7.888-1.208,11.655-1.919a30.405,30.405,0,0,0,7.817-2.416c3.269-1.563,8.528-4.264,8.883-8.03a6.182,6.182,0,0,0-1.706-5.259,23.327,23.327,0,0,0-1.848-1.563c-1.137-.995-.782-.569-2.132-1.35l-2.061-1.279c-6.893-3.7-5.827,2.061-6.254-10.589-.071-1.066-.071-2.2-.142-3.269a4.571,4.571,0,0,0-.853-3.127l.355,21.533,2.061.711-.284,3.624c-3.98,1.492-6.964-.5-10.3-1.492-1.99-.64-7.249-2.487-8.6-3.624,1.35-2.345,4.9-2.416,8.315-2.487,0-1.35-.711-7.746-1.848-9.168Z" transform="translate(326.71 151.815)" fill="#f0c1c3" fill-rule="evenodd"/>
      <path id="Caminho_266" data-name="Caminho 266" d="M44.6,29.222c-6.4,0-6.822,1.99-9.807,2.487-1.208-1.279-1.35-2.985-2.2-4.619-2.345,0-1.99.995-3.34,4.619a17.831,17.831,0,0,0-.924,2.985c-.569,3.838,1.706,1.919,0,6.4-1.066,2.7-.782,8.741.284,11.371a22.942,22.942,0,0,0,2.843,5.188c3.411,4.335,11.3,7.391,18.122,5.4C67.982,57.72,65.281,29.222,44.6,29.222Z" transform="translate(168.891 165.433)" fill="#d74853" fill-rule="evenodd"/>
      <path id="Caminho_267" data-name="Caminho 267" d="M52.1,63.14c1.635-4.051-1.919-6.041-3.127-7.32-2.558-2.558-.355-4.833-.355-6.68a3.757,3.757,0,0,0-.782-2.132c5.614-.142-.142-2.2,6.254-.213C61.837,49.211,58.426,48,60.7,50.845c.853,1.137,2.558.995,4.051,2.061.142,1.99-.213,1.777-.995,4.406-.995,3.127-.711,1.492-2.487,2.843-.924.711-1.066,2.416-1.563,3.7-.711,1.777-1.421,1.777-1.919,3.056.64,1.066-.142.5,1.137,1.066a23.3,23.3,0,0,0,14,1.492c3.34-.711,9.168-3.34,10.447-5.827.071-1.706.64-1.635.569-3.127,0-1.066-.64-2.132-.711-3.482l-.782-7.533c-5.117-.213-7.391,1.563-10.518-2.2,0-1.777.569-1.848.284-3.34s-.853-1.137-1.066-2.772c7.6-7.959,10.518-3.909,13.645-3.767-.213-1.563-.853-1.848-2.416-2.2-6.325-1.208-2.2-1.279-5.472.5-1.066.569-1.35.569-2.416-.142-1.492-2.843,2.345-.5,1.919-5.33l-3.056-.924c-.142-2.061-.5-1.919.853-2.7l.5-.853c-1.706-.711-6.538-1.279-8.1-.64-1.137.853.853.995-2.7,2.843-3.056,1.635-1.706,2.772-6.4,3.34-3.7.355-4.264.711-5.188,2.416-2.345,4.193-.64,2.061-.995,6.183-2.487.213-1.99-.569-4.051-.569-1.137,2.416-1.848,9.594-.924,13.787A23.147,23.147,0,0,0,48.619,58.8c1.848,3.269,1.777,2.487,3.482,4.335Z" transform="translate(280.427 151.698)" fill="#3cf4fe" fill-rule="evenodd"/>
      <path id="Caminho_268" data-name="Caminho 268" d="M22.51,29.539A17.357,17.357,0,0,0,39.779,47.306C52.926,47.377,60.317,34.017,55.7,23l-4.975-6.68C40.987,8.148,22.51,14.971,22.51,29.539Z" transform="translate(137.469 78.273)" fill="#d74853" fill-rule="evenodd"/>
      <path id="Caminho_269" data-name="Caminho 269" d="M65.923,50.478a58.615,58.615,0,0,1-5.117,5.188c-1.563,1.492-3.269,4.122-5.188,4.619-2.132-.995-.782-2.2-4.193-1.99-1.208,1.919-5.4,6.254-7.32,6.964-.995-.995-2.487-3.127-4.548-1.777-.995.64-2.7,3.766-4.051,2.914-.995-.853-.64-.5-.711-2.345a21.181,21.181,0,0,0-.071-2.985c-2.558-.711-3.482-.355-5.188.711-.284,3.482-.569,20.609.355,22.741,1.706.711,38.589.782,40.081,0,1.279-1.99.569-19.188.5-22.883-2.132-.426.142-.426-2.345-.711a20.937,20.937,0,0,0-2.985-.071c-1.35,6.467,1.706,3.7-2.772,8.386a77.728,77.728,0,0,1-5.614,5.4c-2.843,0-3.411-2.772-6.822-2.7-2.985,0-4.051,2.345-6.4,2.629a29.378,29.378,0,0,1-3.482-3.34c-1.919-1.848-1.137-2.558.853-3.482,2.914,1.066,2.487,4.264,6.325.355a52.427,52.427,0,0,1,4.975-4.832c2.843.711,2.7,5.117,7.32-.995,1.35-1.777,3.766-4.619,5.614-5.756,2.487-3.127,4.9-4.9,7.32-7.32.5-.782,0-.426.924-.782a.539.539,0,0,1,.142.284l.5,1.208a4.352,4.352,0,0,0,.5,1.066c2.914.5,2.843-.995,2.843-3.553-.071-2.558.284-3.98-.782-5.97,0,0-9.736-2.274-8.173,2.061.213.782.284.64.995.995l1.706.64-5.188,5.33Z" transform="translate(178.696 249.497)" fill="#35287a" fill-rule="evenodd"/>
      <path id="Caminho_270" data-name="Caminho 270" d="M56.509,79.461c.355,4.335-1.137,7.533-.782,11.513a165.168,165.168,0,0,1,20.538.071c-.284-1.563-.569-1.848-.213-3.411L71.22,64.892c-1.563-5.9-1.635-8.457-2.772-13.574L64.255,33.837c-.284-1.777-.355-3.7-.711-5.188-.569-2.558-1.563-5.614-1.919-8.386-.284-1.706-.5-3.2-1.279-4.193-.995,4.9-1.563,10.518-2.274,15.635-.782,6.183-2.7,14.64-1.35,19.472C59.423,60.913,55.8,75.623,56.509,79.461Z" transform="translate(339.978 98.138)" fill="#fefefe" fill-rule="evenodd"/>
      <path id="Caminho_271" data-name="Caminho 271" d="M66.827,102.763c.64,2.7-.5,3.909-.5,6.325l16.985-.5c.213-.071.284-.355.569-.64l.995-.924c.071-3.269.64-5.33.782-8.67.142-3.411.568-5.685.782-8.741.711-11.157,1.777-3.909-.64-17.127L83.386,60.123c-.569-3.056-1.635-10.518-2.843-11.584-1.137-.995-4.619-3.127-6.325-3.269-.284,10.8,1.706,19.117-.995,31.269-.64,2.772-1.492,3.767-2.345,5.9-.64,1.492-4.122,18.477-4.051,20.325Z" transform="translate(405.061 276.451)" fill="#fefefe" fill-rule="evenodd"/>
      <path id="Caminho_272" data-name="Caminho 272" d="M78.517,58.039c1.635-.142.426.284,1.492-.995a8.39,8.39,0,0,1,1.208-1.421c.924-.995,1.706-2.132,2.558-3.2,3.624-4.761,6.183-11.868,11.939-8.1,3.624,2.345,3.624,2.274,8.812,2.061.853-.924,2.345-1.635,3.411-2.629a27.723,27.723,0,0,0,2.985-3.411c2.772-3.411.5-6.893-3.2-7.675-5.827-1.35-3.766-.284-10.02-2.772-2.772-1.137-6.538-2.7-10.091-2.914C81.359,26.7,82,28.689,78.659,31.105c-7.746,5.685-14.071.64-11.513,12.65a14.612,14.612,0,0,0,4.619,8.315c1.421,1.35,5.259,5.117,6.751,5.97Z" transform="translate(406.519 164.616)" fill="#353535" fill-rule="evenodd"/>
      <path id="Caminho_273" data-name="Caminho 273" d="M20.831,30.256c-1.35,1.99-.995,5.97-.995,8.954.071,7.817.071,3.838.782,9.025.782,5.117,4.833,12.437,4.761,14.711,1.777.64.071.284,1.848,1.279,1.706-.5,4.9-3.127,6.467-4.122l6.538-4.122c4.619-2.7,8.954-5.9,9.736-11.655,1.279-9.025-7.959-16.843-16.2-14.355a16.426,16.426,0,0,0-3.624,1.563c-1.208.853-1.848,1.99-3.269,2.345-2.2-.924-3.269-3.127-6.041-3.624Z" transform="translate(120.884 180.175)" fill="#1a2258" fill-rule="evenodd"/>
      <path id="Caminho_274" data-name="Caminho 274" d="M70.715,42.214c1.421.213,16.772,9.239,19.259,10.66,2.7,1.492,18.122,10.3,19.756,10.518l6.538-8.528c2.061-2.843,4.122-5.685,6.325-8.315-1.706.64-22.173-6.041-25.229-7.036L72.136,31.98c-1.563.071-1.706-.142-1.919,1.492-.071.5,0,2.416,0,3.056a23.866,23.866,0,0,0,.5,5.685Z" transform="translate(428.606 195.294)" fill="#fefefe" fill-rule="evenodd"/>
      <path id="Caminho_275" data-name="Caminho 275" d="M38.86,19.594c0,5.97,1.706,9.168,5.046,12.437,3.7,3.624,6.538,5.117,12.863,5.117a8.5,8.5,0,0,0,5.33-1.563c.142-6.609-6.467.782-14.071-5.756C33.814,17.675,53.784-3.574,66.434,11.35c4.477,5.259,3.411,15.919-.853,15.706-.355-6.254.995-10.944-2.843-14.64C54.068,4.1,42.2,16.325,48.454,25.279a11.76,11.76,0,0,0,4.833,3.838c3.34,1.279,5.4-.355,8.1-.569C63.8,34.731,73.54,32.883,73.54,19.167,73.54-3.361,38.86-3.716,38.86,19.594Z" transform="translate(237.312 13.386)" fill="#35287a" fill-rule="evenodd"/>
      <path id="Caminho_276" data-name="Caminho 276" d="M36.487,75.639l38.66.071c-.284-2.061-.924-2.132-1.777-3.553-1.563-2.772-3.482-7.391-5.543-10.447-1.421-.853-1.208-1.35-2.843-3.98l-38.3.071,7.533,13.005c.995,1.706,2.132,2.629,2.274,4.833Z" transform="translate(162.934 352.54)" fill="#075cf6" fill-rule="evenodd"/>
      <path id="Caminho_277" data-name="Caminho 277" d="M120.737,42.616l-.213-4.406c-7.888-.64-17.767-.142-25.868-.142-6.538,0-11.584.924-16.061-3.34a9.754,9.754,0,0,1-2.629-3.838l-35.675.142c-1.919.853-3.2,1.777-3.767,4.051a18.278,18.278,0,0,0,0,7.6l84.213-.071Z" transform="translate(220.603 188.638)" fill="#35287a" fill-rule="evenodd"/>
      <path id="Caminho_278" data-name="Caminho 278" d="M47.558,56.489a2.86,2.86,0,0,0,.426,1.492l.64,1.279A18.749,18.749,0,0,0,49.9,61.392c.711,1.848.995,3.767,1.848,5.117l2.487,3.056.213.213,2.558,1.99c1.492.924.782.5,1.208,1.635a4.174,4.174,0,0,0,3.34,2.629c1.35-2.558,4.051-4.051,4.9-6.4-.995-1.563-1.208-.213-1.706-2.345l13.076-.142C77.9,65.088,66.177,45.9,64.472,41.92H42.37c.142,1.706,3.482,7.462,4.548,9.31l3.624,6.609c.924,1.848.355,2.345.355,2.345,0-.071,0,.213-.071.284-1.99-.995-1.279-3.127-3.269-3.98Z" transform="translate(258.747 255.994)" fill="#c7d8f0" fill-rule="evenodd"/>
      <path id="Caminho_279" data-name="Caminho 279" d="M48.47,27.636c0,6.183,4.975,11.939,8.812,17.909,1.066,1.563,2.061,4.335,4.69,4.264,2.061,0,1.635-.355,2.629-1.777l2.132-3.2a.539.539,0,0,1,.142-.284c.071-.071.213-.355.284-.426,3.127-4.833,8.315-9.523,8.315-16.132,0-3.127-.426-4.051-1.706-6.041l-1.706-2.487a11.772,11.772,0,0,0-9.736-4.833,13.051,13.051,0,0,0-6.822,1.279.539.539,0,0,0-.284.142c-.071,0-.142.071-.213.142C51.455,18.042,48.47,22.661,48.47,27.636Z" transform="translate(295.997 89.273)" fill="#d74853" fill-rule="evenodd"/>
      <path id="Caminho_280" data-name="Caminho 280" d="M29.579,73.834c6.964,0,20.112.284,26.366-.213C56.8,70,50.757,61.184,47.63,58.27c-2.772-2.487-3.056-2.7-7.036-4.619-4.051-1.99-3.2-1.848-9.452-2.629-7.107-.782-14.355,2.772-12.579,9.949.569,2.274,2.914,5.685,3.98,7.675C24.249,71.986,24.817,73.834,29.579,73.834Z" transform="translate(111.71 310.924)" fill="#02d4fb" fill-rule="evenodd"/>
      <path id="Caminho_281" data-name="Caminho 281" d="M29.3,61.307c1.706-1.066,2.629-1.421,5.188-.711a21.182,21.182,0,0,1,.071,2.985c.071,1.848-.284,1.492.711,2.345,1.35.853,3.056-2.274,4.051-2.914,2.061-1.35,3.553.782,4.548,1.777,1.919-.711,6.112-5.046,7.32-6.964,3.411-.213,2.061.995,4.193,1.99,1.919-.5,3.624-3.127,5.188-4.619a58.615,58.615,0,0,0,5.117-5.188h-.853c-.213-10.8,3.2-8.954-20.4-8.954-2.274,0-5.046-.142-7.249,0-2.914.213-2.914,1.492-2.914,4.335l-.142,13.858c-.355,1.421-1.99.853-4.264,1.066l-.569.995Z" transform="translate(178.933 249.968)" fill="#d74853" fill-rule="evenodd"/>
      <path id="Caminho_282" data-name="Caminho 282" d="M50.652,48.63l4.548-.569c.355.569.071-.142.426.924.569,1.421.426,2.914.711,3.838.995,2.843,1.279.213,2.274-1.066,2.629,0,2.416,1.208,2.061,3.624l-2.2,1.066c.071,1.706,1.706,4.833,2.558,6.4.995,1.706,3.838,2.985,5.9,3.411.995-.142,6.041-4.406,7.036-5.33A13.276,13.276,0,0,0,78.012,52.4c.213-5.827-1.635-5.97-2.772-9.878-1.279-4.9.355-3.34-4.406-7.959-1.208.426-.355.142-1.279,1.563-2.416-.782-3.767-1.777-6.822-1.99a16.459,16.459,0,0,0-4.122.355c-3.411.64-.995,1.137-2.345,2.629-.355.426-.355.213-.711.5a13.087,13.087,0,0,0-4.9,11.015Z" transform="translate(309.165 208.208)" fill="#131637" fill-rule="evenodd"/>
      <path id="Caminho_283" data-name="Caminho 283" d="M84.167,50.926c1.848.924,17.767,5.472,19.756,5.4l.071-25.655c-3.127-.853-15.706-5.33-18.619-4.975C84.522,27.047,84.1,47.372,84.167,50.926Z" transform="translate(513.936 156.805)" fill="#483a87" fill-rule="evenodd"/>
      <path id="Caminho_284" data-name="Caminho 284" d="M84.16,57.778c.711.5,17.553,5.685,19.685,5.685l.071-25.584c-2.914-1.137-10.3-2.985-14.64-4.69-1.706-.213-2.416-.426-4.193-.64L84.16,57.778Z" transform="translate(513.942 198.775)" fill="#35287a" fill-rule="evenodd"/>
      <path id="Caminho_285" data-name="Caminho 285" d="M90.373,66.635c2.416.355,4.335,1.208,6.467,1.706,2.629.64,3.98,1.706,6.893,1.635l.071-25.157c-1.563-1.208-7.32-2.629-9.168-3.2-1.777-.569-7.888-2.558-9.452-2.629L84.19,64.574a18.436,18.436,0,0,1,3.411.853l2.772,1.208Z" transform="translate(514.125 238.102)" fill="#483a87" fill-rule="evenodd"/>
      <path id="Caminho_286" data-name="Caminho 286" d="M62.776,15.07h8.173a7.882,7.882,0,0,1,1.563,2.772l1.066,3.624a.98.98,0,0,1,.213.284c0-.142.071-.355.142-.284l.426-1.279A2.3,2.3,0,0,1,75,18.694c.924-.924,2.558-.853,4.051-.426,1.777,3.2-.853,3.98-2.843,5.046A5.411,5.411,0,0,0,78.34,28a2.271,2.271,0,0,0,2.132.924l2.345-1.492c3.98-7.675,1.563-1.208,3.909-9.025.5-1.563.426-.924.782-1.563C89.923,12.583,86.3-.28,74.5,0c-6.041.142-6.964,2.558-8.741,3.056-1.066.284-2.772.071-4.122.284a5.545,5.545,0,0,0-1.066,2.345c-.284.924-.569,2.2-.853,3.411-2.061.142-5.259-1.492-6.68-.711.426,1.421,4.193,1.635,7.675,2.487l-.355.64c-1.35,2.914.569,1.848,2.416,3.553Z" transform="translate(323.904 0.001)" fill="#1a2258" fill-rule="evenodd"/>
      <path id="Caminho_287" data-name="Caminho 287" d="M61.839,61.18l3.482.5c5.259-5.97,8.457-23.025,5.472-34.609a66.3,66.3,0,0,0-3.624-10.8C65.677,13.281,61.7,6.814,58.57,5.89c.355,9.381,1.421,18.051,1.777,27.432.142,4.477.5,9.239.853,14,.284,4.335.924,9.168.64,13.858Z" transform="translate(357.674 35.973)" fill="#d74853" fill-rule="evenodd"/>
      <path id="Caminho_288" data-name="Caminho 288" d="M69.532,44.028c1.208,1.635.782,3.482-.071,6.538l-1.421.355c1.563,1.777,1.706-.426,8.1,3.553,1.208.782,2.416,1.35,3.7,2.061.782.426,1.137.569,1.919,1.066l2.061,1.279a23.867,23.867,0,0,1-.5-5.685c0-.64-.071-2.558,0-3.056.213-1.635.355-1.421,1.919-1.492,1.35-1.208,2.2-1.137,3.909-2.2a13.183,13.183,0,0,0,3.624-3.2c2.772-3.269,2.558-5.756,2.772-10.873-5.188.213-5.188.284-8.812-2.061-5.756-3.767-8.315,3.34-11.939,8.1-.853,1.066-1.634,2.2-2.558,3.2a8.389,8.389,0,0,0-1.208,1.421c-1.066,1.279.142.853-1.492.995Z" transform="translate(415.504 178.627)" fill="#fba57d" fill-rule="evenodd"/>
      <path id="Caminho_289" data-name="Caminho 289" d="M20.946,53.236l2.2,2.985,1.279,1.848c-.426.853-3.056.213,1.066,3.269.853.569,1.137.782,1.99,1.35,3.482,2.416.64,1.35-.284,3.7,4.833,1.279,4.833-.355,9.1-.142,5.33.213,7.746.355,10.234-2.132,1.279-1.279,1.706-1.919,1.279-4.9-.426-3.766-5.33-8.244-8.812-9.878-13.858-6.4-19.756.284-18.051,3.909Z" transform="translate(126.17 284.973)" fill="#02d4fb" fill-rule="evenodd"/>
      <path id="Caminho_290" data-name="Caminho 290" d="M60.455,33.857c1.35.64.426.142,1.563,1.066a14.893,14.893,0,0,0,1.208.995c6.041,4.9,5.756.213,9.1.142L73.958,6.71c-1.137,1.421-2.629,6.112-3.7,8.1-.711,1.279-1.137,2.487-1.848,3.838-.711,1.208-1.563,2.843-2.843,3.34-2.274-1.208-5.4-8.741-6.325-11.584-1.919-.071-6.68,1.137-8.457,1.635.071,2.132,2.487,11.015,3.411,12.508.995,1.706,1.99,3.2,2.985,4.9C57.826,30.517,60.384,33.644,60.455,33.857Z" transform="translate(310.164 40.98)" fill="#d74853" fill-rule="evenodd"/>
      <path id="Caminho_291" data-name="Caminho 291" d="M61.693,62.13C66.668,59,71,47.917,68.16,39.815a24.986,24.986,0,0,0-5.543-9.523C60.7,28.16,56.292,24.82,52.526,25.1c-1.35.782-.995.64-.853,2.7l3.056.924c.426,4.833-3.411,2.487-1.919,5.33,1.066.711,1.35.711,2.416.142,3.269-1.777-.853-1.706,5.472-.5,1.563.355,2.2.64,2.416,2.2-3.127-.142-6.041-4.193-13.645,3.767.213,1.635.782,1.279,1.066,2.772s-.284,1.563-.284,3.34c3.127,3.767,5.4,1.99,10.518,2.2l.782,7.533c.071,1.35.711,2.416.711,3.482.071,1.492-.5,1.421-.569,3.127Z" transform="translate(302.104 153.205)" fill="#35287a" fill-rule="evenodd"/>
      <path id="Caminho_292" data-name="Caminho 292" d="M64.783,25.5c1.492.355.782,1.99,6.325,1.421a13.356,13.356,0,0,0,3.269-.995c.853-.426,1.279-1.208,2.061-1.919-.071-1.706-.071-3.411-.071-5.117,0-3.553.426-2.061,1.137-4.406l-2.345,1.492a2.271,2.271,0,0,1-2.132-.924,5.411,5.411,0,0,1-2.132-4.69c1.99-1.066,4.619-1.848,2.843-5.046-1.492-.426-3.127-.5-4.051.426a2.3,2.3,0,0,0-.64,1.492l-.426,1.279c-.071-.071-.142.142-.142.284a.98.98,0,0,0-.213-.284L67.2,4.892A7.882,7.882,0,0,0,65.636,2.12H57.463c-.284,2.843-.5,2.345-1.848,4.335a10.251,10.251,0,0,0-1.706,5.259l2.985,1.35c1.137.426,2.558.213,3.767.355.213,1.99-1.421,2.629-3.411,3.767l-.213.213a9.009,9.009,0,0,0,1.137,3.767l6.68.071L64.783,25.5Z" transform="translate(329.217 12.951)" fill="#f7c7a6" fill-rule="evenodd"/>
      <path id="Caminho_293" data-name="Caminho 293" d="M34.818,24.716c-1.066.213-.711.142-1.706,1.848-.995,1.777-2.914,4.477-4.406,5.33-2.558,1.421-7.249,1.919-9.736,3.2,7.178-.711,7.32-4.051,10.3.355,2.914,4.193,2.416,5.9,2.345,12.01H45.193c-.64-1.706,0-.426-1.066-1.563-3.482-3.838-4.619-7.32-4.335-13.5.426.569.142,0,.355.924a2.508,2.508,0,0,1,.213.995A9.007,9.007,0,0,0,49.1,41.7c.142-4.406-1.066-8.67-2.416-12.65-.853-2.345-1.208-1.492-.213-3.7-2.985.853-2.132-.355-4.335-1.066-.995,1.137-1.563,1.635-2.487,2.629a8.073,8.073,0,0,1-4.833-2.2Z" transform="translate(115.852 148.334)" fill="#483a87" fill-rule="evenodd"/>
      <path id="Caminho_294" data-name="Caminho 294" d="M54.729,6.262c-.071,5.117-.142,6.183-1.777,10.731-1.208,3.553-3.269,6.183-3.482,7.32l11.157.284.142,2.487c1.35.213,2.487.284,3.2.995,1.492-1.563.5-2.772,2.843-4.833l.355-.284c1.777-1.421,1.563-1.635,2.132-4.193.64-3.056,2.061-8.528-.853-10.731C67.237,7.115,55.653,2.211,54.3,2.14Z" transform="translate(302.104 13.073)" fill="#35287a" fill-rule="evenodd"/>
      <path id="Caminho_295" data-name="Caminho 295" d="M33.481,14.223c-1.137,11.015,14.426,19.685,24.3,9.878.995-.995,6.964-9.594,2.7-10.091Z" transform="translate(204.103 85.558)" fill="#89f8fb" fill-rule="evenodd"/>
      <path id="Caminho_296" data-name="Caminho 296" d="M77.683,41.706l.142-7.675L42.719,33.96c-.782,8.244-.071,7.959,2.487,7.888C53.165,41.848,72.14,42.275,77.683,41.706Z" transform="translate(259.038 207.385)" fill="#35287a" fill-rule="evenodd"/>
      <path id="Caminho_297" data-name="Caminho 297" d="M25.289,48.38c-9.736,0-9.025,6.041-5.543,10.02,6.041,6.822,17.838,8.457,20.609,3.553,1.421-2.558-.355-6.325-1.492-7.533C37.015,52.5,29.268,48.38,25.289,48.38Z" transform="translate(106.193 295.443)" fill="#02d4fb" fill-rule="evenodd"/>
      <path id="Caminho_298" data-name="Caminho 298" d="M47.27,67.9,49.544,72.3c.995,1.066-.284.213,1.208.924l3.482-2.132c.782-.711,1.563-1.777,2.345-2.558C60.7,64.13,66.387,52.4,66.245,48.353c-1.635-1.35-4.833-2.345-6.893-3.7-1.137-.782-5.188-3.482-6.4-3.838-.284,4.548-.071,9.736-.071,14.355,0,5.046.711,9.878-1.208,12.65L47.27,67.9Z" transform="translate(288.669 249.277)" fill="#fefefe" fill-rule="evenodd"/>
      <path id="Caminho_299" data-name="Caminho 299" d="M21.2,43.708a8.073,8.073,0,0,0,4.833,2.2c.924-.995,1.492-1.492,2.487-2.629l.071-4.264,7.32-.213.5-3.624c-1.563-.711-2.416-.711-3.056-2.2l3.34-.142c.5-2.2.284-1.777,1.635-2.914-.071-2.274-.569-2.629-1.066-4.193-.569-1.706-.142-2.914-.853-4.548-1.777.213-.64.142-2.132,1.279-2.772,2.2-5.685.5-8.1.782-1.421,3.767.5,1.066-2.629,3.624-1.35,1.208-.426,2.985-1.208,5.188-.853,2.2-.569,3.269-.569,5.827.071,2.416-.5,3.909-.569,5.827Z" transform="translate(129.469 129.343)" fill="#f7c7a6" fill-rule="evenodd"/>
      <path id="Caminho_300" data-name="Caminho 300" d="M60.176,20.795s-4.761-1.706-4.122-5.543a4.553,4.553,0,0,1,1.919-2.914c1.563-.853,2.772-.213,4.335-.213C63.16.186,55.912-1.449,51.15,6.582c-3.127,5.33-4.975,16.345-.853,20.538C54.277,31.1,59.82,24.064,60.176,20.795Z" transform="translate(292.606 9.91)" fill="#35287a" fill-rule="evenodd"/>
      <path id="Caminho_301" data-name="Caminho 301" d="M44.637,38.567c1.492-3.482-.213-3.909-2.132-5.4-5.614-4.335-14.071-5.756-21.462-5.756-5.543,0-13.218,2.7-16.843,5.046A18.345,18.345,0,0,0,.932,34.517C-.276,35.8-.419,38,1.145,38.781c1.919.995,3.127-.5,4.335-1.208a30.534,30.534,0,0,1,3.7-1.99c2.416-1.137,5.33-2.487,8.1-2.7C38.1,31.105,39.236,40.984,44.637,38.567Z" transform="translate(0.001 167.387)" fill="#d74853" fill-rule="evenodd"/>
      <path id="Caminho_302" data-name="Caminho 302" d="M17.891,15.43a5.381,5.381,0,0,0-3.553,5.756c.142,2.914,2.061,4.051,3.838,5.33,4.9,3.34,5.685,4.9,8.741,2.558.924-.64,2.061-1.279,2.985-1.919,1.99-1.421,3.98-2.274,4.619-4.548A5.527,5.527,0,0,0,32.1,16c-2.416-1.706-3.838-1.208-6.68,0C22.937,16.994,22.226,13.582,17.891,15.43Z" transform="translate(87.509 90.818)" fill="#35287a" fill-rule="evenodd"/>
      <path id="Caminho_303" data-name="Caminho 303" d="M50.54,45.016c1.35,1.35,4.619,4.122,6.822,4.832-1.279-.569-.5,0-1.137-1.066.5-1.279,1.208-1.279,1.919-3.056.5-1.279.64-2.985,1.563-3.7,1.777-1.35,1.492.284,2.487-2.843.782-2.629,1.137-2.416.995-4.406-1.492-1.066-3.2-.924-4.051-2.061-2.274-2.843,1.137-1.635-6.609-4.051-6.4-1.99-.64.071-6.254.213a3.756,3.756,0,0,1,.782,2.132c0,1.848-2.2,4.122.355,6.68,1.208,1.279,4.761,3.269,3.127,7.32Z" transform="translate(281.988 169.822)" fill="#35287a" fill-rule="evenodd"/>
      <path id="Caminho_304" data-name="Caminho 304" d="M24.064,17.89V28.834c0,8.812,9.807-.071,12.081-1.706,3.767-2.772,4.69-4.051-.142-7.746-3.909-2.985-9.239-7.959-11.584-3.98-.426.711-.355.995-.355,2.487Z" transform="translate(146.931 85.019)" fill="#fefefe" fill-rule="evenodd"/>
      <path id="Caminho_305" data-name="Caminho 305" d="M28.17,61.957c-7.746,3.766,8.954,16.629,16.7,14.142C52.83,73.541,35.49,58.333,28.17,61.957Z" transform="translate(159.809 374.963)" fill="#d5d5d5" fill-rule="evenodd"/>
      <path id="Caminho_306" data-name="Caminho 306" d="M56.813,47.4V43.06c-1.848,1.137-4.264,3.98-5.614,5.756-4.619,6.112-4.477,1.706-7.32.995A52.425,52.425,0,0,0,38.9,54.644c-3.838,3.909-3.411.711-6.325-.355-1.99.924-2.772,1.635-.853,3.482a29.379,29.379,0,0,0,3.482,3.34c2.345-.284,3.411-2.629,6.4-2.629,3.411-.071,3.98,2.7,6.822,2.7a77.721,77.721,0,0,0,5.614-5.4c4.477-4.69,1.421-1.919,2.772-8.386Z" transform="translate(187.024 262.956)" fill="#d74853" fill-rule="evenodd"/>
      <path id="Caminho_307" data-name="Caminho 307" d="M68.681,58.183l-.071,7.391c4.832.569,16.061-1.35,20.822-3.127,1.919-.782,4.051-1.635,3.838-4.122-1.706-1.279-4.122-1.066-6.822-.995Z" transform="translate(418.984 349.742)" fill="#353535" fill-rule="evenodd"/>
      <path id="Caminho_308" data-name="Caminho 308" d="M64.793,56.082l-.213,7.533c3.7,0,23.949-1.066,24.589-7.107-2.629-2.772-12.366-.64-15.564-.569C70.692,56.011,67.778,55.94,64.793,56.082Z" transform="translate(394.375 336.421)" fill="#353535" fill-rule="evenodd"/>
      <path id="Caminho_309" data-name="Caminho 309" d="M43.028,36.749c2.132,3.624,5.756,3.482,8.67,5.33-.213,1.706-.142,1.563-1.066,2.629a6.151,6.151,0,0,0,.782,4.051c.64,1.848.64,2.558,2.416,3.056,1.563.426,3.056.853,4.406,1.279a12.2,12.2,0,0,0,2.843-2.2,10.577,10.577,0,0,1,2.629-2.2c-.426-2.345-1.279-2.274-1.919-4.051-2.7-4.264-2.7-3.411-5.543-4.406-1.563-.5-3.909-1.99-7.107-2.843-1.777-.5-3.909-1.492-5.614-1.919-.782.853-.426-.995-.5,1.279Z" transform="translate(262.637 216.606)" fill="#f7c7a6" fill-rule="evenodd"/>
      <path id="Caminho_310" data-name="Caminho 310" d="M44.725,36.534c3.2.853,5.543,2.345,7.107,2.843,2.843.995,2.843.142,5.543,4.406,2.772,0,10.02.711,11.939-.284.071-.071.142-.355.142-.284l.142-7.533L43.73,35.61C44.3,36.321,43.943,36.036,44.725,36.534Z" transform="translate(267.052 217.461)" fill="#35287a" fill-rule="evenodd"/>
      <path id="Caminho_311" data-name="Caminho 311" d="M45.422,72.032c.426-2.061.284-1.99-.782-3.98l-.426-.782a.543.543,0,0,0-.142-.355c0-.071-.071-.142-.142-.284l.355-.569c2.274-4.548-5.543-3.269-9.594-3.482a8.139,8.139,0,0,0-1.848-4.335L29.5,57.89C29.29,59.24,29.361,64,30,65c.426.711,1.066,1.35,1.563,2.2,1.635,2.914,2.416,4.9,6.183,4.975a54.944,54.944,0,0,0,7.675-.142Z" transform="translate(179.512 353.517)" fill="#3cf4fe" fill-rule="evenodd"/>
      <path id="Caminho_312" data-name="Caminho 312" d="M53.813,16.092a5.191,5.191,0,0,0-3.482,2.7c-2.629,4.264.64,11.655,8.315,9.452,6.68-1.919,4.335-15.492-4.832-12.152Z" transform="translate(301.883 95.06)" fill="#35287a" fill-rule="evenodd"/>
      <path id="Caminho_313" data-name="Caminho 313" d="M61.516,42.05c-1.35-.426-2.843-.853-4.406-1.279-1.777-.5-1.777-1.208-2.416-3.056-1.706-.711-9.523-.355-12.081-.284l-.142,7.675,19.259.071Z" transform="translate(259.357 227.651)" fill="#35287a" fill-rule="evenodd"/>
      <path id="Caminho_314" data-name="Caminho 314" d="M17.668,12.678c-4.335,1.421-3.411,5.97-.355,7.746,5.046,2.985,3.624,4.051,8.173.924,1.492-1.066,2.985-1.563,3.553-2.985,1.208-3.2-.711-6.041-3.7-6.041-1.919-.071-1.635.5-2.629.853-.995.426-1.137-.213-2.132-.569a3.1,3.1,0,0,0-2.914.071Z" transform="translate(89.864 74.951)" fill="#d74853" fill-rule="evenodd"/>
      <path id="Caminho_315" data-name="Caminho 315" d="M25.782,58.6c-3.34,1.279-2.274.284-5.472.071-2.629-.071-3.553,1.208-2.487,3.909.924,2.416,5.259,3.624,7.888,4.975,2.132.995,2.772,1.492,4.619-.213C31.61,66.2,33.1,65.706,32.96,63.432,32.747,60.8,28.412,57.6,25.782,58.6Z" transform="translate(106.197 356.716)" fill="#1a2258" fill-rule="evenodd"/>
      <path id="Caminho_316" data-name="Caminho 316" d="M23.472,58.974c-1.706,1.137-.5,3.553.569,4.619a13.7,13.7,0,0,0,3.98,2.345c1.635.782,2.843,1.421,4.406,2.061,2.132.924,2.7-.355,4.122-1.635,1.208-1.066,2.558-1.848,1.421-4.264a7.446,7.446,0,0,0-6.112-3.624c-2.061.071-1.848.569-2.772.782-1.492.213-3.482-1.706-5.614-.284Z" transform="translate(138.142 356.91)" fill="#1a2258" fill-rule="evenodd"/>
      <path id="Caminho_317" data-name="Caminho 317" d="M20.224,59.21c-1.706,5.33,8.528,8.457,9.807,8.67,1.635.284,1.99.071,4.335-2.061,3.127-2.7-1.137-6.4-3.767-7.107-3.127-.782-3.411.782-5.046.5C22.712,58.784,23.707,57.718,20.224,59.21Z" transform="translate(122.344 356.887)" fill="#1a2258" fill-rule="evenodd"/>
      <path id="Caminho_318" data-name="Caminho 318" d="M89.9,39.3c-.711-.711-1.35-1.635-1.848-2.2-8.03-.569.711,9.381,1.848,9.949a4.292,4.292,0,0,0,1.635-1.563A21.274,21.274,0,0,0,93.1,43.638c.782-1.066,5.259-6.4,5.33-7.391.142-2.274-1.848-2.629-3.98-2.345-.995,1.919-3.127,4.975-4.548,5.4Z" transform="translate(517.223 206.519)" fill="#fefefe" fill-rule="evenodd"/>
      <path id="Caminho_319" data-name="Caminho 319" d="M44.026,4.247C37.275,8.44,41.61,16.612,47.437,14.622c2.2-.782,3.909-4.193,2.843-6.964C49.711,6.237,46.727,2.612,44.026,4.247Z" transform="translate(247.923 23.403)" fill="#f0c1c3" fill-rule="evenodd"/>
      <path id="Caminho_320" data-name="Caminho 320" d="M54.362,43.945c.924-1.066.853-.924,1.066-2.629-2.914-1.848-6.538-1.706-8.67-5.33a6.007,6.007,0,0,0-3.909-.142c-.284,1.99-1.279,7.533,1.066,7.959a4.835,4.835,0,0,0,1.421.142h9.025Z" transform="translate(258.907 217.37)" fill="#483a87" fill-rule="evenodd"/>
      <path id="Caminho_321" data-name="Caminho 321" d="M2.58,35.9c.426,2.772,2.132,4.619,5.4,4.406,3.7-.142,3.624-2.345,4.761-4.69-1.421-1.137-.426-4.406-5.188-4.406-3.269,0-4.69,1.635-4.975,4.69Z" transform="translate(15.764 190.592)" fill="#4f47b0" fill-rule="evenodd"/>
      <path id="Caminho_322" data-name="Caminho 322" d="M15.78,18.55Z" transform="translate(96.372 113.282)" fill="#d74853" fill-rule="evenodd"/>
      <path id="Caminho_323" data-name="Caminho 323" d="M35.141,37.479c1.208-2.629-.142-2.985-1.635-4.122-4.335-3.411-10.873-4.477-16.558-4.477-4.264,0-10.162,2.132-13.005,3.909a15.036,15.036,0,0,0-2.487,1.635c-.924.924-1.066,2.629.142,3.269,1.492.711,2.416-.355,3.34-.995.782-.5,1.99-1.066,2.843-1.492a21,21,0,0,1,6.254-2.132C30.1,31.794,30.948,39.4,35.141,37.479Z" transform="translate(4.452 176.364)" fill="#4f47b0" fill-rule="evenodd"/>
      <path id="Caminho_324" data-name="Caminho 324" d="M25.49,36.08c.853-1.848-.142-2.061-1.137-2.843-3.056-2.345-7.6-3.127-11.584-3.127a21.046,21.046,0,0,0-9.1,2.7,17.745,17.745,0,0,0-1.706,1.137c-.64.711-.711,1.919.071,2.274,1.066.569,1.706-.213,2.345-.64.569-.355,1.421-.782,1.99-1.066a16.513,16.513,0,0,1,4.335-1.492C21.937,32.1,22.577,37.43,25.49,36.08Z" transform="translate(8.986 183.875)" fill="#d74853" fill-rule="evenodd"/>
    </g>
  </g>
</svg>
