<svg xmlns="http://www.w3.org/2000/svg" width="467.728" height="558.756" viewBox="0 0 467.728 558.756">
  <g id="Grupo_10527" data-name="Grupo 10527" transform="translate(-1294.045 -887)">
    <path id="Caminho_14462" data-name="Caminho 14462" d="M248.015,67.015c-4.456,5.318-8.624,11.067-12.792,16.816L222,101.079c-3.306-.431-34.495-18.254-39.957-21.272-5.03-2.875-36.076-21.128-38.95-21.559l-4.168-2.587c-1.581-1.006-2.3-1.294-3.881-2.156-2.587-1.437-5.031-2.587-7.474-4.168-12.936-8.049-13.223-3.593-16.385-7.186-3.018,0-9.486-3.593-20.266.431-12.792,4.887-21.7,37.226-23.859,50.449-3.449,21.99-2.587,46.712.287,69.421.862,6.037-1.294,20.553.144,23.859,2.012.575,1.581,1.006,3.593,2.3l3.162,2.156c.144,0,.287.144.431.287l2.156,1.725c1.006.719.719.575,1.725,1.294a44.145,44.145,0,0,0,4.455,2.443c14.66,7.474,22.565,10.348,39.382,12.5,8.911,1.15,18.4-1.006,25.44-.144.287,6.468,1.15,19.691,3.018,24.434-.287-8.767-2.3-19.978-2.443-25.153l10.348-73.014c.287-4.312,3.737-25.584,4.887-28.746,4.312.431,12.5,3.737,16.529,5.174,5.318,2.156,11.355,3.881,16.529,5.749,6.324,2.156,28.6,12.073,33.92,9.342,2.3-1.15,5.318-6.612,6.324-9.055,1.294-3.449,2.731-8.911,4.743-11.067.575-2.731,8.049-16.529,9.63-18.972a68.719,68.719,0,0,0,5.893-8.48c1.725-2.875,3.737-6.18,6.468-8.049l12.936-10.061c8.193-7.186,4.024-36.363-6.324-27.883-4.024,3.306-4.168,11.067-4.743,17.535-.862,1.725-10.923,3.449-17.535,16.385Z" transform="translate(1289.867 1009.064)" fill="#d74853" fill-rule="evenodd"/>
    <path id="Caminho_14463" data-name="Caminho 14463" d="M180.539,70.943l-2.012,1.868c-.575.575-.719,1.15-1.15,1.294l-34.351,1.006c0-4.887,2.3-7.33,1.006-12.792l-4.024,15.666c-1.868,4.312-17.535,2.587-22.422,1.725V77.7c-3.162.431-2.874.862-6.324,2.012-14.373,4.456-25.152,5.318-38.807,15.523-24.865,18.4-5.318,37.226,10.348,43.55L93.3,143.527c1.581.719,4.887,1.006,6.18,1.581a51.131,51.131,0,0,0,6.037,1.725c29.608,5.318,36.363,7.474,71.146,7.33,5.03,0,9.055-.719,14.517-.719,6.324-.144,7.618-1.437,13.8-1.581,5.462-.287,33.632-6.468,38.088-8.48,12.361-5.893,32.483-14.948,32.2-30.327-.144-7.474-7.33-14.085-12.648-17.966-1.725-1.15-3.306-2.012-4.887-2.875-13.367-6.468-13.654-7.33-28.171-11.355a20.61,20.61,0,0,0-6.18-1.437c-3.018-.431-3.162-.862-6.18-1.437-4.168-.862-9.917-1.294-14.229-2.012-.287-10.348,2.731-17.822,1.581-23.284-1.006,1.294-.144-.431-.719,1.581a10.075,10.075,0,0,0-.431,2.012L201.81,67.638c-1.294,8.768-5.318,42.544-6.755,46.137-4.312,1.725-13.079,1.006-17.822.144-1.006-15.379,2.875-28.458,3.306-42.975Z" transform="translate(1233.45 1291.587)" fill="#d1e8fe" fill-rule="evenodd"/>
    <path id="Caminho_14464" data-name="Caminho 14464" d="M294.827,140.964c-.144-7.186.719-48.293,2.443-51.024-1.725-2.731-10.348-4.168-13.654-5.318l-35.5-10.636c-9.055-1.581-8.911-3.018-14.373-4.6L98.063,28.568c-6.18-1.725-24.578-8.48-29.464-7.618-.431,13.942,0,28.458,0,42.687-.144,10.636-.575,9.342,9.2,11.929l50.018,14.948c11.786,3.737,22.278,6.612,33.632,10.061,19.547,6.037,47.43,15.092,66.259,20.122,11.355,3.018,23.14,7.761,34.064,9.774Z" transform="translate(1337.917 866.126)" fill="#3cf4fe" fill-rule="evenodd"/>
    <path id="Caminho_14465" data-name="Caminho 14465" d="M64.56,216.242v2.012c4.887.862,20.553,2.587,22.422-1.725l4.024-15.666c-.144-3.737,6.9-38.088,8.192-41.106,1.725-4.312,3.449-6.324,4.743-11.93,5.462-24.578,1.437-41.394,2.012-63.241,3.449.287,10.492,4.6,12.792,6.612,2.443,2.156,4.6,17.247,5.749,23.428l4.887,25.009c4.887,26.734,2.731,12.073,1.294,34.639-.431,6.18-1.294,10.78-1.581,17.679-.287,6.755-1.437,10.923-1.581,17.535-.431,14.517-4.312,27.6-3.306,42.975,4.743.862,13.511,1.581,17.822-.144,1.437-3.593,5.462-37.369,6.755-46.137l1.581-11.355a10.074,10.074,0,0,1,.431-2.012c.575-2.012-.287-.288.719-1.581-.431-4.024,2.156-19.691,3.018-24.434a132.854,132.854,0,0,0,2.587-24.578c0-15.091-1.15-26.3-1.581-39.813-.144-5.174-1.294-8.049-1.294-13.079-1.868-4.743-2.731-17.966-3.018-24.434-7.043-.862-16.529,1.294-25.44.144-16.816-2.156-24.721-5.03-39.382-12.5a44.13,44.13,0,0,1-4.456-2.443c-1.006-.719-.719-.575-1.725-1.294l-2.156-1.725c-.144-.144-.287-.287-.431-.287L74.477,44.63c-2.012-1.294-1.581-1.725-3.593-2.3-1.006,15.81,6.755,76.033,6.037,89.974l-6.18,41.969c-1.437,12.073-3.449,32.051-6.18,41.969Z" transform="translate(1286.476 1153.044)" fill="#35287a" fill-rule="evenodd"/>
    <path id="Caminho_14466" data-name="Caminho 14466" d="M91.3,41.057c-.431,10.348,0,15.379-5.605,21.99-2.443,2.731-3.881,4.456-7.33,6.468-3.449,2.156-5.174,2.012-7.905,4.456l51.024,15.235c6.18,2.012,47.574,15.523,51.024,14.229,6.611-12.936,16.673-14.66,17.535-16.385.575-6.468.719-14.229,4.743-17.535,10.348-8.48,14.517,20.7,6.324,27.883l-12.936,10.061c.287,3.162.431,2.587,3.306,3.45,1.581.431,3.593.719,5.605,1.294l49.73,15.235c6.9,1.581,14.373,5.03,20.553,5.749l1.868-51.024c3.593.431,5.03.862,8.48,1.294-3.306-1.868-10.2-2.443-15.523-5.03l-1.437-.719c-3.593-1.581-6.468-.862-14.229-4.168L126.945,37.895c-5.749-1.725-16.673-5.605-22.422-6.324l-.287-2.731a56.1,56.1,0,0,1-6.037,6.9c-2.156,2.012-5.174,3.449-6.9,5.318Z" transform="translate(1365.375 972.644)" fill="#3cf4fe" fill-rule="evenodd"/>
    <path id="Caminho_14467" data-name="Caminho 14467" d="M71.35,65.516c1.294-.431,45.849,13.223,48.58,14.085,16.241,4.456,32.914,10.348,49.874,14.8l73.733,22.422c4.312,1.725,8.049,1.581,12.217,3.737,2.3,1.15,9.774,3.306,12.648,4.024l-5.605-2.443a37.285,37.285,0,0,0-6.9-1.725l2.012-51.742-1.15-.431c-.575-.287-1.15-.431-1.725-.719-11.929-3.449-19.547-6.9-28.458-9.342l-12.648-4.024c-20.266-5.03-27.6-7.905-45.993-13.367-4.312-1.294-9.917-3.306-13.654-3.881-2.012,2.156-3.45,7.618-4.743,11.067-1.006,2.443-4.024,7.905-6.324,9.055-5.318,2.731-27.6-7.186-33.92-9.342-5.174-1.869-11.211-3.593-16.529-5.749C88.741,40.507,80.549,37.2,76.237,36.77c-1.15,3.162-4.6,24.434-4.887,28.746Z" transform="translate(1377.277 1078.691)" fill="#3cf4fe" fill-rule="evenodd"/>
    <path id="Caminho_14468" data-name="Caminho 14468" d="M90.733,89.82c3.306-.287.862.575,3.018-2.012a16.969,16.969,0,0,1,2.443-2.875c1.868-2.012,3.45-4.312,5.174-6.468,7.33-9.63,12.5-24,24.146-16.385,7.33,4.743,7.33,4.6,17.822,4.168,1.725-1.869,4.743-3.306,6.9-5.318a56.069,56.069,0,0,0,6.037-6.9c5.605-6.9,1.006-13.942-6.468-15.523-11.786-2.731-7.618-.575-20.266-5.605-5.605-2.3-13.223-5.462-20.409-5.893-12.648-.575-11.355,3.449-18.11,8.336-15.666,11.5-28.458,1.294-23.284,25.584a29.552,29.552,0,0,0,9.342,16.816C79.953,80.478,87.714,88.1,90.733,89.82Z" transform="translate(1313.338 947.452)" fill="#353535" fill-rule="evenodd"/>
    <path id="Caminho_14469" data-name="Caminho 14469" d="M71.256,52.677c2.875.431,33.92,18.685,38.95,21.559,5.462,3.018,36.651,20.841,39.957,21.272l13.223-17.247c4.168-5.749,8.336-11.5,12.792-16.816-3.449,1.294-44.843-12.217-51.024-14.229L74.13,31.98c-3.162.144-3.449-.287-3.881,3.018-.144,1.006,0,4.887,0,6.18.144,5.174,0,7.043,1.006,11.5Z" transform="translate(1361.705 1014.635)" fill="#fefefe" fill-rule="evenodd"/>
    <path id="Caminho_14470" data-name="Caminho 14470" d="M84.174,76.741c3.737,1.868,35.932,11.067,39.956,10.923l.144-51.886C117.951,34.054,92.511,25,86.618,25.718,84.893,28.449,84.031,69.555,84.174,76.741Z" transform="translate(1548.568 930.348)" fill="#483a87" fill-rule="evenodd"/>
    <path id="Caminho_14471" data-name="Caminho 14471" d="M84.16,83.574c1.437,1.006,35.5,11.5,39.813,11.5l.144-51.742c-5.893-2.3-20.841-6.037-29.608-9.486-3.449-.431-4.887-.862-8.48-1.294L84.16,83.574Z" transform="translate(1548.583 1022.257)" fill="#35287a" fill-rule="evenodd"/>
    <path id="Caminho_14472" data-name="Caminho 14472" d="M96.694,94.9c4.887.719,8.767,2.443,13.079,3.449,5.318,1.294,8.049,3.45,13.942,3.306l.144-50.88c-3.162-2.443-14.8-5.318-18.541-6.468-3.593-1.15-15.954-5.174-19.116-5.318L84.19,90.732a37.284,37.284,0,0,1,6.9,1.725L96.694,94.9Z" transform="translate(1548.985 1108.379)" fill="#483a87" fill-rule="evenodd"/>
    <path id="Caminho_14473" data-name="Caminho 14473" d="M71.058,59.136c2.443,3.306,1.581,7.043-.144,13.223l-2.874.719c3.162,3.593,3.449-.862,16.385,7.186C86.868,81.846,89.312,83,91.9,84.433c1.581.862,2.3,1.15,3.881,2.156l4.168,2.587c-1.006-4.456-.862-6.324-1.006-11.5,0-1.294-.144-5.174,0-6.18.431-3.306.719-2.875,3.881-3.018,2.731-2.443,4.456-2.3,7.905-4.456,3.449-2.012,4.887-3.737,7.33-6.468,5.605-6.612,5.174-11.642,5.605-21.991-10.492.431-10.492.575-17.822-4.168C94.2,23.779,89.024,38.152,81.694,47.782c-1.725,2.156-3.306,4.456-5.174,6.468a16.968,16.968,0,0,0-2.443,2.875c-2.156,2.587.287,1.725-3.018,2.012Z" transform="translate(1333.013 978.136)" fill="#fba57d" fill-rule="evenodd"/>
    <path id="Caminho_14474" data-name="Caminho 14474" d="M68.754,59.115,68.61,74.062c9.774,1.15,32.483-2.731,42.112-6.324,3.881-1.581,8.193-3.306,7.761-8.336-3.449-2.587-8.336-2.156-13.8-2.012Z" transform="translate(1340.636 1352.859)" fill="#353535" fill-rule="evenodd"/>
    <path id="Caminho_14475" data-name="Caminho 14475" d="M65.011,57.1,64.58,72.332c7.474,0,48.437-2.156,49.73-14.373-5.318-5.605-25.009-1.294-31.477-1.15C76.941,56.953,71.048,56.809,65.011,57.1Z" transform="translate(1286.743 1323.688)" fill="#353535" fill-rule="evenodd"/>
    <path id="Caminho_14476" data-name="Caminho 14476" d="M95.228,44.911c-1.437-1.437-2.731-3.306-3.737-4.456-16.241-1.15,1.437,18.972,3.737,20.122,2.012-1.294,1.725-1.15,3.306-3.162a43.022,43.022,0,0,0,3.162-3.737c1.581-2.156,10.636-12.936,10.78-14.948.287-4.6-3.737-5.318-8.049-4.743-2.012,3.881-6.324,10.061-9.2,10.923Z" transform="translate(1555.769 1039.217)" fill="#fefefe" fill-rule="evenodd"/>
    <path id="Caminho_246" data-name="Caminho 246" d="M33.956,74.077c0,10.925,2.686,16.119,1.612,21.85-5.015,3.045-11.821,6.806-13.97,15.4-2.686,10.209,1.075,16.3,5.731,22.387,2.866,3.761,4.477,3.224,8.955,5.552,7.522,3.582,34.208,1.791,43.7,1.97,1.612,6.448.537,18.626.9,25.79,6.268-.179,22.746-24.537,29.193-25.79,9.492-1.791,44.954,0,56.954,0,20.6,0,36.715,2.686,42.984-15.044,4.478-12.9,0-26.507-15.582-31.7-.358-.179-2.507-.9-2.686-1.075-.358,0-.537-.179-.716-.179L188.7,92.166c.537-12.537-.537-17.373-6.806-24.358-6.985-8.059-9.134-7.522-20.776-11.462-1.433-11.821-14.865-25.79-21.492-30.984C114.192,5.482,75.507,6.735,53.836,30.377,45.06,39.69,46.672,35.57,40.4,48.286c-3.4,6.806-6.448,16.3-6.448,25.79Z" transform="translate(1550.115 1268.24)" fill="#f0c1c3" fill-rule="evenodd"/>
    <path id="Caminho_268" data-name="Caminho 268" d="M22.51,54.96c0,25.79,19.88,44.775,43.521,44.775,33.133.179,51.76-33.492,40.118-61.252L93.612,21.648C69.076,1.052,22.51,18.245,22.51,54.96Z" transform="translate(1580.724 1291.118)" fill="#d74853" fill-rule="evenodd"/>
    <path id="Caminho_304" data-name="Caminho 304" d="M24.071,23.923V51.5c0,22.208,24.716-.179,30.447-4.3C64.01,40.221,66.338,37,54.159,27.684c-9.85-7.522-23.283-20.059-29.193-10.03-1.075,1.791-.9,2.507-.9,6.268Z" transform="translate(1606.924 1309.798)" fill="#fefefe" fill-rule="evenodd"/>
  </g>
</svg>
