<svg xmlns="http://www.w3.org/2000/svg" width="198.996" height="92.069" viewBox="0 0 198.996 92.069">
  <g id="ISBT" transform="translate(0 -0.022)">
    <path id="Caminho_15114" data-name="Caminho 15114" d="M16.923,30.615A4.194,4.194,0,0,0,19.761,30c1.837-1.217,1.1-3.292-.785-4.272a3.71,3.71,0,0,0-4.135.288c-2.781,1.895-.8,4.6,2.082,4.6Zm5.021-11.922c0,1.887,3.321,4.7,7.4,2.694a3.016,3.016,0,0,0,.461-5.216,5.979,5.979,0,0,0-6.368-.058,3.587,3.587,0,0,0-1.491,2.579Zm20.084-2.507c5.021,0,8.933-5.223,4.279-8.356-4.272-2.874-10.6-.821-10.791,3.371-.144,2.968,3.472,4.985,6.519,4.985Zm16.316-9.1c0,6.685,11.67,8.068,15.625,4.329C77.852,7.743,76.5,3.392,71.794,1.173,68.97-.159,66.571.121,63.69.827c-2.435.591-5.345,3.155-5.345,6.26ZM88.78,8.968c0,3.962,2.716,6.462,5.6,7.9l2.031.8a14.958,14.958,0,0,0,9.228,0c3.681-1.333,7.622-3.026,7.622-8.688a6.455,6.455,0,0,0-.893-3.5c-4.049-6.98-14.66-6.635-20.451-2.464A8.608,8.608,0,0,0,88.78,8.975Zm32.95,11.3c0,12.268,19.7,15.207,28.059,9.545,7.751-5.259,7.787-14,.31-19.09-5.518-3.753-12.066-4.07-18.449-2.183-5.086,1.5-9.92,6.159-9.92,11.735Zm34.83,27.612a14.466,14.466,0,0,0,2.3,7.434c2.968,5.172,10.82,9.019,16.511,9.718,4.625.569,11.058.5,16.021-2.392-8.608,2.954-15.733,2.363-23.448-1.592,6.606,2.01,21.6,4.315,31.192-5.223.656-.656,3.126-4.1,2.8-4.6-.115-.18-.252.022-1.369.792-6.3,4.185-19.94,7.088-31.761,3.386,8,0,33.267,1.174,33.267-11.3a6.259,6.259,0,0,0-1.181-3.9c-1.83,1.225-1.642,4.661-10.806,6.656a54.528,54.528,0,0,1-11.857,1.318c-.958,0-8.472-1.217-8.472-1.887,5.331,0,10.712,1.023,16.129-.5,3.4-.951,7.391-1.895,9.8-4.632a4.314,4.314,0,0,0,1.369-3.71c.007-2.2-2.773-4.157-5.021-4.344-1.722,7.377-20.084,5.9-20.084,3.451,1.736,0,3.551.627,6.274.627,4.236,0,10.986-1.268,10.986-5.021-7.881-5.28-28.714.62-31.891,11.728a14.351,14.351,0,0,0-.742,3.962Z" transform="translate(-3.776 0)" fill="#ed3237" fill-rule="evenodd"/>
    <path id="Caminho_15115" data-name="Caminho 15115" d="M2.67,88.056,3.686,80.7h.151l3,6.037L9.809,80.7h.108l1.059,7.355h-.713L9.528,82.79,6.92,88.056H6.726L4.1,82.747,3.39,88.056Zm13.781-5.576a2.718,2.718,0,0,1,2.089.908,2.8,2.8,0,0,1,.749,1.967,2.842,2.842,0,0,1-.792,1.988,2.669,2.669,0,0,1-2.046.85,2.685,2.685,0,0,1-2.053-.85,2.9,2.9,0,0,1-.036-3.948,2.718,2.718,0,0,1,2.1-.915Zm-.007.684a2.027,2.027,0,0,0-1.5.641,2.237,2.237,0,0,0-.339,2.651,2.07,2.07,0,0,0,.771.785,2.163,2.163,0,0,0,2.132,0,1.973,1.973,0,0,0,.771-.785,2.24,2.24,0,0,0,.288-1.095,2.114,2.114,0,0,0-.634-1.556,2.027,2.027,0,0,0-1.5-.641Zm5.439-.555h.72v.8a2.422,2.422,0,0,1,.677-.7,1.361,1.361,0,0,1,.742-.231,1.26,1.26,0,0,1,.62.18l-.367.591a.976.976,0,0,0-.367-.094,1,1,0,0,0-.677.288,1.855,1.855,0,0,0-.5.893,8.578,8.578,0,0,0-.13,1.88v1.837h-.72V82.61ZM31.4,86.248l.591.31a3.272,3.272,0,0,1-.67.915,2.576,2.576,0,0,1-.857.526,2.982,2.982,0,0,1-1.081.18,2.606,2.606,0,0,1-2.089-.872,2.917,2.917,0,0,1-.756-1.967,2.861,2.861,0,0,1,.641-1.844,2.621,2.621,0,0,1,2.168-1.03,2.713,2.713,0,0,1,2.233,1.052,2.936,2.936,0,0,1,.605,1.859h-4.92a2.208,2.208,0,0,0,.605,1.549,1.946,1.946,0,0,0,1.455.605,2.422,2.422,0,0,0,.814-.144,2.014,2.014,0,0,0,.67-.382,3.107,3.107,0,0,0,.6-.771Zm.007-1.462A2.286,2.286,0,0,0,31,83.893a1.951,1.951,0,0,0-.713-.54,2.181,2.181,0,0,0-.929-.2,2.015,2.015,0,0,0-1.383.511,2.352,2.352,0,0,0-.641,1.124Zm7.074-4.2h.7v2.031h1.109v.605H39.179v4.841h-.7V83.223h-.951v-.605h.951Zm4.438-.072h.7V83.6a2.975,2.975,0,0,1,.936-.836,2.287,2.287,0,0,1,1.109-.281,1.924,1.924,0,0,1,1.088.31,1.881,1.881,0,0,1,.7.836,4.375,4.375,0,0,1,.223,1.635v2.8h-.7V85.463a6.454,6.454,0,0,0-.079-1.253,1.391,1.391,0,0,0-.475-.807,1.412,1.412,0,0,0-.9-.274,1.781,1.781,0,0,0-1.145.418,1.962,1.962,0,0,0-.663,1.037,7.265,7.265,0,0,0-.1,1.477v2h-.7V80.514Zm13.248,2.1v5.446h-.7V87.12a2.959,2.959,0,0,1-.987.807,2.772,2.772,0,0,1-3.17-.569,2.788,2.788,0,0,1-.814-2.031,2.74,2.74,0,0,1,.821-2,2.689,2.689,0,0,1,1.981-.836,2.584,2.584,0,0,1,1.21.281,2.783,2.783,0,0,1,.951.85v-1h.7Zm-2.8.547a2.094,2.094,0,0,0-1.081.288,2.064,2.064,0,0,0-.785.807,2.211,2.211,0,0,0-.3,1.095,2.257,2.257,0,0,0,1.088,1.909,2.061,2.061,0,0,0,1.066.288,2.177,2.177,0,0,0,1.088-.288,2.026,2.026,0,0,0,.792-.785,2.281,2.281,0,0,0,.274-1.109,2.157,2.157,0,0,0-.62-1.57A2.039,2.039,0,0,0,53.363,83.158Zm5.957-.547h.7v.98a2.954,2.954,0,0,1,.929-.836,2.35,2.35,0,0,1,1.117-.274,1.924,1.924,0,0,1,1.088.31,1.881,1.881,0,0,1,.7.836,4.4,4.4,0,0,1,.223,1.635v2.8h-.7V85.463A6.454,6.454,0,0,0,63.3,84.21a1.391,1.391,0,0,0-.475-.807,1.427,1.427,0,0,0-.9-.274,1.781,1.781,0,0,0-1.145.418,1.962,1.962,0,0,0-.663,1.037,7.315,7.315,0,0,0-.1,1.477v2h-.7V82.61Zm10.669-1.916h.735v7.355h-.735Zm9.314-.187v7.542h-.7v-.936a2.959,2.959,0,0,1-.987.807,2.772,2.772,0,0,1-3.17-.569,2.788,2.788,0,0,1-.814-2.031,2.719,2.719,0,0,1,.828-2,2.689,2.689,0,0,1,1.981-.836,2.584,2.584,0,0,1,1.21.281,2.734,2.734,0,0,1,.951.857V80.507Zm-2.809,2.644a2.094,2.094,0,0,0-1.081.288,2.064,2.064,0,0,0-.785.807,2.2,2.2,0,0,0-.288,1.095,2.256,2.256,0,0,0,1.088,1.909,2.061,2.061,0,0,0,1.066.288,2.177,2.177,0,0,0,1.088-.288,2.026,2.026,0,0,0,.792-.785,2.2,2.2,0,0,0,.274-1.109,2.157,2.157,0,0,0-.62-1.57,2.039,2.039,0,0,0-1.527-.634Zm10.561,3.09.591.31a3.272,3.272,0,0,1-.67.915,2.65,2.65,0,0,1-.857.526,2.982,2.982,0,0,1-1.081.18,2.606,2.606,0,0,1-2.089-.872,2.953,2.953,0,0,1-.115-3.811A2.621,2.621,0,0,1,85,82.459a2.713,2.713,0,0,1,2.233,1.052,2.936,2.936,0,0,1,.605,1.859H82.92a2.183,2.183,0,0,0,.612,1.549,1.946,1.946,0,0,0,1.455.605,2.423,2.423,0,0,0,.814-.144,2.015,2.015,0,0,0,.67-.382,3.107,3.107,0,0,0,.6-.771Zm.007-1.462a2.286,2.286,0,0,0-.411-.893,1.951,1.951,0,0,0-.713-.54,2.181,2.181,0,0,0-.929-.2,2.015,2.015,0,0,0-1.383.511,2.352,2.352,0,0,0-.641,1.124h4.085ZM90.693,82.6h.7v.98a2.9,2.9,0,0,1,.936-.836,2.35,2.35,0,0,1,1.117-.274,1.924,1.924,0,0,1,1.088.31,1.881,1.881,0,0,1,.7.836,4.4,4.4,0,0,1,.223,1.635v2.8h-.7V85.456a6.454,6.454,0,0,0-.079-1.253A1.391,1.391,0,0,0,94.2,83.4a1.427,1.427,0,0,0-.9-.274,1.781,1.781,0,0,0-1.145.418,1.962,1.962,0,0,0-.663,1.037,7.315,7.315,0,0,0-.1,1.477v2h-.7V82.6Zm8.428-2.031h.7V82.6h1.109v.605H99.82v4.841h-.7V83.208h-.958V82.6h.958Zm4.682-.2a.534.534,0,0,1,.4.173.561.561,0,0,1,.173.411.534.534,0,0,1-.173.4.576.576,0,0,1-.98-.4.561.561,0,0,1,.173-.411A.545.545,0,0,1,103.8,80.37Zm-.346,2.233h.7v5.446h-.7Zm7.24-.879H110a.787.787,0,0,0-.843-.692,1,1,0,0,0-.526.137.836.836,0,0,0-.3.367,2.594,2.594,0,0,0-.094.828V82.6h1.145v.605h-1.145v4.841h-.7V83.208h-.72V82.6h.72v-.238a2.8,2.8,0,0,1,.18-1.16,1.43,1.43,0,0,1,.547-.605,1.7,1.7,0,0,1,.893-.231,1.557,1.557,0,0,1,1.073.375,1.387,1.387,0,0,1,.461.973Zm-.7.879h.7v5.446H110Zm9.033,1.131-.555.346a2.344,2.344,0,0,0-1.974-.951,2.282,2.282,0,0,0-1.657.641,2.063,2.063,0,0,0-.656,1.549,2.185,2.185,0,0,0,.3,1.117,2.112,2.112,0,0,0,.836.814,2.5,2.5,0,0,0,1.189.288,2.415,2.415,0,0,0,1.967-.951l.555.367a2.635,2.635,0,0,1-1.052.908,3.375,3.375,0,0,1-1.506.324,2.993,2.993,0,0,1-2.147-.814,2.658,2.658,0,0,1-.85-2,2.861,2.861,0,0,1,1.491-2.521,3.239,3.239,0,0,1,1.563-.382,3.368,3.368,0,0,1,1.045.158,2.9,2.9,0,0,1,.857.432,2.245,2.245,0,0,1,.6.67Zm8.335-1.131v5.446h-.7v-.936a2.959,2.959,0,0,1-.987.807,2.772,2.772,0,0,1-3.17-.569,2.788,2.788,0,0,1-.814-2.031,2.719,2.719,0,0,1,.828-2,2.689,2.689,0,0,1,1.981-.836,2.584,2.584,0,0,1,1.21.281,2.783,2.783,0,0,1,.951.85v-1h.7Zm-2.8.547a2.094,2.094,0,0,0-1.081.288,2.064,2.064,0,0,0-.785.807,2.211,2.211,0,0,0-.3,1.095,2.256,2.256,0,0,0,1.088,1.909,2.061,2.061,0,0,0,1.066.288,2.177,2.177,0,0,0,1.088-.288,2.026,2.026,0,0,0,.792-.785,2.209,2.209,0,0,0,.281-1.109,2.157,2.157,0,0,0-.62-1.57,2.039,2.039,0,0,0-1.527-.634Zm6.563-2.572h.7V82.61h1.109v.605h-1.109v4.841h-.7V83.215h-.951V82.61h.951Zm4.682-.2a.534.534,0,0,1,.4.173.583.583,0,0,1,0,.814.557.557,0,0,1-.807,0,.567.567,0,0,1-.166-.4.583.583,0,0,1,.166-.411A.545.545,0,0,1,135.81,80.377Zm-.346,2.233h.7v5.446h-.7Zm6.31-.13a2.707,2.707,0,0,1,2.089.908,2.8,2.8,0,0,1,.749,1.967,2.842,2.842,0,0,1-.792,1.988,2.9,2.9,0,0,1-4.1,0,2.9,2.9,0,0,1-.036-3.948,2.729,2.729,0,0,1,2.1-.915Zm0,.684a2.027,2.027,0,0,0-1.5.641,2.237,2.237,0,0,0-.339,2.651,2.131,2.131,0,0,0,2.9.785,1.973,1.973,0,0,0,.771-.785,2.24,2.24,0,0,0,.288-1.095,2.114,2.114,0,0,0-.634-1.556,2.027,2.027,0,0,0-1.5-.641Zm5.705-.555h.7v.98a2.954,2.954,0,0,1,.929-.836,2.371,2.371,0,0,1,1.117-.274,1.924,1.924,0,0,1,1.088.31,1.836,1.836,0,0,1,.7.836,4.4,4.4,0,0,1,.223,1.635v2.8h-.7V85.463a6.454,6.454,0,0,0-.079-1.253,1.391,1.391,0,0,0-.475-.807,1.427,1.427,0,0,0-.9-.274,1.748,1.748,0,0,0-1.138.418,2.006,2.006,0,0,0-.663,1.037,7.314,7.314,0,0,0-.1,1.477v2h-.7V82.61Z" transform="translate(-0.747 -22.467)" fill="#373435"/>
    <path id="Caminho_15116" data-name="Caminho 15116" d="M16.16,49.329,11.636,68.584H5.03L9.554,49.329H16.16ZM103.75,49H99.673l-1.714,4.344h4.056c-.828,3.631-2.8,11.123-3.782,15.243h5.893L108.764,49h-5.007ZM37.166,54.667l-6.109.3c-.137-1.671-1.16-2.514-3.069-2.514a3.011,3.011,0,0,0-1.794.454A1.326,1.326,0,0,0,25.568,54a1.167,1.167,0,0,0,.5.872,9.231,9.231,0,0,0,2.392,1.059,33.688,33.688,0,0,1,3.89,1.592A7.243,7.243,0,0,1,34.8,59.464a4.637,4.637,0,0,1,.951,2.982,5.314,5.314,0,0,1-1.03,3.134,7.722,7.722,0,0,1-2.961,2.392,13.066,13.066,0,0,1-5.511.936q-5.025,0-7.132-1.758a5.619,5.619,0,0,1-2.1-4.517v-.447l6.138-.382a3.158,3.158,0,0,0,.879,2.543,3.626,3.626,0,0,0,2.406.742,3.875,3.875,0,0,0,2.37-.62,1.743,1.743,0,0,0,.814-1.4,1.51,1.51,0,0,0-.519-1.095,7.686,7.686,0,0,0-2.55-1.167q-4.657-1.524-5.885-2.809a4.342,4.342,0,0,1-1.232-3.1,4.935,4.935,0,0,1,1.016-3.018,6.541,6.541,0,0,1,2.954-2.118A12.75,12.75,0,0,1,28.046,49Q36.615,49,37.166,54.667Zm4.9-5.345H51.8a24.66,24.66,0,0,1,2.918.144,6.072,6.072,0,0,1,2.2.728,4.445,4.445,0,0,1,1.657,1.542,3.923,3.923,0,0,1,.6,2.1,4.647,4.647,0,0,1-.936,2.752,5.358,5.358,0,0,1-3,1.866v.058q3.382.929,3.386,4.056a5.449,5.449,0,0,1-2.089,4.142,8.641,8.641,0,0,1-5.965,1.859h-13l4.51-19.256Zm4.783,7.528h2.219a10.21,10.21,0,0,0,2.219-.187,2.245,2.245,0,0,0,1.268-.771,1.824,1.824,0,0,0,.483-1.174,1.3,1.3,0,0,0-.526-1.1,3.741,3.741,0,0,0-2.067-.4H47.662l-.821,3.623Zm-1.779,7.593h3.487q3.685,0,3.688-2.233a1.546,1.546,0,0,0-.533-1.239,3.573,3.573,0,0,0-2.168-.454H46l-.922,3.926Zm38.4-15.121-1.081,4.733H75.54L72.1,68.577H65.541L68.97,54.054H62.415l1.095-4.733H83.472Zm30.385,5.367a6.246,6.246,0,0,1,2.831-4.257,11.093,11.093,0,0,1,6-1.441,9.029,9.029,0,0,1,5.684,1.506,4.667,4.667,0,0,1,1.895,3.8,5.491,5.491,0,0,1-1.225,3.371c-1.578,2.075-5.079,4.142-7.5,6.519h7.542l-1.066,4.387h-16.1c3.27-4.855,8.911-8.515,12.059-12.563a2.359,2.359,0,0,0,.576-1.4,1.753,1.753,0,0,0-.706-1.52,2.593,2.593,0,0,0-1.513-.5c-1.419,0-2.276.245-2.658,2.176l-5.813-.079Zm22.18,3.1a3.762,3.762,0,0,1-2-3.234,4.885,4.885,0,0,1,2.1-3.9,9.6,9.6,0,0,1,6.094-1.671,9.806,9.806,0,0,1,5.482,1.275,3.976,3.976,0,0,1,1.895,3.465c0,1.974-1.124,3.451-3.357,4.43a4.075,4.075,0,0,1,2.629,3.739,6.29,6.29,0,0,1-2.492,4.848q-2.5,2.15-7.333,2.147a8.542,8.542,0,0,1-5.46-1.484,4.733,4.733,0,0,1-1.83-3.847q0-3.674,4.279-5.777Zm5.6-1.153a2.6,2.6,0,0,0,2.55-2.586,1.745,1.745,0,0,0-.547-1.383,2.147,2.147,0,0,0-1.5-.49,2.647,2.647,0,0,0-1.923.735,2.437,2.437,0,0,0-.756,1.808,1.727,1.727,0,0,0,.612,1.441,2.482,2.482,0,0,0,1.563.483Zm-1.887,8.983a3.045,3.045,0,0,0,2.529-1.131,4.087,4.087,0,0,0,.9-2.615,1.858,1.858,0,0,0-.656-1.57,2.524,2.524,0,0,0-1.592-.511,3.006,3.006,0,0,0-2.593,1.174,4.139,4.139,0,0,0-.879,2.514,1.979,1.979,0,0,0,.634,1.549,2.379,2.379,0,0,0,1.657.576Z" transform="translate(-1.407 -13.693)" fill="#373435"/>
    <path id="Caminho_15117" data-name="Caminho 15117" d="M20.149,105.781l-6.1.3q-.205-2.518-3.069-2.521a3.011,3.011,0,0,0-1.794.454,1.326,1.326,0,0,0-.627,1.088,1.191,1.191,0,0,0,.5.879,8.983,8.983,0,0,0,2.392,1.059,35.031,35.031,0,0,1,3.89,1.592,7.191,7.191,0,0,1,2.449,1.952,4.657,4.657,0,0,1,.951,2.99,5.373,5.373,0,0,1-1.03,3.148,7.708,7.708,0,0,1-2.968,2.4,12.931,12.931,0,0,1-5.511.936q-5.025,0-7.132-1.765A5.683,5.683,0,0,1,0,113.756v-.447l6.138-.382a3.175,3.175,0,0,0,.879,2.55,3.59,3.59,0,0,0,2.406.749,3.875,3.875,0,0,0,2.37-.62,1.753,1.753,0,0,0,.814-1.4,1.5,1.5,0,0,0-.519-1.095,7.685,7.685,0,0,0-2.55-1.167q-4.657-1.534-5.885-2.817a4.359,4.359,0,0,1-1.232-3.112,5.007,5.007,0,0,1,1.016-3.033,6.564,6.564,0,0,1,2.954-2.132,12.75,12.75,0,0,1,4.639-.756q8.569,0,9.12,5.691ZM45.2,100.414,42.459,112.07a10.413,10.413,0,0,1-3.443,6.044q-2.474,1.956-7.362,1.959a15.6,15.6,0,0,1-4.329-.483,7.25,7.25,0,0,1-2.73-1.462,6.019,6.019,0,0,1-1.614-2.219,7.132,7.132,0,0,1-.5-2.665,14.559,14.559,0,0,1,.4-3.451l2.176-9.358H31.6l-2.536,10.878a7.309,7.309,0,0,0-.173,1.621q0,2.291,2.968,2.291a4.2,4.2,0,0,0,2.673-.864,5.887,5.887,0,0,0,1.678-3.371l2.406-10.546H45.2Zm4.394,0h9.6A11,11,0,0,1,63.27,101a4.452,4.452,0,0,1,2.1,1.743,5.215,5.215,0,0,1,.72,2.831,6.2,6.2,0,0,1-1.289,3.861,7.163,7.163,0,0,1-3.242,2.435,15.829,15.829,0,0,1-5.41.742h-2.9l-1.642,7.132H45.023l4.567-19.32Zm4.582,8.371h2.2a3.79,3.79,0,0,0,2.529-.828,2.526,2.526,0,0,0,.987-1.981c0-1.153-.692-1.736-2.06-1.736H55.267l-1.095,4.546Zm16.72-8.371h9.6a10.944,10.944,0,0,1,4.085.584,4.452,4.452,0,0,1,2.1,1.743,5.215,5.215,0,0,1,.72,2.831,6.2,6.2,0,0,1-1.289,3.861,7.163,7.163,0,0,1-3.242,2.435,15.829,15.829,0,0,1-5.41.742h-2.9l-1.642,7.132H66.325l4.567-19.32Zm4.582,8.371h2.2a3.79,3.79,0,0,0,2.529-.828,2.526,2.526,0,0,0,.987-1.981c0-1.153-.692-1.736-2.06-1.736H76.569l-1.095,4.546Zm26.344-8.695c3.213,0,5.583.785,7.088,2.37a8.092,8.092,0,0,1,2.262,5.813,13.123,13.123,0,0,1-.418,3.033,11.386,11.386,0,0,1-1.621,3.537,10.756,10.756,0,0,1-3.1,3.09,11.537,11.537,0,0,1-3.667,1.7,15.9,15.9,0,0,1-3.724.425,10.732,10.732,0,0,1-7.06-2.1,7.186,7.186,0,0,1-2.529-5.871,12.263,12.263,0,0,1,.62-3.854,12.526,12.526,0,0,1,1.873-3.544,11.08,11.08,0,0,1,3.069-2.8,10.838,10.838,0,0,1,3.58-1.47,18.838,18.838,0,0,1,3.623-.339Zm-2.781,15.582a4.4,4.4,0,0,0,3.206-1.3,7.764,7.764,0,0,0,1.923-3.292,11.328,11.328,0,0,0,.605-2.831,3.645,3.645,0,0,0-1.03-2.809,3.753,3.753,0,0,0-2.629-.951,4.37,4.37,0,0,0-3.076,1.189,7.381,7.381,0,0,0-1.938,3.184,11.147,11.147,0,0,0-.648,3.379,3.357,3.357,0,0,0,.951,2.449,3.511,3.511,0,0,0,2.637.98Zm17.7-15.25h12.016a6.08,6.08,0,0,1,4.546,1.491,4.947,4.947,0,0,1,1.441,3.587,5.735,5.735,0,0,1-1.52,3.962,7.815,7.815,0,0,1-4.884,2.168q1.988,1.48,4.747,8.119h-6.894q-.864-2.1-2.031-4.582a8.731,8.731,0,0,0-1.765-2.882,2.493,2.493,0,0,0-1.426-.4h-.346l-1.8,7.852h-6.555l4.481-19.32Zm4.726,7.859H122.7a18.289,18.289,0,0,0,4.027-.267,2.45,2.45,0,0,0,1.362-.886,2.113,2.113,0,0,0,.447-1.2,1.388,1.388,0,0,0-.533-1.16,4.154,4.154,0,0,0-2.32-.425H122.37l-.908,3.94Zm35.983-7.859-1.081,4.747h-6.851l-3.443,14.573h-6.555l3.429-14.573h-6.555l1.095-4.747h19.969Zm20.034,0-.965,4.157H165.794l-.706,3.069h10.33l-.951,3.919H164.152l-.893,3.782h11.627l-1.037,4.4H155.709l4.51-19.32h17.26Zm3.991,0h8.666q4.625,0,6.743,2.24A8.181,8.181,0,0,1,199,108.518a11.952,11.952,0,0,1-1.815,6.4,8.9,8.9,0,0,1-4.293,3.883,13.3,13.3,0,0,1-4.726.936H177.039l4.423-19.32Zm3.119,15.056h2.694a4.241,4.241,0,0,0,3.991-2.536,10.924,10.924,0,0,0,1.311-5.05,2.907,2.907,0,0,0-3.472-3.22h-2.075l-2.449,10.8Z" transform="translate(0 -27.982)" fill="#373435"/>
  </g>
</svg>
