<svg id="NBR" xmlns="http://www.w3.org/2000/svg" width="192.647" height="136.294" viewBox="0 0 192.647 136.294">
  <path id="Caminho_15118" data-name="Caminho 15118" d="M6.7.08H185.513a6.716,6.716,0,0,1,6.608,6.779v122.12a6.716,6.716,0,0,1-6.608,6.779H6.7A6.716,6.716,0,0,1,.09,128.979V6.859A6.716,6.716,0,0,1,6.7.08Z" transform="translate(0.218 0.194)" fill="#2957a4" fill-rule="evenodd"/>
  <path id="Caminho_15119" data-name="Caminho 15119" d="M6.916,0H185.731a6.834,6.834,0,0,1,4.9,2.088,7.035,7.035,0,0,1,2.02,5v122.12a7.245,7.245,0,0,1-2.02,5,6.914,6.914,0,0,1-4.9,2.088H6.916a6.776,6.776,0,0,1-4.9-2.088,7.035,7.035,0,0,1-2.02-5V7.087a7.245,7.245,0,0,1,2.02-5A6.913,6.913,0,0,1,6.916,0ZM185.731.582H6.916A6.209,6.209,0,0,0,2.431,2.5,6.468,6.468,0,0,0,.582,7.087v122.12a6.616,6.616,0,0,0,1.849,4.588,6.347,6.347,0,0,0,4.485,1.917H185.731a6.209,6.209,0,0,0,4.485-1.917,6.5,6.5,0,0,0,1.883-4.588V7.087A6.5,6.5,0,0,0,190.216,2.5,6.347,6.347,0,0,0,185.731.582Z" transform="translate(0 0)" fill="#2957a4"/>
  <path id="Caminho_15120" data-name="Caminho 15120" d="M5.844.61H183.7c2.842,0,5.2,2.02,5.2,4.451V109.173a3.046,3.046,0,0,1-3.252,2.773H3.892A3.069,3.069,0,0,1,.64,109.173V5.061C.64,2.6,2.968.61,5.844.61Z" transform="translate(1.551 1.478)" fill="#fefefe" fill-rule="evenodd"/>
  <path id="Caminho_15121" data-name="Caminho 15121" d="M8.42,3.512,7.736,4.881,7.6,4.813V4.745c0-.1-.1-.205-.24-.308a3.109,3.109,0,0,0-1.78-.514,2.585,2.585,0,0,0-.787.1,1.184,1.184,0,0,0-.411.24.55.55,0,0,0-.171.377.467.467,0,0,0,.411.445c.137.034.445.068.89.137l.685.068a4.889,4.889,0,0,1,.959.171,1.909,1.909,0,0,1,.65.308,1.5,1.5,0,0,1,.479.548,1.866,1.866,0,0,1,.171.753,1.615,1.615,0,0,1-.411,1.1,2.246,2.246,0,0,1-1.13.65,4.6,4.6,0,0,1-1.2.171,5.022,5.022,0,0,1-2.294-.548,1.512,1.512,0,0,0-.274-.1.313.313,0,0,0-.171.1L2.84,8.374l.65-1.438L3.627,7v.068a.624.624,0,0,0,.171.377,2.217,2.217,0,0,0,.856.411,3.172,3.172,0,0,0,1.1.171,1.988,1.988,0,0,0,.959-.205,1.52,1.52,0,0,0,.377-.274.515.515,0,0,0,.137-.377.4.4,0,0,0-.308-.411,4.424,4.424,0,0,0-.89-.171l-.685-.068c-.445-.068-.753-.1-.924-.137a1.79,1.79,0,0,1-.548-.205A1.273,1.273,0,0,1,3.251,5.6a1.59,1.59,0,0,1-.205-.787A1.627,1.627,0,0,1,3.559,3.58a2.76,2.76,0,0,1,2.02-.65,5.315,5.315,0,0,1,1.061.1,7.132,7.132,0,0,1,1.2.411,1.43,1.43,0,0,0,.308.1.3.3,0,0,0,.205-.1l.1.068Zm1.164,4.93V3.478a.367.367,0,0,0-.068-.205.207.207,0,0,0-.205-.1V3.033h1.815V3.17a.557.557,0,0,0-.205.1.367.367,0,0,0-.068.205V8.442a.289.289,0,0,0,.068.205.207.207,0,0,0,.205.1v.137H9.311V8.75a.557.557,0,0,0,.205-.1.289.289,0,0,0,.068-.205Zm8.045-4.93-.685,1.369-.137-.068V4.745c0-.1-.1-.205-.24-.308a3.109,3.109,0,0,0-1.78-.514,2.585,2.585,0,0,0-.787.1,1.184,1.184,0,0,0-.411.24.55.55,0,0,0-.171.377.467.467,0,0,0,.411.445c.137.034.445.068.89.137l.685.068a4.889,4.889,0,0,1,.959.171,1.909,1.909,0,0,1,.65.308,1.5,1.5,0,0,1,.479.548,1.866,1.866,0,0,1,.171.753,1.615,1.615,0,0,1-.411,1.1,2.246,2.246,0,0,1-1.13.65,4.6,4.6,0,0,1-1.2.171,5.022,5.022,0,0,1-2.294-.548,1.512,1.512,0,0,0-.274-.1.313.313,0,0,0-.171.1l-.137-.068.616-1.438L12.8,7v.068a.624.624,0,0,0,.171.377,2.217,2.217,0,0,0,.856.411,3.172,3.172,0,0,0,1.1.171,1.988,1.988,0,0,0,.959-.205,1.52,1.52,0,0,0,.377-.274.515.515,0,0,0,.137-.377.4.4,0,0,0-.308-.411,4.424,4.424,0,0,0-.89-.171l-.65-.068c-.445-.068-.753-.1-.924-.137a1.79,1.79,0,0,1-.548-.205A1.273,1.273,0,0,1,12.46,5.6a1.59,1.59,0,0,1-.205-.787,1.627,1.627,0,0,1,.514-1.233,2.76,2.76,0,0,1,2.02-.65,5.316,5.316,0,0,1,1.061.1,6.233,6.233,0,0,1,1.2.411,1.43,1.43,0,0,0,.308.1.3.3,0,0,0,.205-.1l.1.068Z" transform="translate(6.883 7.101)" fill="#373435"/>
  <path id="Caminho_15122" data-name="Caminho 15122" d="M10.866,4.113V8.563a.289.289,0,0,0,.068.205.293.293,0,0,0,.205.1v.137H9.326V8.871a.557.557,0,0,0,.205-.1A.289.289,0,0,0,9.6,8.563V4.113H7.785c-.1,0-.137,0-.205.068a.293.293,0,0,0-.1.205H7.34V2.88h.137a.557.557,0,0,0,.1.205.289.289,0,0,0,.205.068h4.9a.367.367,0,0,0,.205-.068.207.207,0,0,0,.1-.205h.137V4.386h-.137a.557.557,0,0,0-.1-.205.289.289,0,0,0-.205-.068H10.866Zm4.416,2.328V8.05h3.766a.367.367,0,0,0,.205-.068.207.207,0,0,0,.1-.205h.137V9.282h-.137a.557.557,0,0,0-.1-.205.289.289,0,0,0-.205-.068H13.742V8.871a.557.557,0,0,0,.205-.1.289.289,0,0,0,.068-.205V3.6a.289.289,0,0,0-.068-.205.207.207,0,0,0-.205-.1V3.154h5.2a.367.367,0,0,0,.205-.068.207.207,0,0,0,.1-.205h.137V4.386h-.137a.557.557,0,0,0-.1-.205.289.289,0,0,0-.205-.068H15.283v1.4h2.362a.367.367,0,0,0,.205-.068.207.207,0,0,0,.1-.205h.137V6.714h-.137a.557.557,0,0,0-.1-.205.289.289,0,0,0-.205-.068H15.283Zm8.73,2.568-2.157-4.04V8.563a.289.289,0,0,0,.068.205.293.293,0,0,0,.205.1v.137H20.418V8.871a.557.557,0,0,0,.205-.1.289.289,0,0,0,.068-.205V3.6a.367.367,0,0,0-.068-.205.207.207,0,0,0-.205-.1V3.154h2.26v.137a.226.226,0,0,0-.205.24.487.487,0,0,0,.068.205l1.575,3.013L25.725,3.77a.927.927,0,0,0,.1-.274q0-.154-.205-.205V3.154h2.225v.137a.557.557,0,0,0-.205.1.289.289,0,0,0-.068.205V8.563a.289.289,0,0,0,.068.205.293.293,0,0,0,.205.1v.137H26.033V8.871a.557.557,0,0,0,.205-.1.289.289,0,0,0,.068-.205V4.968l-2.26,4.04ZM33.188,7.5H30.552l-.411.822a.46.46,0,0,0-.068.274c0,.137.1.205.274.274v.137H28.4V8.871a.688.688,0,0,0,.274-.137.988.988,0,0,0,.205-.342l2.157-4.485a.765.765,0,0,0,.1-.342.261.261,0,0,0-.24-.274V3.154h2.088v.137c-.171.034-.24.137-.24.24a1.058,1.058,0,0,0,.068.274l2.225,4.519a1.833,1.833,0,0,0,.24.411.688.688,0,0,0,.274.137v.137H33.394V8.871c.205-.034.274-.137.274-.274a.546.546,0,0,0-.1-.274L33.154,7.5Zm-.377-.787-.924-2.088-.959,2.088Zm5.717,1.849V3.6a.289.289,0,0,0-.068-.205.207.207,0,0,0-.205-.1V3.154h3.287a4.16,4.16,0,0,1,1.643.24,2.217,2.217,0,0,1,1.2,1.164,3.482,3.482,0,0,1,.308,1.506,2.92,2.92,0,0,1-.924,2.328,2.634,2.634,0,0,1-.924.479,6.677,6.677,0,0,1-1.335.137H38.221V8.871a.557.557,0,0,0,.205-.1.289.289,0,0,0,.068-.205ZM39.8,8.05H41.4a2.625,2.625,0,0,0,1.164-.205A1.825,1.825,0,0,0,43.391,6.1a2.069,2.069,0,0,0-.445-1.438,1.306,1.306,0,0,0-.582-.411,3.445,3.445,0,0,0-.924-.1H39.83V8.084Zm7.361-1.609V8.05h3.766a.367.367,0,0,0,.205-.068.207.207,0,0,0,.1-.205h.137V9.282h-.137a.557.557,0,0,0-.1-.205.289.289,0,0,0-.205-.068H45.616V8.871a.557.557,0,0,0,.205-.1.289.289,0,0,0,.068-.205V3.6a.289.289,0,0,0-.068-.205.207.207,0,0,0-.205-.1V3.154h5.2a.367.367,0,0,0,.205-.068.207.207,0,0,0,.1-.205h.137V4.386h-.137a.557.557,0,0,0-.1-.205.289.289,0,0,0-.205-.068H47.157v1.4h2.362a.367.367,0,0,0,.205-.068.207.207,0,0,0,.1-.205h.137V6.714h-.137a.557.557,0,0,0-.1-.205.289.289,0,0,0-.205-.068H47.157Zm12.53.479H58.249a.367.367,0,0,0-.205.068.293.293,0,0,0-.1.205H57.8V5.824h.137a.557.557,0,0,0,.1.205.289.289,0,0,0,.205.068h2.773v.137a.557.557,0,0,0-.205.1.289.289,0,0,0-.068.205v1.2a.289.289,0,0,0,.068.205.293.293,0,0,0,.205.1v.1a6.318,6.318,0,0,1-3.218.959,3.833,3.833,0,0,1-2.328-.685,2.785,2.785,0,0,1-1.13-2.362,2.787,2.787,0,0,1,.993-2.225,3.93,3.93,0,0,1,2.533-.787,4.331,4.331,0,0,1,.959.1,10.56,10.56,0,0,1,1.027.308,1.681,1.681,0,0,0,.411.1.3.3,0,0,0,.205-.1l.137.068-.685,1.4-.137-.068c0-.1,0-.171-.034-.205a.371.371,0,0,0-.171-.137,2.588,2.588,0,0,0-.753-.342,3.241,3.241,0,0,0-.959-.137,2.173,2.173,0,0,0-1.506.514A1.925,1.925,0,0,0,55.681,6.1a1.876,1.876,0,0,0,.65,1.506,2.389,2.389,0,0,0,1.609.514,4.331,4.331,0,0,0,.959-.1,2.925,2.925,0,0,0,.822-.308V6.92Zm3.9-.479V8.05h3.766a.367.367,0,0,0,.205-.068.207.207,0,0,0,.1-.205H67.8V9.282h-.137a.557.557,0,0,0-.1-.205.289.289,0,0,0-.205-.068H62.049V8.871a.557.557,0,0,0,.205-.1.289.289,0,0,0,.068-.205V3.6a.289.289,0,0,0-.068-.205.207.207,0,0,0-.205-.1V3.154h5.2a.367.367,0,0,0,.205-.068.207.207,0,0,0,.1-.205H67.7V4.386h-.137a.557.557,0,0,0-.1-.205.289.289,0,0,0-.205-.068H63.59v1.4h2.362a.367.367,0,0,0,.205-.068.207.207,0,0,0,.1-.205H66.4V6.714H66.26a.557.557,0,0,0-.1-.205.289.289,0,0,0-.205-.068H63.59ZM74.169,3.633,73.484,5l-.137-.068V4.866c0-.1-.1-.205-.24-.308a3.109,3.109,0,0,0-1.78-.514,2.585,2.585,0,0,0-.787.1,1.184,1.184,0,0,0-.411.24.55.55,0,0,0-.171.377.467.467,0,0,0,.411.445c.137.034.445.068.89.137l.685.068a4.89,4.89,0,0,1,.959.171,1.909,1.909,0,0,1,.65.308,1.5,1.5,0,0,1,.479.548,1.866,1.866,0,0,1,.171.753,1.615,1.615,0,0,1-.411,1.1,2.246,2.246,0,0,1-1.13.65,4.6,4.6,0,0,1-1.2.171,5.022,5.022,0,0,1-2.294-.548,1.512,1.512,0,0,0-.274-.1.313.313,0,0,0-.171.1l-.137-.068.65-1.438.137.068v.068a.624.624,0,0,0,.171.377,2.217,2.217,0,0,0,.856.411,3.172,3.172,0,0,0,1.1.171,1.988,1.988,0,0,0,.959-.205,1.52,1.52,0,0,0,.377-.274.515.515,0,0,0,.137-.377.4.4,0,0,0-.308-.411,4.424,4.424,0,0,0-.89-.171l-.685-.068c-.445-.068-.753-.1-.924-.137a1.79,1.79,0,0,1-.548-.205A1.273,1.273,0,0,1,69,5.722a1.59,1.59,0,0,1-.205-.787A1.627,1.627,0,0,1,69.307,3.7a2.76,2.76,0,0,1,2.02-.65,5.315,5.315,0,0,1,1.061.1,7.132,7.132,0,0,1,1.2.411,1.43,1.43,0,0,0,.308.1.3.3,0,0,0,.205-.1l.1.068Z" transform="translate(17.789 6.98)" fill="#373435"/>
  <path id="Caminho_15123" data-name="Caminho 15123" d="M30.556,4.113V8.563a.289.289,0,0,0,.068.205.293.293,0,0,0,.205.1v.137H29.016V8.871a.557.557,0,0,0,.205-.1.289.289,0,0,0,.068-.205V4.113H27.475c-.1,0-.137,0-.205.068a.293.293,0,0,0-.1.205H27.03V2.88h.137a.557.557,0,0,0,.1.205.289.289,0,0,0,.205.068h4.9a.367.367,0,0,0,.205-.068.207.207,0,0,0,.1-.205h.137V4.386h-.137a.557.557,0,0,0-.1-.205.289.289,0,0,0-.205-.068H30.556Z" transform="translate(65.51 6.98)" fill="#373435"/>
  <path id="Caminho_15124" data-name="Caminho 15124" d="M33.343,8.471H30.707l-.411.822a.46.46,0,0,0-.068.274c0,.137.1.205.274.274v.137H28.55V9.841a.688.688,0,0,0,.274-.137.988.988,0,0,0,.205-.342l2.157-4.485a.765.765,0,0,0,.1-.342.261.261,0,0,0-.24-.274V4.123h2.088V4.26c-.171.034-.24.137-.24.24a1.058,1.058,0,0,0,.068.274l2.225,4.519a1.833,1.833,0,0,0,.24.411.688.688,0,0,0,.274.137v.137H33.548V9.841c.205-.034.274-.137.274-.274a.546.546,0,0,0-.1-.274l-.411-.822Zm-.377-.787L32.042,5.6l-.959,2.088h1.883ZM33,2.48l.616.582-.068.1a.372.372,0,0,0-.171-.034c-.034,0-.068.034-.1.068a.732.732,0,0,1-.616.411,1.767,1.767,0,0,1-.377-.068l-.65-.24a.372.372,0,0,0-.171-.034c-.068,0-.1.034-.171.068a.183.183,0,0,0-.1.137c0,.034.034.068.068.137l-.068.068-.65-.582.068-.068a.259.259,0,0,0,.137.034c.068,0,.1-.034.171-.1a.782.782,0,0,1,.65-.342.806.806,0,0,1,.274.068l.65.24a.434.434,0,0,0,.205.034c.068,0,.1-.034.171-.068a.26.26,0,0,0,.068-.137c0-.034-.034-.068-.068-.137l.1-.068Z" transform="translate(69.194 6.011)" fill="#373435"/>
  <path id="Caminho_15125" data-name="Caminho 15125" d="M33.951,3.027a3.426,3.426,0,0,1,2.431.822,2.878,2.878,0,0,1,.959,2.26A2.892,2.892,0,0,1,36.9,7.683a3.159,3.159,0,0,1-2.91,1.438A3.483,3.483,0,0,1,31.554,8.3a3.236,3.236,0,0,1-.719-1.061,3.334,3.334,0,0,1-.205-1.164,2.925,2.925,0,0,1,.445-1.609,3.264,3.264,0,0,1,2.91-1.438Zm0,.993a2.028,2.028,0,0,0-1.4.514,1.9,1.9,0,0,0-.65,1.541,1.9,1.9,0,0,0,.65,1.541,1.97,1.97,0,0,0,1.4.514,2.028,2.028,0,0,0,1.4-.514,2.742,2.742,0,0,0,.514-.719,2.031,2.031,0,0,0,.171-.787,1.97,1.97,0,0,0-.65-1.575,2.2,2.2,0,0,0-1.4-.514ZM46.139,7l.822,1.233-.1.068a.3.3,0,0,0-.205-.1,1.373,1.373,0,0,0-.445.205,7.477,7.477,0,0,1-1.233.582,4.272,4.272,0,0,1-1.2.137,3.611,3.611,0,0,1-2.26-.65,2.788,2.788,0,0,1-.822-.959,2.881,2.881,0,0,1-.342-1.438,2.868,2.868,0,0,1,.616-1.849,3.39,3.39,0,0,1,2.842-1.164,4.121,4.121,0,0,1,1.2.137,4.824,4.824,0,0,1,1.232.582,1.373,1.373,0,0,0,.445.205c.068,0,.1-.034.205-.1l.1.068-.822,1.233-.1-.068v-.1a.37.37,0,0,0-.1-.24,2.154,2.154,0,0,0-.377-.274,3.452,3.452,0,0,0-1.609-.445,2.389,2.389,0,0,0-1.609.514,1.9,1.9,0,0,0-.719,1.541,1.854,1.854,0,0,0,.719,1.541,2.389,2.389,0,0,0,1.609.514,3.091,3.091,0,0,0,1.609-.445,2.155,2.155,0,0,0,.377-.274.311.311,0,0,0,.1-.24V7.1l.1-.1Zm3.252-.548V8.06h3.766a.367.367,0,0,0,.205-.068.207.207,0,0,0,.1-.205H53.6V9.292h-.137a.557.557,0,0,0-.1-.205.289.289,0,0,0-.205-.068H47.851V8.881a.558.558,0,0,0,.205-.1.289.289,0,0,0,.068-.205V3.609a.289.289,0,0,0-.068-.205.207.207,0,0,0-.205-.1V3.164h5.2A.367.367,0,0,0,53.26,3.1a.207.207,0,0,0,.1-.205H53.5V4.4h-.137a.557.557,0,0,0-.1-.205.289.289,0,0,0-.205-.068H49.391v1.4h2.362a.367.367,0,0,0,.205-.068.207.207,0,0,0,.1-.205H52.2V6.724h-.137a.557.557,0,0,0-.1-.205.289.289,0,0,0-.205-.068H49.391Zm6.676.171V8.573a.367.367,0,0,0,.068.205.207.207,0,0,0,.205.1v.137H54.527V8.881a.557.557,0,0,0,.205-.1.289.289,0,0,0,.068-.205V3.609a.289.289,0,0,0-.068-.205.207.207,0,0,0-.205-.1V3.164H58.19a7.8,7.8,0,0,1,1.061.068,2.051,2.051,0,0,1,.685.274,1.148,1.148,0,0,1,.514.616,2.031,2.031,0,0,1,.171.787c0,.959-.514,1.506-1.609,1.678L60.142,8.2a3.155,3.155,0,0,0,.445.548.608.608,0,0,0,.342.137v.137H58.806V8.881c.137-.034.205-.068.205-.171a1.385,1.385,0,0,0-.205-.377l-1.2-1.712H56.067Zm0-.959h1.986a2.793,2.793,0,0,0,.616-.034c.137-.034.24-.068.342-.1a.713.713,0,0,0,.308-.65.621.621,0,0,0-.308-.616.552.552,0,0,0-.308-.1,2.966,2.966,0,0,0-.616-.034H56.1V5.663Zm8.627-1.541V8.573a.289.289,0,0,0,.068.205.293.293,0,0,0,.205.1v.137H63.154V8.881a.557.557,0,0,0,.205-.1.289.289,0,0,0,.068-.205V4.123H61.614c-.1,0-.137,0-.205.068a.293.293,0,0,0-.1.205h-.137V2.89h.137a.557.557,0,0,0,.1.205.289.289,0,0,0,.205.068h4.9a.367.367,0,0,0,.205-.068.207.207,0,0,0,.1-.205h.137V4.4h-.137a.557.557,0,0,0-.1-.205.289.289,0,0,0-.205-.068H64.695ZM67.81,8.573V3.609a.367.367,0,0,0-.068-.205.207.207,0,0,0-.205-.1V3.164h1.815V3.3a.558.558,0,0,0-.205.1.367.367,0,0,0-.068.205V8.573a.289.289,0,0,0,.068.205.207.207,0,0,0,.205.1v.137H67.537V8.881a.557.557,0,0,0,.205-.1A.289.289,0,0,0,67.81,8.573Zm4.177-2.123V8.573a.289.289,0,0,0,.068.205.207.207,0,0,0,.205.1v.137H70.447V8.881a.558.558,0,0,0,.205-.1.289.289,0,0,0,.068-.205V3.609a.289.289,0,0,0-.068-.205.207.207,0,0,0-.205-.1V3.164h5.2a.367.367,0,0,0,.205-.068.207.207,0,0,0,.1-.205H76.1V4.4h-.137a.557.557,0,0,0-.1-.205.289.289,0,0,0-.205-.068H72.021v1.4h2.362a.367.367,0,0,0,.205-.068.207.207,0,0,0,.1-.205h.137V6.724h-.137a.558.558,0,0,0-.1-.205.289.289,0,0,0-.205-.068H72.021Zm5.1,2.123V3.609A.367.367,0,0,0,77.02,3.4a.207.207,0,0,0-.205-.1V3.164h1.814V3.3a.558.558,0,0,0-.205.1.367.367,0,0,0-.068.205V8.573a.289.289,0,0,0,.068.205.207.207,0,0,0,.205.1v.137H76.815V8.881a.558.558,0,0,0,.205-.1A.289.289,0,0,0,77.088,8.573Zm8.285-1.541L86.2,8.265l-.1.068a.3.3,0,0,0-.205-.1,1.373,1.373,0,0,0-.445.205,7.477,7.477,0,0,1-1.233.582,4.272,4.272,0,0,1-1.2.137,3.611,3.611,0,0,1-2.26-.65,2.788,2.788,0,0,1-.822-.959,2.881,2.881,0,0,1-.342-1.438A2.868,2.868,0,0,1,80.2,4.259,3.39,3.39,0,0,1,83.045,3.1a4.121,4.121,0,0,1,1.2.137,4.825,4.825,0,0,1,1.232.582,1.373,1.373,0,0,0,.445.205c.068,0,.1-.034.205-.1l.1.068-.822,1.233-.1-.068v-.1a.37.37,0,0,0-.1-.24,2.155,2.155,0,0,0-.377-.274,3.452,3.452,0,0,0-1.609-.445,2.389,2.389,0,0,0-1.609.514,1.9,1.9,0,0,0-.719,1.541,1.854,1.854,0,0,0,.719,1.541,2.389,2.389,0,0,0,1.609.514,3.091,3.091,0,0,0,1.609-.445,2.155,2.155,0,0,0,.377-.274.311.311,0,0,0,.1-.24v-.1l.1-.1Zm5.957.514H88.694l-.411.822a.46.46,0,0,0-.068.274c0,.137.1.205.274.274v.137H86.538V8.916a.688.688,0,0,0,.274-.137.988.988,0,0,0,.205-.342l2.157-4.485a.765.765,0,0,0,.1-.342.261.261,0,0,0-.24-.274V3.2h2.088v.137c-.171.034-.24.137-.24.24a1.058,1.058,0,0,0,.068.274l2.225,4.519a1.833,1.833,0,0,0,.24.411.688.688,0,0,0,.274.137v.137H91.536V8.916c.205-.034.274-.137.274-.274a.546.546,0,0,0-.1-.274L91.3,7.546Zm-.377-.787L90.03,4.67l-.959,2.088ZM94.48,8.607V3.643a.289.289,0,0,0-.068-.205.207.207,0,0,0-.205-.1V3.2h3.287a4.16,4.16,0,0,1,1.643.24,2.217,2.217,0,0,1,1.2,1.164,3.482,3.482,0,0,1,.308,1.506,2.92,2.92,0,0,1-.924,2.328,2.634,2.634,0,0,1-.924.479,6.677,6.677,0,0,1-1.335.137H94.172V8.916a.558.558,0,0,0,.205-.1.289.289,0,0,0,.068-.205Zm1.3-.514H97.39a2.625,2.625,0,0,0,1.164-.205,1.825,1.825,0,0,0,.822-1.746A2.069,2.069,0,0,0,98.931,4.7a1.306,1.306,0,0,0-.582-.411,3.445,3.445,0,0,0-.924-.1H95.816V8.128Zm9.038-5a3.426,3.426,0,0,1,2.431.822,3,3,0,0,1,.959,2.26,2.892,2.892,0,0,1-.445,1.575,3.159,3.159,0,0,1-2.91,1.438,3.483,3.483,0,0,1-2.431-.822,3.236,3.236,0,0,1-.719-1.061,3.334,3.334,0,0,1-.205-1.164,2.925,2.925,0,0,1,.445-1.609,3.264,3.264,0,0,1,2.91-1.438Zm0,.993a2.028,2.028,0,0,0-1.4.514,1.925,1.925,0,0,0-.685,1.541,1.827,1.827,0,0,0,.685,1.541,1.97,1.97,0,0,0,1.4.514,2.028,2.028,0,0,0,1.4-.514,2.742,2.742,0,0,0,.514-.719,2.031,2.031,0,0,0,.171-.787,1.97,1.97,0,0,0-.65-1.575,2.2,2.2,0,0,0-1.4-.514Z" transform="translate(74.235 7.004)" fill="#373435"/>
  <path id="Caminho_15126" data-name="Caminho 15126" d="M5.94,38.3v6.436a.615.615,0,0,0,.1.377.777.777,0,0,0,.377.205v.24H3.27v-.24a.639.639,0,0,0,.377-.205.551.551,0,0,0,.1-.377v-8.97a.454.454,0,0,0-.1-.342.577.577,0,0,0-.377-.205v-.24H6.933v.24c-.24.034-.342.171-.342.342a.529.529,0,0,0,.24.411l5.991,6.06V35.767a.454.454,0,0,0-.1-.342.577.577,0,0,0-.377-.205v-.24h3.15v.24a.5.5,0,0,0-.377.205.511.511,0,0,0-.1.342v8.97a.615.615,0,0,0,.1.377.777.777,0,0,0,.377.205v.24H12.1v-.24c.24-.034.342-.171.342-.342,0-.1-.137-.274-.377-.548L6.009,38.3ZM27.03,40.012a2.515,2.515,0,0,1,1.815,2.5,2.671,2.671,0,0,1-1.061,2.26,3.154,3.154,0,0,1-1.232.582,6.428,6.428,0,0,1-1.746.205H17.41v-.24a.639.639,0,0,0,.377-.205.551.551,0,0,0,.1-.377V35.8a.615.615,0,0,0-.1-.377.577.577,0,0,0-.377-.205v-.24H24.7a6.133,6.133,0,0,1,1.712.171,3.384,3.384,0,0,1,1.13.514,2.562,2.562,0,0,1,.959,2.123,2.28,2.28,0,0,1-1.472,2.225Zm-6.745-.822h4.143a2.368,2.368,0,0,0,1.3-.274,1.106,1.106,0,0,0,.411-.959,1.068,1.068,0,0,0-.377-.924,2.287,2.287,0,0,0-1.335-.274H20.285v2.465Zm0,4.622h4.006A3.172,3.172,0,0,0,25.9,43.5a1.254,1.254,0,0,0,.582-1.13,1.188,1.188,0,0,0-.582-1.13,3.087,3.087,0,0,0-1.609-.308H20.285v2.876Zm13.044-2.568v3.526a.454.454,0,0,0,.1.342.577.577,0,0,0,.377.205v.24H30.453v-.24a.639.639,0,0,0,.377-.205.511.511,0,0,0,.1-.342V35.8a.615.615,0,0,0-.1-.377.577.577,0,0,0-.377-.205v-.24H37.2a9.73,9.73,0,0,1,1.951.137,3.747,3.747,0,0,1,1.267.479,2.612,2.612,0,0,1,.924,1.1,3.389,3.389,0,0,1,.308,1.438c0,1.746-.959,2.739-2.944,3.047l2.088,2.91a6.374,6.374,0,0,0,.822.993,1.23,1.23,0,0,0,.616.24v.24h-3.9v-.24c.274-.034.411-.137.411-.274a2.872,2.872,0,0,0-.377-.685l-2.191-3.115H33.3Zm0-1.746h3.629a9.071,9.071,0,0,0,1.13-.034,1.636,1.636,0,0,0,.616-.205,1.421,1.421,0,0,0,0-2.294,1.87,1.87,0,0,0-.616-.205,10.046,10.046,0,0,0-1.164-.034H33.3V39.5Zm14.79,5.238v-8.97a.454.454,0,0,0-.1-.342.577.577,0,0,0-.377-.205v-.24H51v.24a.5.5,0,0,0-.377.205.615.615,0,0,0-.1.377v8.97a.615.615,0,0,0,.1.377.577.577,0,0,0,.377.205v.24H47.64v-.24a.639.639,0,0,0,.377-.205.551.551,0,0,0,.1-.377ZM62.978,35.87l-1.267,2.5-.24-.137V38.1c0-.171-.171-.377-.479-.582a5.661,5.661,0,0,0-3.321-.959,4.778,4.778,0,0,0-1.472.205,1.439,1.439,0,0,0-.753.479.912.912,0,0,0-.308.685c0,.411.24.65.719.822.274.068.822.137,1.643.24l1.232.137a9.442,9.442,0,0,1,1.78.308,3.869,3.869,0,0,1,1.2.548,2.7,2.7,0,0,1,.856.993,2.944,2.944,0,0,1,.308,1.335,3.016,3.016,0,0,1-.719,1.986,3.95,3.95,0,0,1-2.088,1.164,7.778,7.778,0,0,1-2.225.274,9.736,9.736,0,0,1-4.211-.993,2.283,2.283,0,0,0-.548-.205.7.7,0,0,0-.308.171l-.24-.137,1.164-2.6.24.1v.1a.9.9,0,0,0,.308.65,4.707,4.707,0,0,0,1.609.753,7.58,7.58,0,0,0,2.054.342,4.032,4.032,0,0,0,1.78-.342,1.672,1.672,0,0,0,.65-.514,1.024,1.024,0,0,0,.24-.65A.791.791,0,0,0,60,41.656a7.039,7.039,0,0,0-1.609-.274l-1.233-.137c-.822-.1-1.4-.171-1.746-.24a4.486,4.486,0,0,1-.993-.377,2.6,2.6,0,0,1-1.13-1.061,2.9,2.9,0,0,1-.377-1.438,2.944,2.944,0,0,1,.924-2.225,5.155,5.155,0,0,1,3.7-1.164,8.442,8.442,0,0,1,1.917.205,14.175,14.175,0,0,1,2.225.753,2.8,2.8,0,0,0,.582.171.722.722,0,0,0,.377-.171l.205.1Zm7.532-1.1a6.3,6.3,0,0,1,4.485,1.506,5.234,5.234,0,0,1,1.746,4.074,5.111,5.111,0,0,1-.856,2.842c-1.1,1.712-2.876,2.568-5.375,2.568a6.425,6.425,0,0,1-4.451-1.506,5.382,5.382,0,0,1-1.335-1.917,5.286,5.286,0,0,1-.411-2.088,5.42,5.42,0,0,1,.822-2.91C66.2,35.664,67.976,34.808,70.51,34.774Zm0,1.78a3.838,3.838,0,0,0-2.568.89,3.469,3.469,0,0,0-1.233,2.773,3.538,3.538,0,0,0,1.233,2.807,3.7,3.7,0,0,0,2.6.89,4,4,0,0,0,2.6-.89,3.128,3.128,0,0,0,.924-1.335,3.39,3.39,0,0,0,.308-1.438,3.6,3.6,0,0,0-1.2-2.842,3.759,3.759,0,0,0-2.6-.89Zm11.606,8.388,1.4-2.533.24.1a1.056,1.056,0,0,0-.034.308q0,.308.514.616a3.669,3.669,0,0,0,1.1.411,5.617,5.617,0,0,0,1.267.171,3.765,3.765,0,0,0,2.26-.685,2.6,2.6,0,0,0,.89-1.061,4.851,4.851,0,0,0,.377-1.643,4.734,4.734,0,0,1-3.492,1.335,5.478,5.478,0,0,1-2.944-.787,3.34,3.34,0,0,1-1.1-1.2,3.023,3.023,0,0,1-.377-1.541,3.194,3.194,0,0,1,1.4-2.67,5.7,5.7,0,0,1,3.492-.993,5.262,5.262,0,0,1,3.595,1.13,4.388,4.388,0,0,1,1.267,1.917,6.809,6.809,0,0,1,.411,2.328,5.419,5.419,0,0,1-1.541,4.006,5.708,5.708,0,0,1-4.177,1.575,6.06,6.06,0,0,1-1.643-.171,9.888,9.888,0,0,1-1.678-.582,1.268,1.268,0,0,0-.514-.137.546.546,0,0,0-.274.1c-.068.034-.137.1-.171.1l-.205-.137Zm4.862-8.422a3.149,3.149,0,0,0-1.951.582,1.483,1.483,0,0,0-.616,1.267,1.572,1.572,0,0,0,.616,1.267,3.009,3.009,0,0,0,1.951.582,3.255,3.255,0,0,0,1.986-.582,1.464,1.464,0,0,0,.616-1.232,1.526,1.526,0,0,0-.616-1.267,2.985,2.985,0,0,0-1.986-.582Zm11.846-1.746a4.858,4.858,0,0,1,3.526,1.335,5.577,5.577,0,0,1,1.575,4.211,6.071,6.071,0,0,1-.24,1.712,4.662,4.662,0,0,1-.65,1.506,5.041,5.041,0,0,1-1.883,1.712,5.169,5.169,0,0,1-2.328.514A4.746,4.746,0,0,1,95.3,44.395a5.214,5.214,0,0,1-1.061-1.506,6.852,6.852,0,0,1-.548-2.636,6.048,6.048,0,0,1,.89-3.287,4.8,4.8,0,0,1,1.883-1.712,5.426,5.426,0,0,1,2.328-.514Zm0,1.78a2.265,2.265,0,0,0-1.986,1.1,4.319,4.319,0,0,0-.685,2.533,4.585,4.585,0,0,0,.685,2.533,2.321,2.321,0,0,0,2.02,1.1,2.362,2.362,0,0,0,2.02-1.1,4.965,4.965,0,0,0,0-5.033,2.362,2.362,0,0,0-2.02-1.1Zm11.538-1.78a4.858,4.858,0,0,1,3.526,1.335,5.577,5.577,0,0,1,1.575,4.211,6.071,6.071,0,0,1-.24,1.712,4.662,4.662,0,0,1-.65,1.506,5.041,5.041,0,0,1-1.883,1.712,5.169,5.169,0,0,1-2.328.514,4.746,4.746,0,0,1-3.526-1.369,5.214,5.214,0,0,1-1.061-1.506,6.853,6.853,0,0,1-.548-2.636,6.048,6.048,0,0,1,.89-3.287A4.8,4.8,0,0,1,108,35.254a5.426,5.426,0,0,1,2.328-.514Zm0,1.78a2.265,2.265,0,0,0-1.986,1.1,4.319,4.319,0,0,0-.685,2.533,4.585,4.585,0,0,0,.685,2.533,2.321,2.321,0,0,0,2.02,1.1,2.362,2.362,0,0,0,2.02-1.1,4.964,4.964,0,0,0,0-5.033,2.362,2.362,0,0,0-2.02-1.1Z" transform="translate(7.925 84.196)" fill="#fefefe"/>
  <path id="Caminho_15127" data-name="Caminho 15127" d="M36.85,38.79V35.982h.274a.967.967,0,0,0,.171.377.5.5,0,0,0,.24.068.668.668,0,0,0,.24-.034l.685-.171v-.445a.454.454,0,0,0-.1-.342.577.577,0,0,0-.377-.205v-.24h3.287v.24a.5.5,0,0,0-.377.205.551.551,0,0,0-.1.377v8.97a.615.615,0,0,0,.1.377.777.777,0,0,0,.377.205v.24H37.98v-.24a.639.639,0,0,0,.377-.205.551.551,0,0,0,.1-.377V38.105l-.753.171a.773.773,0,0,0-.377.171,1.115,1.115,0,0,0-.205.411H36.85Zm10.545,4.416a1.323,1.323,0,0,1,.924.377,1.267,1.267,0,0,1-.89,2.157,1.386,1.386,0,0,1-.924-.377,1.24,1.24,0,0,1,0-1.78,1.386,1.386,0,0,1,.924-.377Zm0-6.539a1.323,1.323,0,0,1,.924.377,1.267,1.267,0,0,1-.89,2.157,1.386,1.386,0,0,1-.924-.377,1.24,1.24,0,0,1,0-1.78,1.386,1.386,0,0,1,.924-.377Zm5.991,6.984h6.608a.454.454,0,0,0,.342-.1.577.577,0,0,0,.205-.377h.274v2.876h-.274a.5.5,0,0,0-.205-.377.511.511,0,0,0-.342-.1H51.606a1.022,1.022,0,0,0-.548.1.585.585,0,0,0-.205.411h-.274V45.6a4.627,4.627,0,0,1,.24-1.643,4.708,4.708,0,0,1,1.746-2.225,15.615,15.615,0,0,1,2.123-1.13l1.335-.616a4.109,4.109,0,0,0,1.369-.89A1.555,1.555,0,0,0,57.8,38a1.374,1.374,0,0,0-.479-1.1,2.477,2.477,0,0,0-1.438-.377,4.177,4.177,0,0,0-2.123.548c-.616.342-.959.719-.959,1.1a1.289,1.289,0,0,0,.137.479l-.171.171L50.647,36.6l.205-.171a1.032,1.032,0,0,0,.445.137.583.583,0,0,0,.24-.034,1.81,1.81,0,0,0,.377-.308,6.315,6.315,0,0,1,4.28-1.472,4.446,4.446,0,0,1,2.944.89,2.892,2.892,0,0,1,1.13,2.4,3.1,3.1,0,0,1-1.061,2.431,7.415,7.415,0,0,1-1.883,1.164l-1.2.514a9.042,9.042,0,0,1-.856.377c-.548.24-.924.411-1.164.514a2.454,2.454,0,0,0-.616.582Zm13.831-8.867a4.858,4.858,0,0,1,3.526,1.335,5.577,5.577,0,0,1,1.575,4.211,6.071,6.071,0,0,1-.24,1.712,4.662,4.662,0,0,1-.65,1.506,5.041,5.041,0,0,1-1.883,1.712,5.169,5.169,0,0,1-2.328.514A4.746,4.746,0,0,1,63.691,44.4,5.214,5.214,0,0,1,62.63,42.9a6.853,6.853,0,0,1-.548-2.636,6.048,6.048,0,0,1,.89-3.287,4.8,4.8,0,0,1,1.883-1.712,5.426,5.426,0,0,1,2.328-.514Zm0,1.78a2.265,2.265,0,0,0-1.986,1.1,4.319,4.319,0,0,0-.685,2.533,4.585,4.585,0,0,0,.685,2.533,2.321,2.321,0,0,0,2.02,1.1,2.362,2.362,0,0,0,2.02-1.1,4.964,4.964,0,0,0,0-5.033,2.362,2.362,0,0,0-2.02-1.1Z" transform="translate(89.31 84.22)" fill="#fefefe"/>
  <path id="Caminho_15128" data-name="Caminho 15128" d="M48.01,38.62V35.813h.274a.967.967,0,0,0,.171.377.5.5,0,0,0,.24.068.668.668,0,0,0,.24-.034l.685-.171v-.445a.454.454,0,0,0-.1-.342.576.576,0,0,0-.377-.205v-.24h3.287v.24a.5.5,0,0,0-.377.205.551.551,0,0,0-.1.377v8.97a.615.615,0,0,0,.1.377.777.777,0,0,0,.377.205v.24H49.14v-.24a.639.639,0,0,0,.377-.205.551.551,0,0,0,.1-.377V37.935l-.753.171a.773.773,0,0,0-.377.171,1.115,1.115,0,0,0-.205.411H48.01Z" transform="translate(116.358 84.39)" fill="#fefefe"/>
  <path id="Caminho_15129" data-name="Caminho 15129" d="M50.1,44.447l1.917-2.465.205.137a1.284,1.284,0,0,0-.034.342c0,.274.205.548.616.787a5.481,5.481,0,0,0,2.944.856,3.327,3.327,0,0,0,1.883-.479,1.716,1.716,0,0,0,.753-1.472,1.589,1.589,0,0,0-.719-1.369,3.257,3.257,0,0,0-1.917-.514,5.383,5.383,0,0,0-1.678.274c-.514.171-.787.377-.787.582a.65.65,0,0,0,.1.308l-.205.171-2.773-2.739.171-.171h.1c.24,0,.377-.171.377-.479V35.991a.551.551,0,0,0-.1-.377.576.576,0,0,0-.377-.205v-.24h8.559a.551.551,0,0,0,.377-.1,1.226,1.226,0,0,0,.205-.377h.274V37.5H59.72a.639.639,0,0,0-.205-.377.511.511,0,0,0-.342-.1H53.01v2.294a6.6,6.6,0,0,1,3.013-.65,5.475,5.475,0,0,1,3.526,1.027,3.023,3.023,0,0,1,1.2,2.533,3.385,3.385,0,0,1-.719,2.123q-1.233,1.643-4.211,1.643a7.667,7.667,0,0,1-3.321-.65,11.29,11.29,0,0,1-1.1-.616,1.193,1.193,0,0,0-.582-.205.893.893,0,0,0-.479.171l-.205-.171Z" transform="translate(121.423 84.075)" fill="#fefefe"/>
  <path id="Caminho_15130" data-name="Caminho 15130" d="M29.949,50.449,51.243,12.07H42.684L39.4,18.712H12.18l3.9,6.916H35.974L33,31.687H19.986Z" transform="translate(29.52 29.253)" fill="#2957a4" fill-rule="evenodd"/>
  <path id="Caminho_15131" data-name="Caminho 15131" d="M2.42,25.315H6.289v1.438h-2.4v1.4h2.4v1.438h-2.4v3.492H2.42Zm5.033,2.02H8.925v2.773a4.134,4.134,0,0,0,.1,1.13,1.021,1.021,0,0,0,.342.479,1.195,1.195,0,0,0,1.232,0,.853.853,0,0,0,.377-.514,3.408,3.408,0,0,0,.1-1.061V27.335H12.52v2.431a5.682,5.682,0,0,1-.24,2.054,2.313,2.313,0,0,1-.856,1.027,2.636,2.636,0,0,1-1.438.377,2.719,2.719,0,0,1-1.541-.411,2.416,2.416,0,0,1-.822-1.164,7.522,7.522,0,0,1-.171-1.883v-2.4Zm6.5,0H15.4v.582a3.543,3.543,0,0,1,.89-.582,2.353,2.353,0,0,1,.822-.171,2.1,2.1,0,0,1,1.472.582,2.006,2.006,0,0,1,.514,1.506v3.8H17.655V30.519a5.855,5.855,0,0,0-.1-1.369.94.94,0,0,0-.308-.514.979.979,0,0,0-.582-.171,1.007,1.007,0,0,0-.753.308,1.9,1.9,0,0,0-.445.822,7.25,7.25,0,0,0-.068,1.164v2.294H13.958V27.3Zm10.75-2.225h1.438v7.977H24.708V32.47a3.165,3.165,0,0,1-.856.582,2.614,2.614,0,0,1-.924.171,2.57,2.57,0,0,1-1.917-.856,3.027,3.027,0,0,1-.822-2.157,3.182,3.182,0,0,1,.787-2.191,2.453,2.453,0,0,1,1.917-.856,2.187,2.187,0,0,1,.959.205,2.717,2.717,0,0,1,.856.582ZM23.2,28.5a1.552,1.552,0,0,0-1.13.479,1.627,1.627,0,0,0-.445,1.2,1.709,1.709,0,0,0,.445,1.233,1.571,1.571,0,0,0,2.26,0,1.655,1.655,0,0,0,.445-1.233,1.575,1.575,0,0,0-.445-1.2A1.552,1.552,0,0,0,23.2,28.5Zm8.662-1.2H33.3v5.752H31.863v-.616a3.165,3.165,0,0,1-.856.582,2.577,2.577,0,0,1-2.842-.685,3.027,3.027,0,0,1-.822-2.157,3.182,3.182,0,0,1,.787-2.191,2.453,2.453,0,0,1,1.917-.856,2.187,2.187,0,0,1,.959.205,2.717,2.717,0,0,1,.856.582v-.65Zm-1.506,1.2a1.552,1.552,0,0,0-1.13.479,1.627,1.627,0,0,0-.445,1.2,1.709,1.709,0,0,0,.445,1.233,1.571,1.571,0,0,0,2.26,0,1.655,1.655,0,0,0,.445-1.233,1.575,1.575,0,0,0-.445-1.2A1.552,1.552,0,0,0,30.357,28.5Zm10.065-.034-1.2.65a1.674,1.674,0,0,0-.685-.479,1.8,1.8,0,0,0-.787-.137,1.786,1.786,0,0,0-1.3.479,1.577,1.577,0,0,0-.514,1.233,1.652,1.652,0,0,0,.479,1.2,1.759,1.759,0,0,0,1.267.479,1.787,1.787,0,0,0,1.506-.65l1.13.787a3.112,3.112,0,0,1-2.6,1.2,3.23,3.23,0,0,1-2.4-.89,2.87,2.87,0,0,1-.856-2.088,3.055,3.055,0,0,1,.411-1.541,2.988,2.988,0,0,1,1.164-1.1,3.477,3.477,0,0,1,1.678-.411,3.194,3.194,0,0,1,1.541.342,3.381,3.381,0,0,1,1.13.959ZM37.067,32.95h.89l-.068.24a1.212,1.212,0,0,1,.548.308.755.755,0,0,1,.205.514.86.86,0,0,1-.342.719,1.5,1.5,0,0,1-.993.308,3.208,3.208,0,0,1-1.164-.24l.205-.685a2.912,2.912,0,0,0,.753.137.73.73,0,0,0,.411-.1.311.311,0,0,0,.137-.274.207.207,0,0,0-.1-.205c-.068-.068-.171-.068-.308-.068H36.93l.171-.65Zm8.9-5.649h1.438v5.752H45.968v-.616a3.165,3.165,0,0,1-.856.582,2.577,2.577,0,0,1-2.842-.685,3.027,3.027,0,0,1-.822-2.157,3.182,3.182,0,0,1,.787-2.191,2.453,2.453,0,0,1,1.917-.856,2.187,2.187,0,0,1,.959.205,2.717,2.717,0,0,1,.856.582v-.65Zm-1.506,1.2a1.552,1.552,0,0,0-1.13.479,1.627,1.627,0,0,0-.445,1.2,1.709,1.709,0,0,0,.445,1.233,1.571,1.571,0,0,0,2.26,0,1.655,1.655,0,0,0,.445-1.233,1.575,1.575,0,0,0-.445-1.2A1.552,1.552,0,0,0,44.462,28.5Zm-1.506-2.26-.582-.856a2.276,2.276,0,0,1,1.369-.514,4.719,4.719,0,0,1,.89.171,3.01,3.01,0,0,0,.685.1,1.916,1.916,0,0,0,.924-.274l.548.822a2.1,2.1,0,0,1-1.3.582,2.532,2.532,0,0,1-.787-.137c-.24-.068-.411-.1-.479-.137-.1,0-.205-.034-.342-.034a1.916,1.916,0,0,0-.924.274Zm8.628.924a3.055,3.055,0,0,1,1.541.411,3.154,3.154,0,0,1,1.13,1.1,2.932,2.932,0,0,1,.411,1.506,2.844,2.844,0,0,1-.411,1.506,2.807,2.807,0,0,1-1.1,1.1,3.055,3.055,0,0,1-1.541.411A3.04,3.04,0,0,1,48.6,30.177a3.01,3.01,0,0,1,.993-2.26,2.915,2.915,0,0,1,1.986-.787Zm.034,1.369a1.552,1.552,0,0,0-1.13.479,1.627,1.627,0,0,0-.445,1.2,1.575,1.575,0,0,0,.445,1.2,1.5,1.5,0,0,0,1.13.479,1.552,1.552,0,0,0,1.13-.479,1.836,1.836,0,0,0,0-2.4A1.552,1.552,0,0,0,51.617,28.533Zm6.813-3.218h1.506l1.951,5.512,1.986-5.512h1.541l-2.807,7.772H61.169L58.4,25.315Zm12.291,2.02h1.438v5.752H70.721V32.47a3.165,3.165,0,0,1-.856.582,2.614,2.614,0,0,1-.924.171,2.57,2.57,0,0,1-1.917-.856,3.027,3.027,0,0,1-.822-2.157,3.182,3.182,0,0,1,.787-2.191,2.453,2.453,0,0,1,1.917-.856,2.187,2.187,0,0,1,.959.205,2.717,2.717,0,0,1,.856.582V27.3Zm-1.506,1.2a1.552,1.552,0,0,0-1.13.479,1.627,1.627,0,0,0-.445,1.2,1.709,1.709,0,0,0,.445,1.232,1.571,1.571,0,0,0,2.26,0,1.655,1.655,0,0,0,.445-1.232,1.575,1.575,0,0,0-.445-1.2A1.552,1.552,0,0,0,69.215,28.533Zm4.416-1.2h1.438v.582a3.543,3.543,0,0,1,.89-.582,2.353,2.353,0,0,1,.822-.171,2.1,2.1,0,0,1,1.472.582,2.006,2.006,0,0,1,.514,1.506v3.8H77.329V30.519a5.856,5.856,0,0,0-.1-1.369.941.941,0,0,0-.308-.514.979.979,0,0,0-.582-.171,1.007,1.007,0,0,0-.753.308,1.9,1.9,0,0,0-.445.822,7.252,7.252,0,0,0-.068,1.164v2.294H73.631V27.3Zm6.265,0h4.416l-2.6,4.519h2.431v1.232H79.485l2.6-4.519H79.9Zm7.943-.137a3.055,3.055,0,0,1,1.541.411,3.154,3.154,0,0,1,1.13,1.1,2.932,2.932,0,0,1,.411,1.506,2.844,2.844,0,0,1-.411,1.506,2.807,2.807,0,0,1-1.1,1.1,3.055,3.055,0,0,1-1.541.411,3.04,3.04,0,0,1-3.013-3.013,3.01,3.01,0,0,1,.993-2.26,2.915,2.915,0,0,1,1.986-.787Zm.034,1.369a1.552,1.552,0,0,0-1.13.479,1.627,1.627,0,0,0-.445,1.2,1.575,1.575,0,0,0,.445,1.2,1.5,1.5,0,0,0,1.13.479A1.552,1.552,0,0,0,89,31.443a1.836,1.836,0,0,0,0-2.4A1.552,1.552,0,0,0,87.873,28.567Zm4.074-3.424h1.438v7.977H91.947Zm3.321-.137a.935.935,0,0,1,.924.924.877.877,0,0,1-.274.65.935.935,0,0,1-.65.274.877.877,0,0,1-.65-.274.956.956,0,0,1-.274-.685.935.935,0,0,1,.924-.924Zm-.719,2.362h1.438v5.752H94.549Zm2.773,0H98.76v.582a3.544,3.544,0,0,1,.89-.582,2.353,2.353,0,0,1,.822-.171,1.961,1.961,0,0,1,1.438.582,2.006,2.006,0,0,1,.514,1.506v3.8h-1.438V30.553a5.856,5.856,0,0,0-.1-1.369.94.94,0,0,0-.308-.514,1.061,1.061,0,0,0-.582-.171,1.007,1.007,0,0,0-.753.308,1.9,1.9,0,0,0-.445.822,7.252,7.252,0,0,0-.068,1.164v2.294H97.288V27.335Zm7.087-2.362a.935.935,0,0,1,.924.924.877.877,0,0,1-.274.65.909.909,0,0,1-1.3,0,.956.956,0,0,1-.274-.685.935.935,0,0,1,.924-.924Zm-.719,2.362h1.438v5.752H103.69Z" transform="translate(5.865 60.275)" fill="#2957a4" fill-rule="evenodd"/>
  <path id="Caminho_15132" data-name="Caminho 15132" d="M40.369,16.851l.377-.582a1.709,1.709,0,0,1,.685.89,1.348,1.348,0,0,1-.171,1.13,1.471,1.471,0,0,1-.685.685,1.654,1.654,0,0,1-.924.1,2.433,2.433,0,0,1-1.027-.342,2.5,2.5,0,0,1-1.13-1.1,1.579,1.579,0,0,1,.89-2.088,1.639,1.639,0,0,1,1.2.068l-.274.65c-.616-.171-1.027-.068-1.2.308a.746.746,0,0,0,.034.753,2.2,2.2,0,0,0,.89.719,1.98,1.98,0,0,0,1.1.308.793.793,0,0,0,.65-.411.767.767,0,0,0,.034-.616.99.99,0,0,0-.411-.514Z" transform="translate(90.515 37.482)" fill="#fefefe"/>
  <path id="Caminho_15133" data-name="Caminho 15133" d="M43.4,16.342l-1.849,1.917L38.57,15.417,40.419,13.5l.445.411L39.529,15.28l.822.787,1.061-1.1.411.411-1.061,1.1.822.787L42.952,15.9Z" transform="translate(93.479 32.719)" fill="#fefefe"/>
  <path id="Caminho_15134" data-name="Caminho 15134" d="M45.2,15.333l-.685.377-1.369-1.164-.924.514.822,1.472-.65.377L40.41,13.313l1.575-.856a1.655,1.655,0,0,1,1.13-.24,1.1,1.1,0,0,1,.719.582,1.083,1.083,0,0,1-.137,1.3L45.2,15.333Zm-3.252-.787.822-.445a.925.925,0,0,0,.445-.445.559.559,0,0,0-.068-.514.506.506,0,0,0-.377-.274.826.826,0,0,0-.548.1l-.856.479.616,1.1Z" transform="translate(97.938 29.55)" fill="#fefefe" fill-rule="evenodd"/>
  <path id="Caminho_15135" data-name="Caminho 15135" d="M45.375,15.615l-.787.171-.719-3.424-1.061.24-.137-.616,2.91-.616.137.616-1.061.24Z" transform="translate(103.415 27.556)" fill="#fefefe"/>
  <path id="Caminho_15136" data-name="Caminho 15136" d="M45.713,15.423l-.753-.034L45.1,11.28l.753.034Z" transform="translate(108.966 27.338)" fill="#fefefe"/>
  <path id="Caminho_15137" data-name="Caminho 15137" d="M47.243,15.673l-.753-.205,1.232-3.937,2.465.753-.171.616-1.78-.548-.308,1.1,1.369.411-.171.582-1.369-.411Z" transform="translate(112.674 27.944)" fill="#fefefe"/>
  <path id="Caminho_15138" data-name="Caminho 15138" d="M48.97,16.293l-.65-.377,2.123-3.526.65.377Z" transform="translate(117.109 30.029)" fill="#fefefe"/>
  <path id="Caminho_15139" data-name="Caminho 15139" d="M51.487,18.243,49.57,16.394l2.876-2.944,1.883,1.815-.411.445-1.369-1.3-.787.787,1.1,1.061-.411.445-1.1-1.061-.787.822L51.932,17.8Z" transform="translate(120.138 32.598)" fill="#fefefe"/>
  <path id="Caminho_15140" data-name="Caminho 15140" d="M50.914,17.237l3.629-1.917.719,1.335a1.607,1.607,0,0,1,.1,1.472,2.391,2.391,0,0,1-2.6,1.369,1.953,1.953,0,0,1-1.232-1.061l-.65-1.2Zm.89.377.274.548a1.206,1.206,0,0,0,.719.582,1.748,1.748,0,0,0,1.13-.205,1.772,1.772,0,0,0,.753-.753,1.015,1.015,0,0,0,0-.89l-.342-.616L51.77,17.648Z" transform="translate(123.313 37.13)" fill="#fefefe" fill-rule="evenodd"/>
  <path id="Caminho_15141" data-name="Caminho 15141" d="M37.621,25.954l-.205-.753,3.492-.924-3.8-.171-.1-.377,3.184-2.02-3.458.924-.171-.582,3.971-1.061.308,1.13-2.328,1.506,2.773.137.308,1.13Z" transform="translate(88.607 50.872)" fill="#fefefe"/>
  <path id="Caminho_15142" data-name="Caminho 15142" d="M38.669,26.633l-.342-.719.719-.719-.685-1.438-1.027.137-.274-.582,4.28-.582.411.822L38.669,26.6Zm.822-1.883,1.369-1.335-1.917.274.514,1.061Z" transform="translate(89.819 55.089)" fill="#fefefe" fill-rule="evenodd"/>
  <path id="Caminho_15143" data-name="Caminho 15143" d="M39.59,28.5l-.411-.582,1.2-2.807c.034-.034.034-.1.1-.205.034-.034.034-.1.1-.205l-2.431,1.78L37.81,26l3.321-2.431.479.65-1.13,2.6a4.07,4.07,0,0,1-.205.479L42.6,25.624l.342.479-3.321,2.431Z" transform="translate(91.637 57.125)" fill="#fefefe"/>
  <path id="Caminho_15144" data-name="Caminho 15144" d="M41.365,29.368l-.582-.548.411-.924-1.164-1.1-.89.514-.479-.445,3.8-2.088.65.616-1.78,3.937Zm.1-2.054.822-1.746-1.678.924.89.822Z" transform="translate(93.697 60.057)" fill="#fefefe" fill-rule="evenodd"/>
  <path id="Caminho_15145" data-name="Caminho 15145" d="M43.237,28.457,42.107,30.2l-.274-.171.1-.582a1.216,1.216,0,0,1-1.267-.1,1.407,1.407,0,0,1-.719-1.233,2.642,2.642,0,0,1,.445-1.472,2.466,2.466,0,0,1,1.2-1.027,1.489,1.489,0,0,1,1.4.205,1.423,1.423,0,0,1,.65.856,1.522,1.522,0,0,1-.068,1.027l-.616-.24a.838.838,0,0,0-.308-1.1.813.813,0,0,0-.787-.1,1.832,1.832,0,0,0-.822.753c-.582.856-.582,1.472-.034,1.849A.964.964,0,0,0,41.7,29a.939.939,0,0,0,.582-.445l-.719-.479.308-.514,1.3.856Z" transform="translate(96.823 61.858)" fill="#fefefe"/>
  <path id="Caminho_15146" data-name="Caminho 15146" d="M43.5,30.9,41.07,29.8l1.643-3.732,2.431,1.061-.24.548-1.746-.753-.445,1.027,1.369.616-.24.548-1.369-.65-.479,1.061,1.746.787Z" transform="translate(99.538 63.184)" fill="#fefefe"/>
  <path id="Caminho_15147" data-name="Caminho 15147" d="M46.183,31.454l-.719-.171.856-3.492-1.951,3.218-.377-.1-.24-3.766-.89,3.492L42.28,30.5l.993-4.006,1.13.308.205,2.773,1.438-2.362,1.13.274Z" transform="translate(102.47 64.201)" fill="#fefefe"/>
  <path id="Caminho_15148" data-name="Caminho 15148" d="M46.75,31.011l-2.67-.1.137-4.108,2.67.1-.034.616-1.917-.068-.034,1.1,1.541.068-.034.582L44.9,29.162l-.068,1.13,1.951.068Z" transform="translate(106.833 64.953)" fill="#fefefe"/>
  <path id="Caminho_15149" data-name="Caminho 15149" d="M48.815,30.808l-.719.068-1.883-2.431c-.034-.034-.068-.1-.137-.171-.034-.034-.068-.1-.137-.171l.377,2.979-.582.068-.514-4.074.822-.1L47.753,29.2a1.773,1.773,0,0,0,.308.411l-.342-2.842L48.3,26.7l.514,4.074Z" transform="translate(109.596 64.71)" fill="#fefefe"/>
  <path id="Caminho_15150" data-name="Caminho 15150" d="M49.393,30.645l-.753.24-1.027-3.321-1.027.308-.205-.616,2.842-.856.205.616-1.061.308Z" transform="translate(112.407 63.983)" fill="#fefefe"/>
  <path id="Caminho_15151" data-name="Caminho 15151" d="M48.956,29.679,49.5,29.2c.274.308.65.342,1.164.068a.925.925,0,0,0,.445-.445.506.506,0,0,0,0-.445.8.8,0,0,0-.24-.24c-.1-.068-.274-.034-.479,0l-.787.205a1.552,1.552,0,0,1-.65.068.721.721,0,0,1-.445-.171,1.006,1.006,0,0,1-.342-.411,1.059,1.059,0,0,1-.068-.959,1.525,1.525,0,0,1,.753-.787,1.916,1.916,0,0,1,.924-.274,1.085,1.085,0,0,1,.787.308l-.548.479a.713.713,0,0,0-.89-.034.667.667,0,0,0-.377.377.364.364,0,0,0,.034.411c.1.205.377.24.753.171l.685-.205a1.493,1.493,0,0,1,.959,0,.944.944,0,0,1,.514.514,1.167,1.167,0,0,1,.068,1.061,1.934,1.934,0,0,1-.856.89,2.1,2.1,0,0,1-1.061.308,1.277,1.277,0,0,1-.924-.411Z" transform="translate(116.37 62.553)" fill="#fefefe"/>
  <path id="Caminho_15152" data-name="Caminho 15152" d="M53.09,28.99l-.582.514-1.1-1.369-2.6-.959.719-.548,1.815.685L51,25.4l.548-.445.479,2.7Z" transform="translate(118.296 60.469)" fill="#fefefe"/>
  <path id="Caminho_15153" data-name="Caminho 15153" d="M51.513,28.325l.377-.616q.514.308,1.13-.308a1.286,1.286,0,0,0,.308-.548.44.44,0,0,0-.137-.411.434.434,0,0,0-.308-.137.656.656,0,0,0-.445.137l-.685.445a2.742,2.742,0,0,1-.582.274.785.785,0,0,1-.479-.034,1.208,1.208,0,0,1-.445-.274,1.12,1.12,0,0,1-.377-.89,1.593,1.593,0,0,1,.479-.993,1.834,1.834,0,0,1,.822-.548,1.062,1.062,0,0,1,.856.068l-.342.65a.681.681,0,0,0-.856.24.706.706,0,0,0-.24.479.515.515,0,0,0,.137.377c.171.171.411.137.753-.068l.616-.377a1.464,1.464,0,0,1,.924-.308,1.157,1.157,0,0,1,.65.308,1.121,1.121,0,0,1,.377.993,1.767,1.767,0,0,1-.548,1.1,2.006,2.006,0,0,1-.924.616,1.27,1.27,0,0,1-.993-.1Z" transform="translate(120.865 59.045)" fill="#fefefe"/>
  <path id="Caminho_15154" data-name="Caminho 15154" d="M54.9,26.582l-.445.65L51.58,25.247l-.616.89-.514-.377,1.712-2.431.514.342-.616.924Z" transform="translate(122.271 56.543)" fill="#fefefe"/>
  <path id="Caminho_15155" data-name="Caminho 15155" d="M55.922,24.18l-1.164,2.4-3.7-1.815L52.224,22.4l.548.274-.822,1.712.993.479.685-1.369.514.24-.65,1.4,1.027.479.822-1.712Z" transform="translate(123.75 54.289)" fill="#fefefe"/>
  <path id="Caminho_15156" data-name="Caminho 15156" d="M56.563,22.011l-.205.753-3.492-.924,3.184,2.02-.1.377-3.766.171,3.492.924-.171.582L51.53,24.853l.308-1.13,2.773-.137L52.283,22.08l.308-1.13Z" transform="translate(124.889 50.775)" fill="#fefefe"/>
  <path id="Caminho_15157" data-name="Caminho 15157" d="M38.95,19.2H79.486V17.25H38.95Z" transform="translate(94.4 41.807)" fill="#2d338e"/>
  <path id="Caminho_15158" data-name="Caminho 15158" d="M38.95,22.677H79.486V21.65H38.95Z" transform="translate(94.4 52.471)" fill="#73715c"/>
  <path id="Caminho_15159" data-name="Caminho 15159" d="M35.78,20.161h9.141v-1.3H35.78Z" transform="translate(86.717 45.709)" fill="#73715c"/>
  <path id="Caminho_15160" data-name="Caminho 15160" d="M51.27,20.161h9v-1.3h-9Z" transform="translate(124.259 45.709)" fill="#73715c"/>
  <path id="Caminho_15161" data-name="Caminho 15161" d="M39.46,27.508V18.23h2.4v9.278Z" transform="translate(95.636 44.182)" fill="#73715c"/>
  <path id="Caminho_15162" data-name="Caminho 15162" d="M43.63,27.508V18.23h2.054l3.834,5.478V18.23h1.917v9.278H50.066l-4.382-5.615.034,5.615Z" transform="translate(105.742 44.182)" fill="#73715c"/>
  <path id="Caminho_15163" data-name="Caminho 15163" d="M53.537,23.541v1.575a4.65,4.65,0,0,1-3.047.924A4.731,4.731,0,0,1,47,24.876a3.492,3.492,0,0,1-.787-2.4,3.689,3.689,0,0,1,3.732-3.629c3.013-.034,3.7,2.636,3.663,4.04H48.538c0,.548-.034,1.951,2.26,1.986a3.882,3.882,0,0,0,2.773-1.3Zm-1.986-1.951a1.475,1.475,0,0,0-2.944-.034l2.944.034Z" transform="translate(111.995 45.685)" fill="#73715c" fill-rule="evenodd"/>
  <path id="Caminho_15164" data-name="Caminho 15164" d="M54.166,20.509v1.506h-2.6s-.034,2.944,0,3.526c0,.137-.137.514,1.4.445.787-.034.822-.1,1.164-.342v1.678a8.95,8.95,0,0,1-2.26.342c-1.712,0-2.533-1.917-2.533-1.951V22.05H48.38V21.5l1.643-1.849c.514-.582,1.3-1.4,1.3-1.4.068-.068.24-.1.24.068.034,0,0,2.191,0,2.191Z" transform="translate(117.254 44.094)" fill="#73715c"/>
  <path id="Caminho_15165" data-name="Caminho 15165" d="M42.213,21.841,41.6,21.4l-.65.445.24-.753-.616-.445h.787l.24-.753.24.753h.787l-.65.445Z" transform="translate(98.326 48.206)" fill="#2d338e"/>
  <path id="Caminho_15166" data-name="Caminho 15166" d="M42.1,21.241l-.65-.479-.616.479.24-.753-.65-.445h.787l.24-.753.24.753h.787l-.616.445Z" transform="translate(97.962 46.751)" fill="#2d338e"/>
  <path id="Caminho_15167" data-name="Caminho 15167" d="M42.223,20.621l-.616-.479-.65.479.274-.753-.65-.479h.787l.24-.719.24.719h.787l-.65.479Z" transform="translate(98.35 45.249)" fill="#2d338e"/>
  <path id="Caminho_15168" data-name="Caminho 15168" d="M42.7,20.131l-.65-.479-.616.479.24-.753-.65-.445h.787l.24-.753.24.753h.787l-.616.445Z" transform="translate(99.417 44.061)" fill="#2d338e"/>
  <path id="Caminho_15169" data-name="Caminho 15169" d="M43.3,20l-.616-.479-.65.479.24-.753-.616-.479h.787l.24-.719.24.719h.787l-.65.479Z" transform="translate(100.968 43.746)" fill="#2d338e"/>
  <path id="Caminho_15170" data-name="Caminho 15170" d="M42.673,22.291l-.616-.445-.65.445.24-.719-.616-.479h.787l.24-.753.24.753h.787l-.65.479Z" transform="translate(99.441 49.296)" fill="#2d338e"/>
  <path id="Caminho_15171" data-name="Caminho 15171" d="M43.3,22.531l-.616-.479-.65.479.24-.753-.616-.445h.753l.274-.753.24.753h.753l-.616.445Z" transform="translate(100.968 49.878)" fill="#2d338e"/>
  <path id="Caminho_15172" data-name="Caminho 15172" d="M43.117,21.841l.65-.445.616.445-.24-.753.65-.445h-.787l-.24-.753-.24.753H42.74l.65.445Z" transform="translate(103.585 48.206)" fill="#2d338e"/>
  <path id="Caminho_15173" data-name="Caminho 15173" d="M43.267,21.241l.65-.479.616.479-.24-.753.616-.445h-.753l-.24-.753-.24.753H42.89l.616.445Z" transform="translate(103.949 46.751)" fill="#2d338e"/>
  <path id="Caminho_15174" data-name="Caminho 15174" d="M43.107,20.621l.65-.479.616.479-.24-.753.65-.479H44l-.24-.719-.24.719H42.73l.616.479Z" transform="translate(103.561 45.249)" fill="#2d338e"/>
  <path id="Caminho_15175" data-name="Caminho 15175" d="M42.667,20.131l.616-.479.65.479-.24-.753.616-.445h-.787l-.24-.753-.24.753H42.29l.616.445Z" transform="translate(102.495 44.061)" fill="#2d338e"/>
  <path id="Caminho_15176" data-name="Caminho 15176" d="M42.657,22.291l.65-.445.616.445-.24-.719.65-.479h-.787l-.24-.753-.24.753H42.28l.65.479Z" transform="translate(102.47 49.296)" fill="#2d338e"/>
  <path id="Caminho_15177" data-name="Caminho 15177" d="M42.287,21.771l.616-.445.65.445-.24-.753.616-.445h-.787l-.24-.753-.24.753H41.91l.616.445Z" transform="translate(101.574 48.036)" fill="#2d338e"/>
  <path id="Caminho_15178" data-name="Caminho 15178" d="M43.037,22.787l.616-.445.65.445-.24-.719.616-.479h-.753l-.274-.719-.24.719H42.66l.616.479Z" transform="translate(103.391 50.581)" fill="#2d338e"/>
  <path id="Caminho_15179" data-name="Caminho 15179" d="M44.868,37.84a22.155,22.155,0,0,1,43.651,0h9.038a31.094,31.094,0,0,0-61.728,0Z" transform="translate(86.838 25.496)" fill="#2d338e"/>
  <path id="Caminho_15180" data-name="Caminho 15180" d="M89,19.6a22.151,22.151,0,0,1-44.3,0H35.76a31.086,31.086,0,1,0,62.173,0H89Z" transform="translate(86.668 47.503)" fill="#2d338e"/>
  <path id="Caminho_15181" data-name="Caminho 15181" d="M40.419,16.845l.377-.582a1.709,1.709,0,0,1,.685.89,1.348,1.348,0,0,1-.171,1.13,1.471,1.471,0,0,1-.685.685,1.654,1.654,0,0,1-.924.1,2.433,2.433,0,0,1-1.027-.342,2.563,2.563,0,0,1-1.13-1.13,1.579,1.579,0,0,1,.89-2.088,1.639,1.639,0,0,1,1.2.068l-.274.65q-.924-.257-1.232.308a.744.744,0,0,0,.034.753,2.2,2.2,0,0,0,.89.719,2.013,2.013,0,0,0,1.13.308.793.793,0,0,0,.65-.411.775.775,0,0,0,.034-.616.99.99,0,0,0-.411-.514Z" transform="translate(90.636 37.385)" fill="#fefefe"/>
  <path id="Caminho_15182" data-name="Caminho 15182" d="M43.447,16.3l-1.883,1.917L38.62,15.343l1.849-1.883.445.411L39.579,15.24l.787.787,1.061-1.1.445.411-1.061,1.1.822.822,1.335-1.4Z" transform="translate(93.6 32.622)" fill="#fefefe"/>
  <path id="Caminho_15183" data-name="Caminho 15183" d="M45.263,15.293l-.685.377-1.369-1.164-.924.514.822,1.472-.65.377L40.47,13.273l1.575-.856a1.655,1.655,0,0,1,1.13-.24,1.1,1.1,0,0,1,.719.582,1.133,1.133,0,0,1-.1,1.3L45.3,15.293Zm-3.287-.787.822-.445a.925.925,0,0,0,.445-.445.559.559,0,0,0-.068-.514.506.506,0,0,0-.377-.274.826.826,0,0,0-.548.1l-.856.479.616,1.1Z" transform="translate(98.084 29.453)" fill="#fefefe" fill-rule="evenodd"/>
  <path id="Caminho_15184" data-name="Caminho 15184" d="M45.435,15.565l-.787.171-.719-3.424-1.1.24-.1-.616,2.91-.616.137.616-1.061.24Z" transform="translate(103.561 27.435)" fill="#fefefe"/>
  <path id="Caminho_15185" data-name="Caminho 15185" d="M45.749,15.373H45.03l.137-4.143.719.034Z" transform="translate(109.135 27.217)" fill="#fefefe"/>
  <path id="Caminho_15186" data-name="Caminho 15186" d="M47.289,15.657l-.719-.24,1.2-3.937,2.5.753-.205.616L48.316,12.3l-.342,1.1,1.4.411-.205.616L47.8,13.979Z" transform="translate(112.868 27.823)" fill="#fefefe"/>
  <path id="Caminho_15187" data-name="Caminho 15187" d="M49.05,16.243l-.65-.377,2.123-3.526.65.377Z" transform="translate(117.303 29.907)" fill="#fefefe"/>
  <path id="Caminho_15188" data-name="Caminho 15188" d="M51.6,18.227,49.65,16.379,52.526,13.4l1.917,1.849L54,15.694l-1.369-1.335-.787.822,1.13,1.061-.411.445-1.13-1.1-.787.856,1.4,1.335Z" transform="translate(120.332 32.476)" fill="#fefefe"/>
  <path id="Caminho_15189" data-name="Caminho 15189" d="M50.994,17.221l3.629-1.951.719,1.335a1.613,1.613,0,0,1,.1,1.472,2.391,2.391,0,0,1-2.6,1.369,1.953,1.953,0,0,1-1.232-1.061l-.65-1.2Zm.89.377.274.548a1.206,1.206,0,0,0,.719.582,1.67,1.67,0,0,0,1.164-.205,1.772,1.772,0,0,0,.753-.753,1.015,1.015,0,0,0,0-.89l-.342-.616-2.6,1.369Z" transform="translate(123.507 37.009)" fill="#fefefe" fill-rule="evenodd"/>
  <path id="Caminho_15190" data-name="Caminho 15190" d="M37.661,25.968l-.205-.753,3.492-.924-3.8-.171-.1-.377,3.184-2.054-3.458.959-.171-.616,3.971-1.061.308,1.13-2.328,1.506,2.773.137.308,1.13Z" transform="translate(88.704 50.823)" fill="#fefefe"/>
  <path id="Caminho_15191" data-name="Caminho 15191" d="M38.685,26.623l-.342-.719.753-.719-.685-1.438-1.027.137L37.11,23.3l4.314-.582.411.822-3.115,3.047Zm.822-1.883,1.4-1.335-1.917.274.514,1.1Z" transform="translate(89.94 55.064)" fill="#fefefe" fill-rule="evenodd"/>
  <path id="Caminho_15192" data-name="Caminho 15192" d="M39.63,28.5l-.411-.582,1.2-2.807c.034-.034.034-.1.1-.205.034-.034.034-.1.1-.205l-2.431,1.78L37.85,26l3.321-2.431.479.65-1.13,2.6a4.07,4.07,0,0,1-.205.479l2.328-1.678.342.479L39.63,28.534Z" transform="translate(91.734 57.125)" fill="#fefefe"/>
  <path id="Caminho_15193" data-name="Caminho 15193" d="M41.39,29.392l-.582-.548.445-.959-1.164-1.1-.89.514-.479-.445,3.8-2.088.685.616L41.39,29.358Zm.1-2.054.822-1.746-1.712.924Z" transform="translate(93.842 60.033)" fill="#fefefe" fill-rule="evenodd"/>
  <path id="Caminho_15194" data-name="Caminho 15194" d="M43.311,28.433l-1.164,1.78-.274-.171.1-.582a1.216,1.216,0,0,1-1.267-.1,1.407,1.407,0,0,1-.719-1.232,2.642,2.642,0,0,1,.445-1.472,2.466,2.466,0,0,1,1.2-1.027,1.663,1.663,0,0,1,1.438.171,1.423,1.423,0,0,1,.65.856,1.522,1.522,0,0,1-.068,1.027l-.616-.24a.838.838,0,0,0-.308-1.1.813.813,0,0,0-.787-.1A1.832,1.832,0,0,0,41.12,27c-.582.856-.582,1.472-.034,1.849a.964.964,0,0,0,.685.137.939.939,0,0,0,.582-.445l-.719-.479.342-.514,1.3.856Z" transform="translate(96.92 61.881)" fill="#fefefe"/>
  <path id="Caminho_15195" data-name="Caminho 15195" d="M43.551,30.932l-2.431-1.1L42.8,26.07l2.431,1.061-.274.582-1.746-.787-.445,1.027,1.4.616-.24.548-1.4-.616-.479,1.061,1.78.787Z" transform="translate(99.659 63.184)" fill="#fefefe"/>
  <path id="Caminho_15196" data-name="Caminho 15196" d="M46.243,31.464l-.719-.171.856-3.526-1.986,3.252-.377-.1-.24-3.8-.856,3.526-.582-.137.993-4.006,1.13.274.171,2.773,1.472-2.362,1.13.274Z" transform="translate(102.616 64.226)" fill="#fefefe"/>
  <path id="Caminho_15197" data-name="Caminho 15197" d="M46.845,31.011l-2.7-.068.171-4.143,2.636.1-.034.616L45.03,27.45,45,28.58l1.506.034v.616l-1.541-.068-.034,1.164,1.917.068Z" transform="translate(106.978 64.953)" fill="#fefefe"/>
  <path id="Caminho_15198" data-name="Caminho 15198" d="M48.885,30.784l-.719.1-1.883-2.431c-.034-.034-.068-.1-.137-.171-.034-.034-.068-.1-.137-.171l.377,3.013-.582.068-.514-4.108.822-.1,1.746,2.225c0,.034.137.171.308.411l-.342-2.842.582-.068.514,4.108Z" transform="translate(109.765 64.735)" fill="#fefefe"/>
  <path id="Caminho_15199" data-name="Caminho 15199" d="M49.463,30.68l-.753.24-1.027-3.355-1.027.308-.205-.582,2.876-.89.171.616-1.027.308Z" transform="translate(112.577 63.983)" fill="#fefefe"/>
  <path id="Caminho_15200" data-name="Caminho 15200" d="M49.036,29.683l.548-.479c.274.308.65.342,1.164.068a.925.925,0,0,0,.445-.445.506.506,0,0,0,0-.445.8.8,0,0,0-.24-.24c-.1-.068-.274-.034-.479,0l-.787.205a1.552,1.552,0,0,1-.65.068.721.721,0,0,1-.445-.171,1.006,1.006,0,0,1-.342-.411,1.124,1.124,0,0,1-.068-.993,1.525,1.525,0,0,1,.753-.787,1.607,1.607,0,0,1,.959-.24,1.085,1.085,0,0,1,.787.308l-.548.479a.713.713,0,0,0-.89-.034.892.892,0,0,0-.411.377.364.364,0,0,0,.034.411c.1.205.377.274.753.137l.685-.171a1.613,1.613,0,0,1,.993,0,.944.944,0,0,1,.514.514,1.167,1.167,0,0,1,.068,1.061,1.934,1.934,0,0,1-.856.89,2.1,2.1,0,0,1-1.061.308,1.277,1.277,0,0,1-.924-.411Z" transform="translate(116.564 62.549)" fill="#fefefe"/>
  <path id="Caminho_15201" data-name="Caminho 15201" d="M53.2,28.99l-.616.514-1.1-1.369-2.6-.959.719-.582,1.815.719L51.081,25.4l.548-.445.479,2.7Z" transform="translate(118.49 60.469)" fill="#fefefe"/>
  <path id="Caminho_15202" data-name="Caminho 15202" d="M51.593,28.315l.377-.616q.514.308,1.13-.308a1.286,1.286,0,0,0,.308-.548.44.44,0,0,0-.137-.411.434.434,0,0,0-.308-.137.656.656,0,0,0-.445.137l-.685.445a2.742,2.742,0,0,1-.582.274.785.785,0,0,1-.479-.034.983.983,0,0,1-.445-.274,1.12,1.12,0,0,1-.377-.89,1.593,1.593,0,0,1,.479-.993,1.834,1.834,0,0,1,.822-.548,1.062,1.062,0,0,1,.856.068l-.342.65a.681.681,0,0,0-.856.24.706.706,0,0,0-.24.479.468.468,0,0,0,.137.377c.171.171.411.137.753-.068l.616-.377a1.464,1.464,0,0,1,.924-.308,1.157,1.157,0,0,1,.65.308,1.121,1.121,0,0,1,.377.993,1.964,1.964,0,0,1-.548,1.1,2.006,2.006,0,0,1-.924.616,1.255,1.255,0,0,1-.993-.1Z" transform="translate(121.059 59.021)" fill="#fefefe"/>
  <path id="Caminho_15203" data-name="Caminho 15203" d="M55.015,26.572l-.479.65-2.842-1.986-.616.89-.548-.377,1.712-2.431.548.342-.65.924Z" transform="translate(122.465 56.519)" fill="#fefefe"/>
  <path id="Caminho_15204" data-name="Caminho 15204" d="M56.012,24.17l-1.164,2.4-3.7-1.815,1.164-2.362.548.274-.856,1.712,1.027.479.65-1.369.548.24-.65,1.4,1.027.479.856-1.712Z" transform="translate(123.968 54.265)" fill="#fefefe"/>
  <path id="Caminho_15205" data-name="Caminho 15205" d="M56.653,22l-.205.719L52.955,21.8l3.218,2.02-.1.377-3.8.171,3.492.959-.171.582L51.62,24.843l.308-1.13,2.773-.137L52.373,22.07l.308-1.13Z" transform="translate(125.107 50.75)" fill="#fefefe"/>
</svg>
